<svg height="400" viewbox="0 0 400 400" preserveAspectRatio="xMidYMid meet" xmlns="http://www.w3.org/2000/svg" width="400"><defs><marker viewBox="0 0 10 10 " refX="5" refY="5" markerUnits="userSpaceOnUse" markerWidth="2%" markerHeight="2%" id="circle"><circle r="3" fill="none" stroke="black" cx="5" cy="5"/></marker><marker refY="5" markerUnits="userSpaceOnUse" markerWidth="2%" markerHeight="2%" id="filled-circle" viewBox="0 0 10 10 " refX="5"><circle cx="5" cy="5" r="3" fill="black" stroke="none"/></marker><marker markerUnits="userSpaceOnUse" markerWidth="2%" markerHeight="2%" id="square" viewBox="0 0 10 10 " refX="5" refY="5"><rect height="6" fill="none" stroke="black" x="2" y="2" width="6"/></marker><marker markerUnits="userSpaceOnUse" markerWidth="2%" markerHeight="2%" id="filled-square" viewBox="0 0 10 10 " refX="5" refY="5"><rect x="2" y="2" width="6" height="6" fill="black" stroke="none"/></marker></defs><g marker-end="url(#square)" stroke-linejoin="round" stroke-width="3px" fill="none" stroke="hsl(90, 47%, 65%)" marker-start="url(#square)" transform="translate(64 336 )scale(1 -1 )" stroke-linecap="round" marker-mid="url(#square)"><path vector-effect="non-scaling-stroke" d="M5.440000e+00,9.174126e+00 L1.018764e+01,7.878618e+00 L1.493527e+01,6.990019e+00 L1.968291e+01,6.398468e+00 L2.443055e+01,6.018270e+00 L2.917818e+01,5.783523e+00 L3.392582e+01,5.644526e+00 L3.867345e+01,5.564842e+00 L4.342109e+01,5.518895e+00 L4.816873e+01,5.490001e+00 L5.291636e+01,5.468757e+00 L5.766400e+01,5.451719e+00 L6.241164e+01,5.440322e+00 L6.715927e+01,5.440000e+00 L7.190691e+01,5.459454e+00 L7.665455e+01,5.510067e+00 L8.140218e+01,5.605410e+00 L8.614982e+01,5.760854e+00 L9.089745e+01,5.993237e+00 L9.564509e+01,6.320602e+00 L1.003927e+02,6.761975e+00 L1.051404e+02,7.337191e+00 L1.098880e+02,8.066744e+00 L1.146356e+02,8.971669e+00 L1.193833e+02,1.007344e+01 L1.241309e+02,1.139391e+01 L1.288785e+02,1.295520e+01 L1.336262e+02,1.477971e+01 L1.383738e+02,1.688999e+01 L1.431215e+02,1.930881e+01 L1.478691e+02,2.205903e+01 L1.526167e+02,2.516364e+01 L1.573644e+02,2.864571e+01 L1.621120e+02,3.252838e+01 L1.668596e+02,3.683488e+01 L1.716073e+02,4.158844e+01 L1.763549e+02,4.681237e+01 L1.811025e+02,5.253000e+01 L1.858502e+02,5.876467e+01 L1.905978e+02,6.553978e+01 L1.953455e+02,7.287871e+01 L2.000931e+02,8.080488e+01 L2.048407e+02,8.934171e+01 L2.095884e+02,9.851263e+01 L2.143360e+02,1.083411e+02 L2.190836e+02,1.188505e+02 L2.238313e+02,1.300644e+02 L2.285789e+02,1.420061e+02 L2.333265e+02,1.546992e+02 L2.380742e+02,1.681671e+02 L2.428218e+02,1.824333e+02 L2.475695e+02,1.975213e+02 L2.523171e+02,2.134545e+02 L2.570647e+02,2.302563e+02 L2.618124e+02,2.479503e+02 L2.665600e+02,2.665600e+02 "/></g><g stroke="black" transform="translate(64 336 )scale(1 -1 )" stroke-linecap="round" stroke-linejoin="round" stroke-width="2px" fill="none"><path vector-effect="non-scaling-stroke" d="M5.440000e+00,0 L5.440000e+00,-6 M7.665455e+01,0 L7.665455e+01,-6 M1.478691e+02,0 L1.478691e+02,-6 M2.190836e+02,0 L2.190836e+02,-6 "/></g><g font-family="sans-serif" font-size="12px" text-anchor="middle" transform="translate(64 336 )scale(1 1 )" stroke-width="2px" font-style="normal" dominant-baseline="hanging" stroke-linecap="round" stroke-linejoin="round" font-weight="normal" fill="black" stroke="black"><text x="5.440000e+00" y="10" dominant-baseline="hanging" stroke="none" vector-effect="non-scaling-stroke">-3.0</text><text y="10" dominant-baseline="hanging" stroke="none" vector-effect="non-scaling-stroke" x="7.665455e+01">0.0</text><text x="1.478691e+02" y="10" dominant-baseline="hanging" stroke="none" vector-effect="non-scaling-stroke">3.0</text><text dominant-baseline="hanging" stroke="none" vector-effect="non-scaling-stroke" x="2.190836e+02" y="10">6.0</text></g><g text-anchor="middle" dominant-baseline="baseline" stroke-linecap="round" stroke-linejoin="round" stroke-width="2px" stroke="black" font-style="normal" transform="translate(64 336 )scale(1 1 )rotate(0 0 0 )" font-family="sans-serif" font-size="12px" font-weight="bold" fill="black"><text dominant-baseline="baseline" stroke="none" vector-effect="non-scaling-stroke" x="136" y="-6">X</text></g><g stroke-linejoin="round" transform="translate(64 336 )scale(1 -1 )" fill="black" stroke="black" stroke-width="2px" text-anchor="middle" dominant-baseline="baseline" font-style="normal" stroke-linecap="round" font-family="sans-serif" font-size="12px" font-weight="bold"><path vector-effect="non-scaling-stroke" d="M0,1.031962e+02 L-6,1.031962e+02 M0,2.010186e+02 L-6,2.010186e+02 "/></g><g stroke="black" stroke-width="2px" font-style="normal" text-anchor="end" dominant-baseline="middle" stroke-linecap="round" font-family="sans-serif" font-size="12px" font-weight="normal" fill="black" stroke-linejoin="round" transform="translate(64 336 )scale(1 1 )"><text dominant-baseline="middle" stroke="none" vector-effect="non-scaling-stroke" x="-10" y="-1.031962e+02">200.0</text><text stroke="none" vector-effect="non-scaling-stroke" x="-10" y="-2.010186e+02" dominant-baseline="middle">400.0</text></g><g font-style="normal" dominant-baseline="hanging" stroke="black" transform="translate(64 336 )scale(1 1 )rotate(-90 0 0 )" font-family="sans-serif" font-weight="bold" stroke-linejoin="round" stroke-width="2px" text-anchor="middle" fill="black" font-size="12px" stroke-linecap="round"><text dominant-baseline="hanging" stroke="none" vector-effect="non-scaling-stroke" x="136" y="6">Y</text></g><g font-style="normal" font-weight="bold" stroke-linecap="round" dominant-baseline="hanging" stroke="gray" text-anchor="middle" fill="black" stroke-width="0.5px" font-size="12px" stroke-linejoin="round" transform="translate(64 336 )scale(1 -1 )" font-family="sans-serif"><path vector-effect="non-scaling-stroke" d="M0,1.031962e+02 L272,1.031962e+02 M0,2.010186e+02 L272,2.010186e+02 "/></g><g stroke-width="2px" font-style="normal" font-weight="bold" stroke-linecap="round" stroke-linejoin="round" font-size="12px" dominant-baseline="hanging" fill="none" stroke="black" text-anchor="middle" font-family="sans-serif"><rect y="64" width="272" height="272" vector-effect="non-scaling-stroke" x="64"/><g fill="black" font-size="18px" dominant-baseline="middle"><text stroke="none" vector-effect="non-scaling-stroke" x="200" y="32" dominant-baseline="middle">raw</text></g></g></svg>