<svg height="400" viewbox="0 0 400 400" preserveAspectRatio="xMidYMid meet" xmlns="http://www.w3.org/2000/svg" width="400"><defs><marker id="circle" viewBox="0 0 10 10 " refX="5" refY="5" markerUnits="userSpaceOnUse" markerWidth="2%" markerHeight="2%"><circle stroke="black" cx="5" cy="5" r="3" fill="none"/></marker><marker markerHeight="2%" id="filled-circle" viewBox="0 0 10 10 " refX="5" refY="5" markerUnits="userSpaceOnUse" markerWidth="2%"><circle cy="5" r="3" fill="black" stroke="none" cx="5"/></marker><marker refX="5" refY="5" markerUnits="userSpaceOnUse" markerWidth="2%" markerHeight="2%" id="square" viewBox="0 0 10 10 "><rect fill="none" stroke="black" x="2" y="2" width="6" height="6"/></marker><marker refY="5" markerUnits="userSpaceOnUse" markerWidth="2%" markerHeight="2%" id="filled-square" viewBox="0 0 10 10 " refX="5"><rect y="2" width="6" height="6" fill="black" stroke="none" x="2"/></marker></defs><g stroke="hsl(90, 47%, 65%)" stroke-linecap="round" marker-end="url(#square)" stroke-width="3px" marker-start="url(#square)" fill="none" transform="translate(64 336 )scale(1 -1 )" stroke-linejoin="round" marker-mid="url(#square)"><path vector-effect="non-scaling-stroke" d="M5.440000e+00,5.440000e+00 L2.284800e+01,7.319640e+00 L4.025600e+01,1.007008e+01 L5.766400e+01,1.396765e+01 L7.507200e+01,1.930525e+01 L9.248000e+01,2.638928e+01 L1.098880e+02,3.553724e+01 L1.272960e+02,4.707571e+01 L1.447040e+02,6.133870e+01 L1.621120e+02,7.866630e+01 L1.795200e+02,9.940356e+01 L1.969280e+02,1.238996e+02 L2.143360e+02,1.525070e+02 L2.317440e+02,1.855810e+02 L2.491520e+02,2.234788e+02 L2.665600e+02,2.665600e+02 "/></g><g fill="none" stroke="black" stroke-linecap="round" stroke-width="2px" stroke-linejoin="round" transform="translate(64 336 )scale(1 -1 )"><path vector-effect="non-scaling-stroke" d="M5.440000e+00,0 L5.440000e+00,-6 M9.248000e+01,0 L9.248000e+01,-6 M1.795200e+02,0 L1.795200e+02,-6 M2.665600e+02,0 L2.665600e+02,-6 "/></g><g text-anchor="middle" stroke-width="2px" transform="translate(64 336 )scale(1 1 )" font-size="12px" fill="black" stroke-linecap="round" font-family="sans-serif" dominant-baseline="hanging" stroke-linejoin="round" font-style="normal" stroke="black" font-weight="normal"><text x="5.440000e+00" y="10" dominant-baseline="hanging" stroke="none" vector-effect="non-scaling-stroke">0.0</text><text stroke="none" vector-effect="non-scaling-stroke" x="9.248000e+01" y="10" dominant-baseline="hanging">1.0</text><text stroke="none" vector-effect="non-scaling-stroke" x="1.795200e+02" y="10" dominant-baseline="hanging">2.0</text><text vector-effect="non-scaling-stroke" x="2.665600e+02" y="10" dominant-baseline="hanging" stroke="none">3.0</text></g><g font-weight="bold" stroke-linecap="round" font-size="12px" text-anchor="middle" stroke-width="2px" stroke-linejoin="round" transform="translate(64 336 )scale(1 1 )rotate(0 0 0 )" font-family="sans-serif" font-style="normal" dominant-baseline="baseline" fill="black" stroke="black"><text dominant-baseline="baseline" stroke="none" vector-effect="non-scaling-stroke" x="136" y="-6">X</text></g><g stroke-linecap="round" font-family="sans-serif" font-weight="bold" dominant-baseline="baseline" stroke-width="2px" font-size="12px" font-style="normal" text-anchor="middle" stroke="black" fill="black" stroke-linejoin="round" transform="translate(64 336 )scale(1 -1 )"><path vector-effect="non-scaling-stroke" d="M0,5.440000e+00 L-6,5.440000e+00 M0,8.201574e+01 L-6,8.201574e+01 M0,1.585915e+02 L-6,1.585915e+02 M0,2.351672e+02 L-6,2.351672e+02 "/></g><g stroke-width="2px" transform="translate(64 336 )scale(1 1 )" font-size="12px" font-style="normal" text-anchor="end" dominant-baseline="middle" stroke-linecap="round" stroke="black" font-family="sans-serif" font-weight="normal" stroke-linejoin="round" fill="black"><text dominant-baseline="middle" stroke="none" vector-effect="non-scaling-stroke" x="-10" y="-5.440000e+00">0.0</text><text x="-10" y="-8.201574e+01" dominant-baseline="middle" stroke="none" vector-effect="non-scaling-stroke">10.0</text><text dominant-baseline="middle" stroke="none" vector-effect="non-scaling-stroke" x="-10" y="-1.585915e+02">20.0</text><text stroke="none" vector-effect="non-scaling-stroke" x="-10" y="-2.351672e+02" dominant-baseline="middle">30.0</text></g><g fill="black" font-style="normal" text-anchor="middle" stroke-width="2px" transform="translate(64 336 )scale(1 1 )rotate(-90 0 0 )" font-size="12px" font-weight="bold" stroke="black" stroke-linecap="round" font-family="sans-serif" dominant-baseline="hanging" stroke-linejoin="round"><text stroke="none" vector-effect="non-scaling-stroke" x="136" y="6" dominant-baseline="hanging">Y</text></g><g text-anchor="middle" dominant-baseline="hanging" stroke-width="0.5px" transform="translate(64 336 )scale(1 -1 )" fill="black" stroke="gray" stroke-linecap="round" font-size="12px" font-style="normal" stroke-linejoin="round" font-family="sans-serif" font-weight="bold"><path vector-effect="non-scaling-stroke" d="M0,5.440000e+00 L272,5.440000e+00 M0,8.201574e+01 L272,8.201574e+01 M0,1.585915e+02 L272,1.585915e+02 M0,2.351672e+02 L272,2.351672e+02 "/></g><g font-weight="bold" stroke-width="2px" font-style="normal" fill="none" stroke="black" stroke-linecap="round" font-family="sans-serif" stroke-linejoin="round" font-size="12px" text-anchor="middle" dominant-baseline="hanging"><rect x="64" y="64" width="272" height="272" vector-effect="non-scaling-stroke"/><g fill="black" dominant-baseline="middle" font-size="18px"><text stroke="none" vector-effect="non-scaling-stroke" x="200" y="32" dominant-baseline="middle">raw</text></g></g></svg>