<svg viewbox="0 0 400 400" preserveAspectRatio="xMidYMid meet" xmlns="http://www.w3.org/2000/svg" width="400" height="400"><defs><marker markerUnits="userSpaceOnUse" markerWidth="2%" markerHeight="2%" id="circle" viewBox="0 0 10 10 " refX="5" refY="5"><circle cx="5" cy="5" r="3" fill="none" stroke="black"/></marker><marker refY="5" markerUnits="userSpaceOnUse" markerWidth="2%" markerHeight="2%" id="filled-circle" viewBox="0 0 10 10 " refX="5"><circle cx="5" cy="5" r="3" fill="black" stroke="none"/></marker><marker id="square" viewBox="0 0 10 10 " refX="5" refY="5" markerUnits="userSpaceOnUse" markerWidth="2%" markerHeight="2%"><rect height="6" fill="none" stroke="black" x="2" y="2" width="6"/></marker><marker refX="5" refY="5" markerUnits="userSpaceOnUse" markerWidth="2%" markerHeight="2%" id="filled-square" viewBox="0 0 10 10 "><rect x="2" y="2" width="6" height="6" fill="black" stroke="none"/></marker></defs><g stroke-linecap="round" stroke-linejoin="round" marker-mid="url(#square)" stroke-width="3px" marker-start="url(#square)" transform="translate(64 336 )scale(1 -1 )" stroke="hsl(90, 47%, 65%)" marker-end="url(#square)" fill="none"><path vector-effect="non-scaling-stroke" d="M5.440000e+00,5.440000e+00 L1.414400e+01,6.231505e+00 L2.284800e+01,7.195448e+00 L3.155200e+01,8.362413e+00 L4.025600e+01,9.764157e+00 L4.896000e+01,1.143350e+01 L5.766400e+01,1.340421e+01 L6.636800e+01,1.571095e+01 L7.507200e+01,1.838914e+01 L8.377600e+01,2.147493e+01 L9.248000e+01,2.500511e+01 L1.011840e+02,2.901705e+01 L1.098880e+02,3.354865e+01 L1.185920e+02,3.863828e+01 L1.272960e+02,4.432475e+01 L1.360000e+02,5.064726e+01 L1.447040e+02,5.764535e+01 L1.534080e+02,6.535891e+01 L1.621120e+02,7.382808e+01 L1.708160e+02,8.309328e+01 L1.795200e+02,9.319519e+01 L1.882240e+02,1.041747e+02 L1.969280e+02,1.160728e+02 L2.056320e+02,1.289307e+02 L2.143360e+02,1.427900e+02 L2.230400e+02,1.576921e+02 L2.317440e+02,1.736787e+02 L2.404480e+02,1.907915e+02 L2.491520e+02,2.090725e+02 L2.578560e+02,2.285638e+02 L2.665600e+02,2.493072e+02 "/></g><g fill="none" stroke="black" stroke-linecap="round" stroke-linejoin="round" stroke-width="2px" transform="translate(64 336 )scale(1 -1 )"><path d="M5.440000e+00,0 L5.440000e+00,-6 M9.248000e+01,0 L9.248000e+01,-6 M1.795200e+02,0 L1.795200e+02,-6 M2.665600e+02,0 L2.665600e+02,-6 " vector-effect="non-scaling-stroke"/></g><g transform="translate(64 336 )scale(1 1 )" stroke-linecap="round" font-size="12px" dominant-baseline="hanging" fill="black" stroke="black" stroke-linejoin="round" stroke-width="2px" font-family="sans-serif" font-style="normal" font-weight="normal" text-anchor="middle"><text y="10" dominant-baseline="hanging" stroke="none" vector-effect="non-scaling-stroke" x="5.440000e+00">0.0</text><text x="9.248000e+01" y="10" dominant-baseline="hanging" stroke="none" vector-effect="non-scaling-stroke">1.0</text><text stroke="none" vector-effect="non-scaling-stroke" x="1.795200e+02" y="10" dominant-baseline="hanging">2.0</text><text dominant-baseline="hanging" stroke="none" vector-effect="non-scaling-stroke" x="2.665600e+02" y="10">3.0</text></g><g font-style="normal" stroke-width="2px" font-family="sans-serif" text-anchor="middle" fill="black" stroke="black" stroke-linecap="round" font-size="12px" stroke-linejoin="round" font-weight="bold" dominant-baseline="baseline" transform="translate(64 336 )scale(1 1 )rotate(0 0 0 )"><text stroke="none" vector-effect="non-scaling-stroke" x="136" y="-6" dominant-baseline="baseline">X</text></g><g stroke="black" font-style="normal" dominant-baseline="baseline" text-anchor="middle" fill="black" stroke-linecap="round" stroke-linejoin="round" font-size="12px" stroke-width="2px" transform="translate(64 336 )scale(1 -1 )" font-family="sans-serif" font-weight="bold"><path vector-effect="non-scaling-stroke" d="M0,5.440000e+00 L-6,5.440000e+00 M0,7.695621e+01 L-6,7.695621e+01 M0,1.484724e+02 L-6,1.484724e+02 M0,2.199886e+02 L-6,2.199886e+02 "/></g><g text-anchor="end" fill="black" stroke="black" stroke-linecap="round" dominant-baseline="middle" font-family="sans-serif" transform="translate(64 336 )scale(1 1 )" font-style="normal" font-weight="normal" stroke-linejoin="round" font-size="12px" stroke-width="2px"><text dominant-baseline="middle" stroke="none" vector-effect="non-scaling-stroke" x="-10" y="-5.440000e+00">0.0</text><text dominant-baseline="middle" stroke="none" vector-effect="non-scaling-stroke" x="-10" y="-7.695621e+01">10.0</text><text stroke="none" vector-effect="non-scaling-stroke" x="-10" y="-1.484724e+02" dominant-baseline="middle">20.0</text><text stroke="none" vector-effect="non-scaling-stroke" x="-10" y="-2.199886e+02" dominant-baseline="middle">30.0</text></g><g font-size="12px" font-style="normal" font-weight="bold" text-anchor="middle" fill="black" dominant-baseline="hanging" stroke-width="2px" transform="translate(64 336 )scale(1 1 )rotate(-90 0 0 )" font-family="sans-serif" stroke="black" stroke-linecap="round" stroke-linejoin="round"><text stroke="none" vector-effect="non-scaling-stroke" x="136" y="6" dominant-baseline="hanging">Y</text></g><g stroke-linejoin="round" font-size="12px" dominant-baseline="hanging" transform="translate(64 336 )scale(1 -1 )" font-family="sans-serif" font-weight="bold" stroke="gray" fill="black" stroke-linecap="round" stroke-width="0.5px" font-style="normal" text-anchor="middle"><path d="M0,5.440000e+00 L272,5.440000e+00 M0,7.695621e+01 L272,7.695621e+01 M0,1.484724e+02 L272,1.484724e+02 M0,2.199886e+02 L272,2.199886e+02 " vector-effect="non-scaling-stroke"/></g><g stroke-linejoin="round" stroke-width="3px" transform="translate(64 336 )scale(1 -1 )" marker-mid="url(#filled-circle)" fill="none" stroke-linecap="round" font-style="normal" marker-end="url(#filled-circle)" font-size="12px" dominant-baseline="hanging" marker-start="url(#filled-circle)" text-anchor="middle" font-family="sans-serif" stroke="hsl(301, 88%, 65%)" font-weight="bold"><path vector-effect="non-scaling-stroke" d="M5.440000e+00,5.440000e+00 L1.414400e+01,6.391881e+00 L2.284800e+01,7.532493e+00 L3.155200e+01,8.894455e+00 L4.025600e+01,1.051141e+01 L4.896000e+01,1.241794e+01 L5.766400e+01,1.464945e+01 L6.636800e+01,1.724210e+01 L7.507200e+01,2.023272e+01 L8.377600e+01,2.365874e+01 L9.248000e+01,2.755816e+01 L1.011840e+02,3.196946e+01 L1.098880e+02,3.693156e+01 L1.185920e+02,4.248379e+01 L1.272960e+02,4.866581e+01 L1.360000e+02,5.551764e+01 L1.447040e+02,6.307956e+01 L1.534080e+02,7.139214e+01 L1.621120e+02,8.049617e+01 L1.708160e+02,9.043264e+01 L1.795200e+02,1.012428e+02 L1.882240e+02,1.129679e+02 L1.969280e+02,1.256495e+02 L2.056320e+02,1.393293e+02 L2.143360e+02,1.540491e+02 L2.230400e+02,1.698508e+02 L2.317440e+02,1.867763e+02 L2.404480e+02,2.048678e+02 L2.491520e+02,2.241674e+02 L2.578560e+02,2.447174e+02 L2.665600e+02,2.665600e+02 "/></g><g font-family="sans-serif" stroke="black" font-weight="bold" dominant-baseline="hanging" fill="none" font-style="normal" text-anchor="middle" font-size="12px" stroke-width="2px" stroke-linecap="round" stroke-linejoin="round"><rect y="64" width="272" height="272" vector-effect="non-scaling-stroke" x="64"/><g fill="black" font-size="18px" dominant-baseline="middle"><text vector-effect="non-scaling-stroke" x="200" y="32" dominant-baseline="middle" stroke="none">euler</text></g></g></svg>