<svg width="400" height="400" viewbox="0 0 400 400" preserveAspectRatio="xMidYMid meet" xmlns="http://www.w3.org/2000/svg"><defs><marker viewBox="0 0 10 10 " refX="5" refY="5" markerUnits="userSpaceOnUse" markerWidth="2%" markerHeight="2%" id="circle"><circle cx="5" cy="5" r="3" fill="none" stroke="black"/></marker><marker id="filled-circle" viewBox="0 0 10 10 " refX="5" refY="5" markerUnits="userSpaceOnUse" markerWidth="2%" markerHeight="2%"><circle cy="5" r="3" fill="black" stroke="none" cx="5"/></marker><marker refX="5" refY="5" markerUnits="userSpaceOnUse" markerWidth="2%" markerHeight="2%" id="square" viewBox="0 0 10 10 "><rect x="2" y="2" width="6" height="6" fill="none" stroke="black"/></marker><marker refX="5" refY="5" markerUnits="userSpaceOnUse" markerWidth="2%" markerHeight="2%" id="filled-square" viewBox="0 0 10 10 "><rect fill="black" stroke="none" x="2" y="2" width="6" height="6"/></marker></defs><g marker-mid="url(#square)" marker-end="url(#square)" stroke-linejoin="round" transform="translate(64 336 )scale(1 -1 )" stroke-width="3px" stroke="hsl(90, 47%, 65%)" stroke-linecap="round" fill="none" marker-start="url(#square)"><path vector-effect="non-scaling-stroke" d="M5.440000e+00,5.440000e+00 L2.284800e+01,7.081712e+00 L4.025600e+01,9.483995e+00 L5.766400e+01,1.288821e+01 L7.507200e+01,1.755017e+01 L9.248000e+01,2.373749e+01 L1.098880e+02,3.172749e+01 L1.272960e+02,4.180541e+01 L1.447040e+02,5.426297e+01 L1.621120e+02,6.939722e+01 L1.795200e+02,8.750954e+01 L1.969280e+02,1.089049e+02 L2.143360e+02,1.338911e+02 L2.317440e+02,1.627785e+02 L2.491520e+02,1.958792e+02 L2.665600e+02,2.335071e+02 "/></g><g stroke="black" stroke-linecap="round" stroke-width="2px" stroke-linejoin="round" transform="translate(64 336 )scale(1 -1 )" fill="none"><path d="M5.440000e+00,0 L5.440000e+00,-6 M9.248000e+01,0 L9.248000e+01,-6 M1.795200e+02,0 L1.795200e+02,-6 M2.665600e+02,0 L2.665600e+02,-6 " vector-effect="non-scaling-stroke"/></g><g font-weight="normal" stroke-width="2px" font-family="sans-serif" dominant-baseline="hanging" fill="black" stroke-linecap="round" font-style="normal" stroke-linejoin="round" transform="translate(64 336 )scale(1 1 )" text-anchor="middle" stroke="black" font-size="12px"><text x="5.440000e+00" y="10" dominant-baseline="hanging" stroke="none" vector-effect="non-scaling-stroke">0.0</text><text vector-effect="non-scaling-stroke" x="9.248000e+01" y="10" dominant-baseline="hanging" stroke="none">1.0</text><text vector-effect="non-scaling-stroke" x="1.795200e+02" y="10" dominant-baseline="hanging" stroke="none">2.0</text><text stroke="none" vector-effect="non-scaling-stroke" x="2.665600e+02" y="10" dominant-baseline="hanging">3.0</text></g><g transform="translate(64 336 )scale(1 1 )rotate(0 0 0 )" font-family="sans-serif" font-weight="bold" fill="black" stroke-linecap="round" stroke-width="2px" stroke-linejoin="round" font-style="normal" dominant-baseline="baseline" stroke="black" font-size="12px" text-anchor="middle"><text vector-effect="non-scaling-stroke" x="136" y="-6" dominant-baseline="baseline" stroke="none">X</text></g><g stroke-width="2px" font-style="normal" fill="black" stroke="black" font-family="sans-serif" text-anchor="middle" stroke-linejoin="round" transform="translate(64 336 )scale(1 -1 )" font-size="12px" font-weight="bold" dominant-baseline="baseline" stroke-linecap="round"><path vector-effect="non-scaling-stroke" d="M0,5.440000e+00 L-6,5.440000e+00 M0,7.232268e+01 L-6,7.232268e+01 M0,1.392054e+02 L-6,1.392054e+02 M0,2.060881e+02 L-6,2.060881e+02 "/></g><g fill="black" stroke="black" transform="translate(64 336 )scale(1 1 )" font-family="sans-serif" text-anchor="end" font-size="12px" font-style="normal" font-weight="normal" dominant-baseline="middle" stroke-width="2px" stroke-linejoin="round" stroke-linecap="round"><text y="-5.440000e+00" dominant-baseline="middle" stroke="none" vector-effect="non-scaling-stroke" x="-10">0.0</text><text stroke="none" vector-effect="non-scaling-stroke" x="-10" y="-7.232268e+01" dominant-baseline="middle">10.0</text><text stroke="none" vector-effect="non-scaling-stroke" x="-10" y="-1.392054e+02" dominant-baseline="middle">20.0</text><text x="-10" y="-2.060881e+02" dominant-baseline="middle" stroke="none" vector-effect="non-scaling-stroke">30.0</text></g><g stroke-width="2px" transform="translate(64 336 )scale(1 1 )rotate(-90 0 0 )" fill="black" stroke-linecap="round" font-size="12px" font-style="normal" font-family="sans-serif" text-anchor="middle" font-weight="bold" dominant-baseline="hanging" stroke="black" stroke-linejoin="round"><text y="6" dominant-baseline="hanging" stroke="none" vector-effect="non-scaling-stroke" x="136">Y</text></g><g text-anchor="middle" stroke-width="0.5px" dominant-baseline="hanging" fill="black" font-family="sans-serif" font-weight="bold" stroke="gray" transform="translate(64 336 )scale(1 -1 )" stroke-linejoin="round" stroke-linecap="round" font-size="12px" font-style="normal"><path vector-effect="non-scaling-stroke" d="M0,5.440000e+00 L272,5.440000e+00 M0,7.232268e+01 L272,7.232268e+01 M0,1.392054e+02 L272,1.392054e+02 M0,2.060881e+02 L272,2.060881e+02 "/></g><g marker-start="url(#filled-circle)" fill="none" stroke-linecap="round" font-style="normal" stroke-width="3px" stroke="hsl(301, 88%, 65%)" font-family="sans-serif" marker-mid="url(#filled-circle)" font-weight="bold" transform="translate(64 336 )scale(1 -1 )" marker-end="url(#filled-circle)" dominant-baseline="hanging" stroke-linejoin="round" font-size="12px" text-anchor="middle"><path vector-effect="non-scaling-stroke" d="M5.440000e+00,5.440000e+00 L2.284800e+01,7.751466e+00 L4.025600e+01,1.095969e+01 L5.766400e+01,1.533478e+01 L7.507200e+01,2.115702e+01 L9.248000e+01,2.871485e+01 L1.098880e+02,3.830322e+01 L1.272960e+02,5.022230e+01 L1.447040e+02,6.477644e+01 L1.621120e+02,8.227332e+01 L1.795200e+02,1.030233e+02 L1.969280e+02,1.273389e+02 L2.143360e+02,1.555342e+02 L2.317440e+02,1.879250e+02 L2.491520e+02,2.248277e+02 L2.665600e+02,2.665600e+02 "/></g><g text-anchor="middle" stroke-width="2px" dominant-baseline="hanging" stroke-linejoin="round" font-size="12px" font-style="normal" font-weight="bold" fill="none" stroke="black" font-family="sans-serif" stroke-linecap="round"><rect vector-effect="non-scaling-stroke" x="64" y="64" width="272" height="272"/><g fill="black" font-size="18px" dominant-baseline="middle"><text stroke="none" vector-effect="non-scaling-stroke" x="200" y="32" dominant-baseline="middle">euler</text></g></g></svg>