<svg xmlns="http://www.w3.org/2000/svg" width="400" height="400" viewbox="0 0 400 400" preserveAspectRatio="xMidYMid meet"><defs><marker viewBox="0 0 10 10 " refX="5" refY="5" markerUnits="userSpaceOnUse" markerWidth="2%" markerHeight="2%" id="circle"><circle r="3" fill="none" stroke="black" cx="5" cy="5"/></marker><marker refX="5" refY="5" markerUnits="userSpaceOnUse" markerWidth="2%" markerHeight="2%" id="filled-circle" viewBox="0 0 10 10 "><circle cx="5" cy="5" r="3" fill="black" stroke="none"/></marker><marker markerUnits="userSpaceOnUse" markerWidth="2%" markerHeight="2%" id="square" viewBox="0 0 10 10 " refX="5" refY="5"><rect height="6" fill="none" stroke="black" x="2" y="2" width="6"/></marker><marker viewBox="0 0 10 10 " refX="5" refY="5" markerUnits="userSpaceOnUse" markerWidth="2%" markerHeight="2%" id="filled-square"><rect width="6" height="6" fill="black" stroke="none" x="2" y="2"/></marker></defs><g stroke="hsl(90, 47%, 65%)" stroke-width="3px" fill="none" marker-mid="url(#square)" transform="translate(64 336 )scale(1 -1 )" stroke-linecap="round" marker-start="url(#square)" stroke-linejoin="round" marker-end="url(#square)"><path vector-effect="non-scaling-stroke" d="M5.440000e+00,8.940642e+00 L1.018764e+01,7.726138e+00 L1.493527e+01,6.893101e+00 L1.968291e+01,6.338538e+00 L2.443055e+01,5.982113e+00 L2.917818e+01,5.762044e+00 L3.392582e+01,5.631737e+00 L3.867345e+01,5.557036e+00 L4.342109e+01,5.513962e+00 L4.816873e+01,5.486875e+00 L5.291636e+01,5.466959e+00 L5.766400e+01,5.450986e+00 L6.241164e+01,5.440302e+00 L6.715927e+01,5.440000e+00 L7.190691e+01,5.458238e+00 L7.665455e+01,5.505685e+00 L8.140218e+01,5.595068e+00 L8.614982e+01,5.740792e+00 L9.089745e+01,5.958645e+00 L9.564509e+01,6.265540e+00 L1.003927e+02,6.679316e+00 L1.051404e+02,7.218565e+00 L1.098880e+02,7.902501e+00 L1.146356e+02,8.750844e+00 L1.193833e+02,9.783729e+00 L1.241309e+02,1.102163e+01 L1.288785e+02,1.248530e+01 L1.336262e+02,1.419572e+01 L1.383738e+02,1.617406e+01 L1.431215e+02,1.844163e+01 L1.478691e+02,2.101989e+01 L1.526167e+02,2.393038e+01 L1.573644e+02,2.719472e+01 L1.621120e+02,3.083463e+01 L1.668596e+02,3.487185e+01 L1.716073e+02,3.932819e+01 L1.763549e+02,4.422548e+01 L1.811025e+02,4.958560e+01 L1.858502e+02,5.543044e+01 L1.905978e+02,6.178192e+01 L1.953455e+02,6.866197e+01 L2.000931e+02,7.609254e+01 L2.048407e+02,8.409559e+01 L2.095884e+02,9.269308e+01 L2.143360e+02,1.019070e+02 L2.190836e+02,1.117593e+02 L2.238313e+02,1.222720e+02 L2.285789e+02,1.334671e+02 L2.333265e+02,1.453665e+02 L2.380742e+02,1.579923e+02 L2.428218e+02,1.713665e+02 L2.475695e+02,1.855110e+02 L2.523171e+02,2.004479e+02 L2.570647e+02,2.161992e+02 L2.618124e+02,2.327869e+02 L2.665600e+02,2.502330e+02 "/></g><g stroke="black" stroke-width="2px" stroke-linecap="round" transform="translate(64 336 )scale(1 -1 )" fill="none" stroke-linejoin="round"><path vector-effect="non-scaling-stroke" d="M5.440000e+00,0 L5.440000e+00,-6 M7.665455e+01,0 L7.665455e+01,-6 M1.478691e+02,0 L1.478691e+02,-6 M2.190836e+02,0 L2.190836e+02,-6 "/></g><g fill="black" font-family="sans-serif" font-weight="normal" font-size="12px" dominant-baseline="hanging" stroke="black" stroke-width="2px" stroke-linecap="round" transform="translate(64 336 )scale(1 1 )" stroke-linejoin="round" font-style="normal" text-anchor="middle"><text y="10" dominant-baseline="hanging" stroke="none" vector-effect="non-scaling-stroke" x="5.440000e+00">-3.0</text><text stroke="none" vector-effect="non-scaling-stroke" x="7.665455e+01" y="10" dominant-baseline="hanging">0.0</text><text stroke="none" vector-effect="non-scaling-stroke" x="1.478691e+02" y="10" dominant-baseline="hanging">3.0</text><text stroke="none" vector-effect="non-scaling-stroke" x="2.190836e+02" y="10" dominant-baseline="hanging">6.0</text></g><g stroke-linejoin="round" font-style="normal" font-weight="bold" stroke-width="2px" transform="translate(64 336 )scale(1 1 )rotate(0 0 0 )" font-size="12px" font-family="sans-serif" fill="black" stroke-linecap="round" text-anchor="middle" dominant-baseline="baseline" stroke="black"><text dominant-baseline="baseline" stroke="none" vector-effect="non-scaling-stroke" x="136" y="-6">X</text></g><g text-anchor="middle" stroke-linejoin="round" font-family="sans-serif" font-style="normal" font-weight="bold" stroke="black" stroke-linecap="round" transform="translate(64 336 )scale(1 -1 )" fill="black" stroke-width="2px" font-size="12px" dominant-baseline="baseline"><path d="M0,9.708376e+01 L-6,9.708376e+01 M0,1.887897e+02 L-6,1.887897e+02 " vector-effect="non-scaling-stroke"/></g><g font-size="12px" text-anchor="end" dominant-baseline="middle" stroke="black" stroke-linecap="round" font-weight="normal" stroke-linejoin="round" font-family="sans-serif" font-style="normal" stroke-width="2px" transform="translate(64 336 )scale(1 1 )" fill="black"><text stroke="none" vector-effect="non-scaling-stroke" x="-10" y="-9.708376e+01" dominant-baseline="middle">200.0</text><text x="-10" y="-1.887897e+02" dominant-baseline="middle" stroke="none" vector-effect="non-scaling-stroke">400.0</text></g><g font-family="sans-serif" dominant-baseline="hanging" stroke="black" stroke-width="2px" transform="translate(64 336 )scale(1 1 )rotate(-90 0 0 )" font-size="12px" stroke-linejoin="round" font-style="normal" font-weight="bold" text-anchor="middle" stroke-linecap="round" fill="black"><text stroke="none" vector-effect="non-scaling-stroke" x="136" y="6" dominant-baseline="hanging">Y</text></g><g stroke-linecap="round" transform="translate(64 336 )scale(1 -1 )" font-size="12px" text-anchor="middle" font-family="sans-serif" font-weight="bold" fill="black" stroke-width="0.5px" dominant-baseline="hanging" stroke="gray" stroke-linejoin="round" font-style="normal"><path vector-effect="non-scaling-stroke" d="M0,9.708376e+01 L272,9.708376e+01 M0,1.887897e+02 L272,1.887897e+02 "/></g><g marker-start="url(#filled-circle)" stroke-width="3px" stroke-linejoin="round" stroke-linecap="round" transform="translate(64 336 )scale(1 -1 )" font-size="12px" text-anchor="middle" fill="none" font-family="sans-serif" font-style="normal" font-weight="bold" marker-mid="url(#filled-circle)" marker-end="url(#filled-circle)" stroke="hsl(301, 88%, 65%)" dominant-baseline="hanging"><path d="M5.440000e+00,8.940642e+00 L1.018764e+01,7.693259e+00 L1.493527e+01,6.854553e+00 L1.968291e+01,6.307575e+00 L2.443055e+01,5.963166e+00 L2.917818e+01,5.754401e+00 L3.392582e+01,5.632141e+00 L3.867345e+01,5.561478e+00 L4.342109e+01,5.518887e+00 L4.816873e+01,5.489950e+00 L5.291636e+01,5.467533e+00 L5.766400e+01,5.450334e+00 L6.241164e+01,5.441710e+00 L6.715927e+01,5.448750e+00 L7.190691e+01,5.481527e+00 L7.665455e+01,5.552501e+00 L8.140218e+01,5.676043e+00 L8.614982e+01,5.868049e+00 L9.089745e+01,6.145640e+00 L9.564509e+01,6.526915e+00 L1.003927e+02,7.030752e+00 L1.051404e+02,7.676660e+00 L1.098880e+02,8.484644e+00 L1.146356e+02,9.475112e+00 L1.193833e+02,1.066879e+01 L1.241309e+02,1.208667e+01 L1.288785e+02,1.374992e+01 L1.336262e+02,1.567992e+01 L1.383738e+02,1.789814e+01 L1.431215e+02,2.042617e+01 L1.478691e+02,2.328569e+01 L1.526167e+02,2.649843e+01 L1.573644e+02,3.008619e+01 L1.621120e+02,3.407081e+01 L1.668596e+02,3.847416e+01 L1.716073e+02,4.331814e+01 L1.763549e+02,4.862467e+01 L1.811025e+02,5.441568e+01 L1.858502e+02,6.071314e+01 L1.905978e+02,6.753901e+01 L1.953455e+02,7.491525e+01 L2.000931e+02,8.286386e+01 L2.048407e+02,9.140681e+01 L2.095884e+02,1.005661e+02 L2.143360e+02,1.103637e+02 L2.190836e+02,1.208217e+02 L2.238313e+02,1.319620e+02 L2.285789e+02,1.438066e+02 L2.333265e+02,1.563775e+02 L2.380742e+02,1.696968e+02 L2.428218e+02,1.837864e+02 L2.475695e+02,1.986684e+02 L2.523171e+02,2.143648e+02 L2.570647e+02,2.308975e+02 L2.618124e+02,2.482885e+02 L2.665600e+02,2.665600e+02 " vector-effect="non-scaling-stroke"/></g><g text-anchor="middle" stroke="black" stroke-linecap="round" font-family="sans-serif" stroke-width="2px" stroke-linejoin="round" font-size="12px" fill="none" font-style="normal" dominant-baseline="hanging" font-weight="bold"><rect height="272" vector-effect="non-scaling-stroke" x="64" y="64" width="272"/><g font-size="18px" fill="black" dominant-baseline="middle"><text y="32" dominant-baseline="middle" stroke="none" vector-effect="non-scaling-stroke" x="200">euler</text></g></g></svg>