<svg preserveAspectRatio="xMidYMid meet" xmlns="http://www.w3.org/2000/svg" width="400" height="400" viewbox="0 0 400 400"><defs><marker refY="5" markerUnits="userSpaceOnUse" markerWidth="2%" markerHeight="2%" id="circle" viewBox="0 0 10 10 " refX="5"><circle cy="5" r="3" fill="none" stroke="black" cx="5"/></marker><marker refY="5" markerUnits="userSpaceOnUse" markerWidth="2%" markerHeight="2%" id="filled-circle" viewBox="0 0 10 10 " refX="5"><circle r="3" fill="black" stroke="none" cx="5" cy="5"/></marker><marker refX="5" refY="5" markerUnits="userSpaceOnUse" markerWidth="2%" markerHeight="2%" id="square" viewBox="0 0 10 10 "><rect height="6" fill="none" stroke="black" x="2" y="2" width="6"/></marker><marker markerUnits="userSpaceOnUse" markerWidth="2%" markerHeight="2%" id="filled-square" viewBox="0 0 10 10 " refX="5" refY="5"><rect height="6" fill="black" stroke="none" x="2" y="2" width="6"/></marker></defs><g marker-end="url(#square)" transform="translate(64 336 )scale(1 -1 )" stroke-width="3px" stroke-linejoin="round" stroke="hsl(90, 47%, 65%)" stroke-linecap="round" fill="none" marker-start="url(#square)" marker-mid="url(#square)"><path d="M5.440000e+00,5.440000e+00 L2.284800e+01,7.320205e+00 L4.025600e+01,1.007147e+01 L5.766400e+01,1.397022e+01 L7.507200e+01,1.930942e+01 L9.248000e+01,2.639558e+01 L1.098880e+02,3.554630e+01 L1.272960e+02,4.708824e+01 L1.447040e+02,6.135553e+01 L1.621120e+02,7.868834e+01 L1.795200e+02,9.943185e+01 L1.969280e+02,1.239353e+02 L2.143360e+02,1.525513e+02 L2.317440e+02,1.856352e+02 L2.491520e+02,2.235445e+02 L2.665600e+02,2.666386e+02 " vector-effect="non-scaling-stroke"/></g><g stroke-width="2px" transform="translate(64 336 )scale(1 -1 )" fill="none" stroke="black" stroke-linecap="round" stroke-linejoin="round"><path vector-effect="non-scaling-stroke" d="M5.440000e+00,0 L5.440000e+00,-6 M9.248000e+01,0 L9.248000e+01,-6 M1.795200e+02,0 L1.795200e+02,-6 M2.665600e+02,0 L2.665600e+02,-6 "/></g><g font-family="sans-serif" font-style="normal" dominant-baseline="hanging" transform="translate(64 336 )scale(1 1 )" text-anchor="middle" fill="black" stroke="black" stroke-linecap="round" stroke-linejoin="round" font-weight="normal" stroke-width="2px" font-size="12px"><text vector-effect="non-scaling-stroke" x="5.440000e+00" y="10" dominant-baseline="hanging" stroke="none">0.0</text><text stroke="none" vector-effect="non-scaling-stroke" x="9.248000e+01" y="10" dominant-baseline="hanging">1.0</text><text x="1.795200e+02" y="10" dominant-baseline="hanging" stroke="none" vector-effect="non-scaling-stroke">2.0</text><text dominant-baseline="hanging" stroke="none" vector-effect="non-scaling-stroke" x="2.665600e+02" y="10">3.0</text></g><g font-weight="bold" fill="black" stroke-linejoin="round" transform="translate(64 336 )scale(1 1 )rotate(0 0 0 )" font-size="12px" font-family="sans-serif" font-style="normal" dominant-baseline="baseline" stroke="black" stroke-linecap="round" stroke-width="2px" text-anchor="middle"><text y="-6" dominant-baseline="baseline" stroke="none" vector-effect="non-scaling-stroke" x="136">X</text></g><g stroke-linecap="round" font-weight="bold" dominant-baseline="baseline" font-size="12px" transform="translate(64 336 )scale(1 -1 )" text-anchor="middle" stroke-width="2px" stroke-linejoin="round" font-family="sans-serif" font-style="normal" fill="black" stroke="black"><path d="M0,5.440000e+00 L-6,5.440000e+00 M0,8.203878e+01 L-6,8.203878e+01 M0,1.586376e+02 L-6,1.586376e+02 M0,2.352364e+02 L-6,2.352364e+02 " vector-effect="non-scaling-stroke"/></g><g stroke-linecap="round" font-style="normal" font-size="12px" text-anchor="end" font-weight="normal" fill="black" stroke="black" stroke-width="2px" transform="translate(64 336 )scale(1 1 )" dominant-baseline="middle" stroke-linejoin="round" font-family="sans-serif"><text stroke="none" vector-effect="non-scaling-stroke" x="-10" y="-5.440000e+00" dominant-baseline="middle">0.0</text><text stroke="none" vector-effect="non-scaling-stroke" x="-10" y="-8.203878e+01" dominant-baseline="middle">10.0</text><text y="-1.586376e+02" dominant-baseline="middle" stroke="none" vector-effect="non-scaling-stroke" x="-10">20.0</text><text x="-10" y="-2.352364e+02" dominant-baseline="middle" stroke="none" vector-effect="non-scaling-stroke">30.0</text></g><g stroke-width="2px" font-size="12px" font-weight="bold" stroke="black" stroke-linejoin="round" fill="black" stroke-linecap="round" transform="translate(64 336 )scale(1 1 )rotate(-90 0 0 )" text-anchor="middle" font-family="sans-serif" font-style="normal" dominant-baseline="hanging"><text vector-effect="non-scaling-stroke" x="136" y="6" dominant-baseline="hanging" stroke="none">Y</text></g><g stroke-width="0.5px" font-size="12px" text-anchor="middle" font-style="normal" stroke-linecap="round" stroke-linejoin="round" font-family="sans-serif" transform="translate(64 336 )scale(1 -1 )" font-weight="bold" dominant-baseline="hanging" fill="black" stroke="gray"><path d="M0,5.440000e+00 L272,5.440000e+00 M0,8.203878e+01 L272,8.203878e+01 M0,1.586376e+02 L272,1.586376e+02 M0,2.352364e+02 L272,2.352364e+02 " vector-effect="non-scaling-stroke"/></g><g text-anchor="middle" font-weight="bold" stroke="hsl(301, 88%, 65%)" marker-start="url(#filled-circle)" dominant-baseline="hanging" fill="none" font-size="12px" marker-mid="url(#filled-circle)" stroke-linejoin="round" font-style="normal" font-family="sans-serif" stroke-width="3px" stroke-linecap="round" marker-end="url(#filled-circle)" transform="translate(64 336 )scale(1 -1 )"><path vector-effect="non-scaling-stroke" d="M5.440000e+00,5.440000e+00 L2.284800e+01,7.320301e+00 L4.025600e+01,1.007167e+01 L5.766400e+01,1.397052e+01 L7.507200e+01,1.926642e+01 L9.248000e+01,2.628429e+01 L1.098880e+02,3.548392e+01 L1.272960e+02,4.699874e+01 L1.447040e+02,6.133247e+01 L1.621120e+02,7.861538e+01 L1.795200e+02,9.943227e+01 L1.969280e+02,1.238663e+02 L2.143360e+02,1.525727e+02 L2.317440e+02,1.855645e+02 L2.491520e+02,2.235864e+02 L2.665600e+02,2.665600e+02 "/></g><g font-family="sans-serif" stroke-linejoin="round" text-anchor="middle" font-size="12px" stroke="black" stroke-linecap="round" font-style="normal" dominant-baseline="hanging" fill="none" stroke-width="2px" font-weight="bold"><rect y="64" width="272" height="272" vector-effect="non-scaling-stroke" x="64"/><g dominant-baseline="middle" font-size="18px" fill="black"><text stroke="none" vector-effect="non-scaling-stroke" x="200" y="32" dominant-baseline="middle">adams</text></g></g></svg>