<svg viewbox="0 0 400 400" preserveAspectRatio="xMidYMid meet" xmlns="http://www.w3.org/2000/svg" width="400" height="400"><defs><marker markerUnits="userSpaceOnUse" markerWidth="2%" markerHeight="2%" id="circle" viewBox="0 0 10 10 " refX="5" refY="5"><circle cx="5" cy="5" r="3" fill="none" stroke="black"/></marker><marker refX="5" refY="5" markerUnits="userSpaceOnUse" markerWidth="2%" markerHeight="2%" id="filled-circle" viewBox="0 0 10 10 "><circle cx="5" cy="5" r="3" fill="black" stroke="none"/></marker><marker refY="5" markerUnits="userSpaceOnUse" markerWidth="2%" markerHeight="2%" id="square" viewBox="0 0 10 10 " refX="5"><rect x="2" y="2" width="6" height="6" fill="none" stroke="black"/></marker><marker markerUnits="userSpaceOnUse" markerWidth="2%" markerHeight="2%" id="filled-square" viewBox="0 0 10 10 " refX="5" refY="5"><rect y="2" width="6" height="6" fill="black" stroke="none" x="2"/></marker></defs><g stroke-linejoin="round" stroke-width="3px" marker-start="url(#square)" marker-mid="url(#square)" marker-end="url(#square)" stroke-linecap="round" fill="none" stroke="hsl(90, 47%, 65%)" transform="translate(64 336 )scale(1 -1 )"><path vector-effect="non-scaling-stroke" d="M5.440000e+00,9.198052e+00 L1.018764e+01,7.894243e+00 L1.493527e+01,6.999951e+00 L1.968291e+01,6.404609e+00 L2.443055e+01,6.021975e+00 L2.917818e+01,5.785724e+00 L3.392582e+01,5.645836e+00 L3.867345e+01,5.565642e+00 L4.342109e+01,5.519400e+00 L4.816873e+01,5.490322e+00 L5.291636e+01,5.468941e+00 L5.766400e+01,5.451794e+00 L6.241164e+01,5.440324e+00 L6.715927e+01,5.440000e+00 L7.190691e+01,5.459579e+00 L7.665455e+01,5.510515e+00 L8.140218e+01,5.606470e+00 L8.614982e+01,5.762910e+00 L9.089745e+01,5.996782e+00 L9.564509e+01,6.326244e+00 L1.003927e+02,6.770445e+00 L1.051404e+02,7.349347e+00 L1.098880e+02,8.083574e+00 L1.146356e+02,8.994298e+00 L1.193833e+02,1.010313e+01 L1.241309e+02,1.143206e+01 L1.288785e+02,1.300336e+01 L1.336262e+02,1.483955e+01 L1.383738e+02,1.696336e+01 L1.431215e+02,1.939767e+01 L1.478691e+02,2.216551e+01 L1.526167e+02,2.529001e+01 L1.573644e+02,2.879439e+01 L1.621120e+02,3.270195e+01 L1.668596e+02,3.703603e+01 L1.716073e+02,4.182005e+01 L1.763549e+02,4.707746e+01 L1.811025e+02,5.283172e+01 L1.858502e+02,5.910634e+01 L1.905978e+02,6.592486e+01 L1.953455e+02,7.331082e+01 L2.000931e+02,8.128777e+01 L2.048407e+02,8.987930e+01 L2.095884e+02,9.910898e+01 L2.143360e+02,1.090004e+02 L2.190836e+02,1.195772e+02 L2.238313e+02,1.308629e+02 L2.285789e+02,1.428812e+02 L2.333265e+02,1.556556e+02 L2.380742e+02,1.692098e+02 L2.428218e+02,1.835674e+02 L2.475695e+02,1.987520e+02 L2.523171e+02,2.147873e+02 L2.570647e+02,2.316968e+02 L2.618124e+02,2.495042e+02 L2.665600e+02,2.682331e+02 "/></g><g fill="none" stroke="black" stroke-width="2px" stroke-linecap="round" stroke-linejoin="round" transform="translate(64 336 )scale(1 -1 )"><path vector-effect="non-scaling-stroke" d="M5.440000e+00,0 L5.440000e+00,-6 M7.665455e+01,0 L7.665455e+01,-6 M1.478691e+02,0 L1.478691e+02,-6 M2.190836e+02,0 L2.190836e+02,-6 "/></g><g stroke-width="2px" transform="translate(64 336 )scale(1 1 )" font-style="normal" text-anchor="middle" font-family="sans-serif" font-size="12px" fill="black" stroke="black" dominant-baseline="hanging" stroke-linejoin="round" font-weight="normal" stroke-linecap="round"><text dominant-baseline="hanging" stroke="none" vector-effect="non-scaling-stroke" x="5.440000e+00" y="10">-3.0</text><text stroke="none" vector-effect="non-scaling-stroke" x="7.665455e+01" y="10" dominant-baseline="hanging">0.0</text><text vector-effect="non-scaling-stroke" x="1.478691e+02" y="10" dominant-baseline="hanging" stroke="none">3.0</text><text x="2.190836e+02" y="10" dominant-baseline="hanging" stroke="none" vector-effect="non-scaling-stroke">6.0</text></g><g font-style="normal" fill="black" stroke-linejoin="round" font-size="12px" dominant-baseline="baseline" stroke="black" transform="translate(64 336 )scale(1 1 )rotate(0 0 0 )" text-anchor="middle" font-family="sans-serif" stroke-linecap="round" stroke-width="2px" font-weight="bold"><text stroke="none" vector-effect="non-scaling-stroke" x="136" y="-6" dominant-baseline="baseline">X</text></g><g font-weight="bold" text-anchor="middle" stroke-linejoin="round" transform="translate(64 336 )scale(1 -1 )" font-style="normal" dominant-baseline="baseline" fill="black" stroke="black" stroke-width="2px" stroke-linecap="round" font-family="sans-serif" font-size="12px"><path d="M0,1.038225e+02 L-6,1.038225e+02 M0,2.022717e+02 L-6,2.022717e+02 " vector-effect="non-scaling-stroke"/></g><g transform="translate(64 336 )scale(1 1 )" font-style="normal" text-anchor="end" font-family="sans-serif" font-size="12px" dominant-baseline="middle" stroke-linecap="round" stroke="black" stroke-linejoin="round" stroke-width="2px" font-weight="normal" fill="black"><text vector-effect="non-scaling-stroke" x="-10" y="-1.038225e+02" dominant-baseline="middle" stroke="none">200.0</text><text vector-effect="non-scaling-stroke" x="-10" y="-2.022717e+02" dominant-baseline="middle" stroke="none">400.0</text></g><g font-style="normal" text-anchor="middle" stroke-linecap="round" dominant-baseline="hanging" stroke-linejoin="round" font-family="sans-serif" font-weight="bold" fill="black" stroke="black" stroke-width="2px" transform="translate(64 336 )scale(1 1 )rotate(-90 0 0 )" font-size="12px"><text vector-effect="non-scaling-stroke" x="136" y="6" dominant-baseline="hanging" stroke="none">Y</text></g><g stroke-linejoin="round" font-family="sans-serif" dominant-baseline="hanging" fill="black" stroke="gray" transform="translate(64 336 )scale(1 -1 )" stroke-linecap="round" font-size="12px" stroke-width="0.5px" font-style="normal" font-weight="bold" text-anchor="middle"><path d="M0,1.038225e+02 L272,1.038225e+02 M0,2.022717e+02 L272,2.022717e+02 " vector-effect="non-scaling-stroke"/></g><g stroke-width="3px" font-weight="bold" stroke-linejoin="round" stroke="hsl(301, 88%, 65%)" stroke-linecap="round" font-family="sans-serif" marker-mid="url(#filled-circle)" font-size="12px" font-style="normal" text-anchor="middle" marker-start="url(#filled-circle)" marker-end="url(#filled-circle)" fill="none" transform="translate(64 336 )scale(1 -1 )" dominant-baseline="hanging"><path vector-effect="non-scaling-stroke" d="M5.440000e+00,9.198052e+00 L1.018764e+01,7.894275e+00 L1.493527e+01,7.000001e+00 L1.968291e+01,6.404667e+00 L2.443055e+01,5.951920e+00 L2.917818e+01,5.684214e+00 L3.392582e+01,5.535003e+00 L3.867345e+01,5.459310e+00 L4.342109e+01,5.424752e+00 L4.816873e+01,5.410009e+00 L5.291636e+01,5.402529e+00 L5.766400e+01,5.396830e+00 L6.241164e+01,5.393116e+00 L6.715927e+01,5.396165e+00 L7.190691e+01,5.414439e+00 L7.665455e+01,5.459360e+00 L8.140218e+01,5.544737e+00 L8.614982e+01,5.686294e+00 L9.089745e+01,5.901301e+00 L9.564509e+01,6.208269e+00 L1.003927e+02,6.626709e+00 L1.051404e+02,7.176936e+00 L1.098880e+02,7.879911e+00 L1.146356e+02,8.757118e+00 L1.193833e+02,9.830457e+00 L1.241309e+02,1.112217e+01 L1.288785e+02,1.265476e+01 L1.336262e+02,1.445097e+01 L1.383738e+02,1.653369e+01 L1.431215e+02,1.892596e+01 L1.478691e+02,2.165096e+01 L1.526167e+02,2.473193e+01 L1.573644e+02,2.819220e+01 L1.621120e+02,3.205514e+01 L1.668596e+02,3.634419e+01 L1.716073e+02,4.108282e+01 L1.763549e+02,4.629454e+01 L1.811025e+02,5.200285e+01 L1.858502e+02,5.823132e+01 L1.905978e+02,6.500350e+01 L1.953455e+02,7.234297e+01 L2.000931e+02,8.027331e+01 L2.048407e+02,8.881812e+01 L2.095884e+02,9.800099e+01 L2.143360e+02,1.078455e+02 L2.190836e+02,1.183754e+02 L2.238313e+02,1.296141e+02 L2.285789e+02,1.415853e+02 L2.333265e+02,1.543127e+02 L2.380742e+02,1.678198e+02 L2.428218e+02,1.821302e+02 L2.475695e+02,1.972677e+02 L2.523171e+02,2.132558e+02 L2.570647e+02,2.301181e+02 L2.618124e+02,2.478783e+02 L2.665600e+02,2.665600e+02 "/></g><g font-size="12px" dominant-baseline="hanging" stroke="black" font-weight="bold" font-family="sans-serif" fill="none" font-style="normal" stroke-linejoin="round" stroke-width="2px" text-anchor="middle" stroke-linecap="round"><rect vector-effect="non-scaling-stroke" x="64" y="64" width="272" height="272"/><g fill="black" dominant-baseline="middle" font-size="18px"><text dominant-baseline="middle" stroke="none" vector-effect="non-scaling-stroke" x="200" y="32">adams</text></g></g></svg>