<svg viewbox="0 0 400 400" preserveAspectRatio="xMidYMid meet" xmlns="http://www.w3.org/2000/svg" width="400" height="400"><defs><marker id="circle" viewBox="0 0 10 10 " refX="5" refY="5" markerUnits="userSpaceOnUse" markerWidth="2%" markerHeight="2%"><circle stroke="black" cx="5" cy="5" r="3" fill="none"/></marker><marker id="filled-circle" viewBox="0 0 10 10 " refX="5" refY="5" markerUnits="userSpaceOnUse" markerWidth="2%" markerHeight="2%"><circle cy="5" r="3" fill="black" stroke="none" cx="5"/></marker><marker markerHeight="2%" id="square" viewBox="0 0 10 10 " refX="5" refY="5" markerUnits="userSpaceOnUse" markerWidth="2%"><rect height="6" fill="none" stroke="black" x="2" y="2" width="6"/></marker><marker id="filled-square" viewBox="0 0 10 10 " refX="5" refY="5" markerUnits="userSpaceOnUse" markerWidth="2%" markerHeight="2%"><rect x="2" y="2" width="6" height="6" fill="black" stroke="none"/></marker></defs><g stroke-linejoin="round" marker-mid="url(#square)" stroke-width="3px" marker-start="url(#square)" fill="none" stroke="hsl(90, 47%, 65%)" stroke-linecap="round" marker-end="url(#square)" transform="translate(64 336 )scale(1 -1 )"><path d="M5.440000e+00,5.440000e+00 L1.414400e+01,6.287501e+00 L2.284800e+01,7.319640e+00 L3.155200e+01,8.569164e+00 L4.025600e+01,1.007008e+01 L4.896000e+01,1.185752e+01 L5.766400e+01,1.396765e+01 L6.636800e+01,1.643758e+01 L7.507200e+01,1.930525e+01 L8.377600e+01,2.260935e+01 L9.248000e+01,2.638928e+01 L1.011840e+02,3.068505e+01 L1.098880e+02,3.553724e+01 L1.185920e+02,4.098694e+01 L1.272960e+02,4.707571e+01 L1.360000e+02,5.384552e+01 L1.447040e+02,6.133870e+01 L1.534080e+02,6.959796e+01 L1.621120e+02,7.866630e+01 L1.708160e+02,8.858699e+01 L1.795200e+02,9.940356e+01 L1.882240e+02,1.111598e+02 L1.969280e+02,1.238996e+02 L2.056320e+02,1.376673e+02 L2.143360e+02,1.525070e+02 L2.230400e+02,1.684634e+02 L2.317440e+02,1.855810e+02 L2.404480e+02,2.039045e+02 L2.491520e+02,2.234788e+02 L2.578560e+02,2.443490e+02 L2.665600e+02,2.665600e+02 " vector-effect="non-scaling-stroke"/></g><g stroke-width="2px" stroke-linejoin="round" stroke-linecap="round" transform="translate(64 336 )scale(1 -1 )" fill="none" stroke="black"><path vector-effect="non-scaling-stroke" d="M5.440000e+00,0 L5.440000e+00,-6 M9.248000e+01,0 L9.248000e+01,-6 M1.795200e+02,0 L1.795200e+02,-6 M2.665600e+02,0 L2.665600e+02,-6 "/></g><g font-style="normal" font-weight="normal" stroke-linecap="round" transform="translate(64 336 )scale(1 1 )" font-family="sans-serif" text-anchor="middle" stroke-linejoin="round" font-size="12px" dominant-baseline="hanging" stroke-width="2px" stroke="black" fill="black"><text stroke="none" vector-effect="non-scaling-stroke" x="5.440000e+00" y="10" dominant-baseline="hanging">0.0</text><text y="10" dominant-baseline="hanging" stroke="none" vector-effect="non-scaling-stroke" x="9.248000e+01">1.0</text><text y="10" dominant-baseline="hanging" stroke="none" vector-effect="non-scaling-stroke" x="1.795200e+02">2.0</text><text stroke="none" vector-effect="non-scaling-stroke" x="2.665600e+02" y="10" dominant-baseline="hanging">3.0</text></g><g font-weight="bold" dominant-baseline="baseline" stroke="black" transform="translate(64 336 )scale(1 1 )rotate(0 0 0 )" stroke-width="2px" stroke-linejoin="round" font-style="normal" font-family="sans-serif" text-anchor="middle" font-size="12px" fill="black" stroke-linecap="round"><text stroke="none" vector-effect="non-scaling-stroke" x="136" y="-6" dominant-baseline="baseline">X</text></g><g transform="translate(64 336 )scale(1 -1 )" stroke-width="2px" font-style="normal" fill="black" stroke="black" stroke-linecap="round" font-family="sans-serif" text-anchor="middle" stroke-linejoin="round" font-size="12px" font-weight="bold" dominant-baseline="baseline"><path vector-effect="non-scaling-stroke" d="M0,5.440000e+00 L-6,5.440000e+00 M0,8.201574e+01 L-6,8.201574e+01 M0,1.585915e+02 L-6,1.585915e+02 M0,2.351672e+02 L-6,2.351672e+02 "/></g><g font-style="normal" font-weight="normal" text-anchor="end" fill="black" stroke="black" stroke-linejoin="round" stroke-width="2px" font-size="12px" stroke-linecap="round" transform="translate(64 336 )scale(1 1 )" font-family="sans-serif" dominant-baseline="middle"><text dominant-baseline="middle" stroke="none" vector-effect="non-scaling-stroke" x="-10" y="-5.440000e+00">0.0</text><text dominant-baseline="middle" stroke="none" vector-effect="non-scaling-stroke" x="-10" y="-8.201574e+01">10.0</text><text y="-1.585915e+02" dominant-baseline="middle" stroke="none" vector-effect="non-scaling-stroke" x="-10">20.0</text><text vector-effect="non-scaling-stroke" x="-10" y="-2.351672e+02" dominant-baseline="middle" stroke="none">30.0</text></g><g stroke-width="2px" stroke-linejoin="round" font-size="12px" fill="black" stroke-linecap="round" dominant-baseline="hanging" font-weight="bold" text-anchor="middle" stroke="black" transform="translate(64 336 )scale(1 1 )rotate(-90 0 0 )" font-family="sans-serif" font-style="normal"><text stroke="none" vector-effect="non-scaling-stroke" x="136" y="6" dominant-baseline="hanging">Y</text></g><g stroke-width="0.5px" font-size="12px" font-style="normal" dominant-baseline="hanging" fill="black" stroke-linecap="round" stroke-linejoin="round" font-weight="bold" stroke="gray" transform="translate(64 336 )scale(1 -1 )" font-family="sans-serif" text-anchor="middle"><path vector-effect="non-scaling-stroke" d="M0,5.440000e+00 L272,5.440000e+00 M0,8.201574e+01 L272,8.201574e+01 M0,1.585915e+02 L272,1.585915e+02 M0,2.351672e+02 L272,2.351672e+02 "/></g><g dominant-baseline="hanging" stroke-width="2px" stroke-linejoin="round" font-style="normal" stroke="black" font-size="12px" font-weight="bold" text-anchor="middle" fill="none" stroke-linecap="round" font-family="sans-serif"><rect width="272" height="272" vector-effect="non-scaling-stroke" x="64" y="64"/><g font-size="18px" dominant-baseline="middle" fill="black"><text vector-effect="non-scaling-stroke" x="200" y="32" dominant-baseline="middle" stroke="none">raw</text></g></g></svg>