<svg width="400" height="400" viewbox="0 0 400 400" preserveAspectRatio="xMidYMid meet" xmlns="http://www.w3.org/2000/svg"><defs><marker refY="5" markerUnits="userSpaceOnUse" markerWidth="2%" markerHeight="2%" id="circle" viewBox="0 0 10 10 " refX="5"><circle cx="5" cy="5" r="3" fill="none" stroke="black"/></marker><marker markerUnits="userSpaceOnUse" markerWidth="2%" markerHeight="2%" id="filled-circle" viewBox="0 0 10 10 " refX="5" refY="5"><circle cy="5" r="3" fill="black" stroke="none" cx="5"/></marker><marker markerWidth="2%" markerHeight="2%" id="square" viewBox="0 0 10 10 " refX="5" refY="5" markerUnits="userSpaceOnUse"><rect height="6" fill="none" stroke="black" x="2" y="2" width="6"/></marker><marker markerUnits="userSpaceOnUse" markerWidth="2%" markerHeight="2%" id="filled-square" viewBox="0 0 10 10 " refX="5" refY="5"><rect fill="black" stroke="none" x="2" y="2" width="6" height="6"/></marker></defs><g marker-start="url(#square)" stroke-linecap="round" transform="translate(64 336 )scale(1 -1 )" stroke-width="3px" marker-mid="url(#square)" fill="none" stroke="hsl(90, 47%, 65%)" stroke-linejoin="round" marker-end="url(#square)"><path vector-effect="non-scaling-stroke" d="M5.440000e+00,5.440000e+00 L3.155200e+01,6.236316e+01 L5.766400e+01,1.158592e+02 L8.377600e+01,1.637955e+02 L1.098880e+02,2.042608e+02 L136,2.356421e+02 L1.621120e+02,2.566882e+02 L1.882240e+02,2.665600e+02 L2.143360e+02,2.648641e+02 L2.404480e+02,2.516680e+02 L2.665600e+02,2.274978e+02 "/></g><g stroke-width="2px" stroke-linecap="round" transform="translate(64 336 )scale(1 -1 )" fill="none" stroke="black" stroke-linejoin="round"><path vector-effect="non-scaling-stroke" d="M1.229440e+02,0 L1.229440e+02,-6 M2.535040e+02,0 L2.535040e+02,-6 "/></g><g fill="black" stroke-linejoin="round" text-anchor="middle" stroke-width="2px" stroke-linecap="round" font-family="sans-serif" font-size="12px" dominant-baseline="hanging" stroke="black" transform="translate(64 336 )scale(1 1 )" font-style="normal" font-weight="normal"><text x="1.229440e+02" y="10" dominant-baseline="hanging" stroke="none" vector-effect="non-scaling-stroke">1.0</text><text y="10" dominant-baseline="hanging" stroke="none" vector-effect="non-scaling-stroke" x="2.535040e+02">2.0</text></g><g stroke-linecap="round" font-style="normal" font-weight="bold" text-anchor="middle" fill="black" stroke="black" stroke-linejoin="round" stroke-width="2px" transform="translate(64 336 )scale(1 1 )rotate(0 0 0 )" font-family="sans-serif" font-size="12px" dominant-baseline="baseline"><text y="-6" dominant-baseline="baseline" stroke="none" vector-effect="non-scaling-stroke" x="136">X</text></g><g font-family="sans-serif" font-size="12px" stroke-linecap="round" transform="translate(64 336 )scale(1 -1 )" text-anchor="middle" stroke-width="2px" dominant-baseline="baseline" stroke="black" stroke-linejoin="round" fill="black" font-style="normal" font-weight="bold"><path vector-effect="non-scaling-stroke" d="M0,1.218441e+02 L-6,1.218441e+02 "/></g><g dominant-baseline="middle" stroke-linejoin="round" stroke="black" font-family="sans-serif" font-size="12px" stroke-linecap="round" stroke-width="2px" fill="black" transform="translate(64 336 )scale(1 1 )" font-style="normal" font-weight="normal" text-anchor="end"><text dominant-baseline="middle" stroke="none" vector-effect="non-scaling-stroke" x="-10" y="-1.218441e+02">1.0</text></g><g stroke-linecap="round" font-size="12px" stroke="black" stroke-linejoin="round" fill="black" font-style="normal" font-weight="bold" text-anchor="middle" stroke-width="2px" transform="translate(64 336 )scale(1 1 )rotate(-90 0 0 )" font-family="sans-serif" dominant-baseline="hanging"><text stroke="none" vector-effect="non-scaling-stroke" x="136" y="6" dominant-baseline="hanging">Y</text></g><g stroke="gray" font-family="sans-serif" font-size="12px" font-style="normal" font-weight="bold" text-anchor="middle" stroke-linecap="round" fill="black" transform="translate(64 336 )scale(1 -1 )" stroke-width="0.5px" dominant-baseline="hanging" stroke-linejoin="round"><path vector-effect="non-scaling-stroke" d="M0,1.218441e+02 L272,1.218441e+02 "/></g><g stroke-linejoin="round" font-family="sans-serif" font-style="normal" font-weight="bold" stroke="black" font-size="12px" text-anchor="middle" stroke-width="2px" stroke-linecap="round" dominant-baseline="hanging" fill="none"><rect y="64" width="272" height="272" vector-effect="non-scaling-stroke" x="64"/><g font-size="18px" dominant-baseline="middle" fill="black"><text x="200" y="32" dominant-baseline="middle" stroke="none" vector-effect="non-scaling-stroke">raw</text></g></g></svg>