<svg preserveAspectRatio="xMidYMid meet" xmlns="http://www.w3.org/2000/svg" width="400" height="400" viewbox="0 0 400 400"><defs><marker markerUnits="userSpaceOnUse" markerWidth="2%" markerHeight="2%" id="circle" viewBox="0 0 10 10 " refX="5" refY="5"><circle r="3" fill="none" stroke="black" cx="5" cy="5"/></marker><marker markerWidth="2%" markerHeight="2%" id="filled-circle" viewBox="0 0 10 10 " refX="5" refY="5" markerUnits="userSpaceOnUse"><circle stroke="none" cx="5" cy="5" r="3" fill="black"/></marker><marker viewBox="0 0 10 10 " refX="5" refY="5" markerUnits="userSpaceOnUse" markerWidth="2%" markerHeight="2%" id="square"><rect stroke="black" x="2" y="2" width="6" height="6" fill="none"/></marker><marker markerUnits="userSpaceOnUse" markerWidth="2%" markerHeight="2%" id="filled-square" viewBox="0 0 10 10 " refX="5" refY="5"><rect height="6" fill="black" stroke="none" x="2" y="2" width="6"/></marker></defs><g stroke-width="3px" stroke-linejoin="round" marker-start="url(#square)" marker-mid="url(#square)" marker-end="url(#square)" fill="none" stroke-linecap="round" transform="translate(64 336 )scale(1 -1 )" stroke="hsl(90, 47%, 65%)"><path vector-effect="non-scaling-stroke" d="M5.440000e+00,5.440000e+00 L3.155200e+01,6.236316e+01 L5.766400e+01,1.158592e+02 L8.377600e+01,1.637955e+02 L1.098880e+02,2.042608e+02 L136,2.356421e+02 L1.621120e+02,2.566882e+02 L1.882240e+02,2.665600e+02 L2.143360e+02,2.648641e+02 L2.404480e+02,2.516680e+02 L2.665600e+02,2.274978e+02 "/></g><g stroke-width="2px" stroke-linecap="round" transform="translate(64 336 )scale(1 -1 )" stroke="black" stroke-linejoin="round" fill="none"><path vector-effect="non-scaling-stroke" d="M1.229440e+02,0 L1.229440e+02,-6 M2.535040e+02,0 L2.535040e+02,-6 "/></g><g stroke-linejoin="round" stroke-width="2px" stroke-linecap="round" transform="translate(64 336 )scale(1 1 )" font-family="sans-serif" fill="black" font-size="12px" font-style="normal" font-weight="normal" stroke="black" text-anchor="middle" dominant-baseline="hanging"><text vector-effect="non-scaling-stroke" x="1.229440e+02" y="10" dominant-baseline="hanging" stroke="none">1.0</text><text y="10" dominant-baseline="hanging" stroke="none" vector-effect="non-scaling-stroke" x="2.535040e+02">2.0</text></g><g transform="translate(64 336 )scale(1 1 )rotate(0 0 0 )" stroke="black" font-size="12px" font-style="normal" font-weight="bold" stroke-width="2px" stroke-linecap="round" font-family="sans-serif" stroke-linejoin="round" text-anchor="middle" dominant-baseline="baseline" fill="black"><text y="-6" dominant-baseline="baseline" stroke="none" vector-effect="non-scaling-stroke" x="136">X</text></g><g font-style="normal" fill="black" stroke-width="2px" transform="translate(64 336 )scale(1 -1 )" font-family="sans-serif" stroke="black" stroke-linejoin="round" font-size="12px" dominant-baseline="baseline" stroke-linecap="round" text-anchor="middle" font-weight="bold"><path d="M0,1.218441e+02 L-6,1.218441e+02 " vector-effect="non-scaling-stroke"/></g><g stroke-linecap="round" text-anchor="end" font-size="12px" font-style="normal" dominant-baseline="middle" fill="black" transform="translate(64 336 )scale(1 1 )" font-family="sans-serif" stroke="black" stroke-linejoin="round" font-weight="normal" stroke-width="2px"><text y="-1.218441e+02" dominant-baseline="middle" stroke="none" vector-effect="non-scaling-stroke" x="-10">1.0</text></g><g transform="translate(64 336 )scale(1 1 )rotate(-90 0 0 )" text-anchor="middle" stroke-width="2px" font-style="normal" stroke="black" font-size="12px" font-family="sans-serif" dominant-baseline="hanging" fill="black" stroke-linecap="round" font-weight="bold" stroke-linejoin="round"><text x="136" y="6" dominant-baseline="hanging" stroke="none" vector-effect="non-scaling-stroke">Y</text></g><g font-size="12px" stroke-linecap="round" transform="translate(64 336 )scale(1 -1 )" text-anchor="middle" stroke="gray" stroke-linejoin="round" font-style="normal" font-weight="bold" dominant-baseline="hanging" fill="black" stroke-width="0.5px" font-family="sans-serif"><path d="M0,1.218441e+02 L272,1.218441e+02 " vector-effect="non-scaling-stroke"/></g><g marker-mid="url(#filled-square)" marker-end="url(#filled-square)" transform="translate(64 336 )scale(1 -1 )" font-size="12px" stroke-linejoin="round" font-weight="bold" font-style="normal" fill="none" dominant-baseline="hanging" stroke-width="3px" font-family="sans-serif" text-anchor="middle" marker-start="url(#filled-square)" stroke="hsl(301, 88%, 65%)" stroke-linecap="round"><path vector-effect="non-scaling-stroke" d="M5.440000e+00,5.440000e+00 C9.792000e+00,1.492719e+01 2.284800e+01,4.395996e+01 3.155200e+01,6.236316e+01 C4.025600e+01,8.076637e+01 4.896000e+01,9.895384e+01 5.766400e+01,1.158592e+02 C6.636800e+01,1.327646e+02 7.507200e+01,1.490619e+02 8.377600e+01,1.637955e+02 C9.248000e+01,1.785291e+02 1.011840e+02,1.922864e+02 1.098880e+02,2.042608e+02 C1.185920e+02,2.162353e+02 1.272960e+02,2.269042e+02 1.360000e+02,2.356421e+02 C1.447040e+02,2.443800e+02 1.534080e+02,2.515352e+02 1.621120e+02,2.566882e+02 C1.708160e+02,2.618411e+02 1.795200e+02,2.651973e+02 1.882240e+02,2.665600e+02 C1.969280e+02,2.679227e+02 2.056320e+02,2.673461e+02 2.143360e+02,2.648641e+02 C2.230400e+02,2.623821e+02 2.317440e+02,2.578957e+02 2.404480e+02,2.516680e+02 C2.491520e+02,2.454402e+02 2.622080e+02,2.315261e+02 2.665600e+02,2.274978e+02 "/></g><g fill="none" stroke="hsl(152, 76%, 65%)" text-anchor="middle" dominant-baseline="hanging" stroke-width="3px" font-family="sans-serif" transform="translate(64 336 )scale(1 -1 )" marker-end="url(#filled-circle)" stroke-linejoin="round" font-style="normal" font-size="12px" font-weight="bold" marker-mid="url(#filled-circle)" marker-start="url(#filled-circle)" stroke-linecap="round"><path d="M3.808000e+01,7.614479e+01 L3.808000e+01,7.614479e+01 " vector-effect="non-scaling-stroke"/></g><g stroke="hsl(3, 64%, 65%)" marker-end="url(#filled-circle)" text-anchor="middle" font-size="12px" marker-start="url(#filled-circle)" stroke-linecap="round" stroke-linejoin="round" font-style="normal" font-weight="bold" marker-mid="url(#filled-circle)" fill="none" transform="translate(64 336 )scale(1 -1 )" dominant-baseline="hanging" stroke-width="3px" font-family="sans-serif"><path vector-effect="non-scaling-stroke" d="M9.030400e+01,1.746809e+02 L9.030400e+01,1.746809e+02 "/></g><g stroke-width="2px" font-family="sans-serif" font-style="normal" font-size="12px" stroke="black" stroke-linejoin="round" font-weight="bold" fill="none" stroke-linecap="round" text-anchor="middle" dominant-baseline="hanging"><rect x="64" y="64" width="272" height="272" vector-effect="non-scaling-stroke"/><g fill="black" dominant-baseline="middle" font-size="18px"><text x="200" y="32" dominant-baseline="middle" stroke="none" vector-effect="non-scaling-stroke">newton</text></g></g></svg>