<svg preserveAspectRatio="xMidYMid meet" xmlns="http://www.w3.org/2000/svg" width="400" height="400" viewbox="0 0 400 400"><defs><marker id="circle" viewBox="0 0 10 10 " refX="5" refY="5" markerUnits="userSpaceOnUse" markerWidth="2%" markerHeight="2%"><circle fill="none" stroke="black" cx="5" cy="5" r="3"/></marker><marker markerWidth="2%" markerHeight="2%" id="filled-circle" viewBox="0 0 10 10 " refX="5" refY="5" markerUnits="userSpaceOnUse"><circle cy="5" r="3" fill="black" stroke="none" cx="5"/></marker><marker markerUnits="userSpaceOnUse" markerWidth="2%" markerHeight="2%" id="square" viewBox="0 0 10 10 " refX="5" refY="5"><rect fill="none" stroke="black" x="2" y="2" width="6" height="6"/></marker><marker markerWidth="2%" markerHeight="2%" id="filled-square" viewBox="0 0 10 10 " refX="5" refY="5" markerUnits="userSpaceOnUse"><rect x="2" y="2" width="6" height="6" fill="black" stroke="none"/></marker></defs><g fill="none" marker-start="url(#square)" marker-end="url(#square)" stroke-linecap="round" stroke-width="3px" transform="translate(64 336 )scale(1 -1 )" stroke-linejoin="round" stroke="hsl(90, 47%, 65%)" marker-mid="url(#square)"><path vector-effect="non-scaling-stroke" d="M5.440000e+00,5.440000e+00 L4.896000e+01,4.867120e+01 L9.248000e+01,9.191087e+01 L136,1.357183e+02 L1.795200e+02,1.790935e+02 L2.230400e+02,2.227060e+02 L2.665600e+02,2.665600e+02 "/></g><g transform="translate(64 336 )scale(1 -1 )" fill="none" stroke="black" stroke-width="2px" stroke-linecap="round" stroke-linejoin="round"><path d="M3.445333e+01,0 L3.445333e+01,-6 M9.248000e+01,0 L9.248000e+01,-6 M1.505067e+02,0 L1.505067e+02,-6 M2.085333e+02,0 L2.085333e+02,-6 M2.665600e+02,0 L2.665600e+02,-6 " vector-effect="non-scaling-stroke"/></g><g transform="translate(64 336 )scale(1 1 )" font-weight="normal" font-style="normal" font-family="sans-serif" text-anchor="middle" fill="black" stroke="black" stroke-width="2px" dominant-baseline="hanging" stroke-linecap="round" stroke-linejoin="round" font-size="12px"><text stroke="none" vector-effect="non-scaling-stroke" x="3.445333e+01" y="10" dominant-baseline="hanging">1.2</text><text stroke="none" vector-effect="non-scaling-stroke" x="9.248000e+01" y="10" dominant-baseline="hanging">1.4</text><text y="10" dominant-baseline="hanging" stroke="none" vector-effect="non-scaling-stroke" x="1.505067e+02">1.6</text><text stroke="none" vector-effect="non-scaling-stroke" x="2.085333e+02" y="10" dominant-baseline="hanging">1.8</text><text stroke="none" vector-effect="non-scaling-stroke" x="2.665600e+02" y="10" dominant-baseline="hanging">2.0</text></g><g stroke-linecap="round" stroke="black" stroke-width="2px" font-size="12px" font-style="normal" font-weight="bold" font-family="sans-serif" text-anchor="middle" fill="black" stroke-linejoin="round" dominant-baseline="baseline" transform="translate(64 336 )scale(1 1 )rotate(0 0 0 )"><text x="136" y="-6" dominant-baseline="baseline" stroke="none" vector-effect="non-scaling-stroke">X</text></g><g stroke-linecap="round" stroke-linejoin="round" font-weight="bold" dominant-baseline="baseline" fill="black" font-family="sans-serif" text-anchor="middle" font-size="12px" font-style="normal" stroke="black" stroke-width="2px" transform="translate(64 336 )scale(1 -1 )"><path vector-effect="non-scaling-stroke" d="M0,8.070906e+01 L-6,8.070906e+01 M0,1.654429e+02 L-6,1.654429e+02 M0,2.501767e+02 L-6,2.501767e+02 "/></g><g stroke="black" font-family="sans-serif" font-size="12px" font-style="normal" dominant-baseline="middle" fill="black" stroke-width="2px" transform="translate(64 336 )scale(1 1 )" text-anchor="end" stroke-linecap="round" stroke-linejoin="round" font-weight="normal"><text stroke="none" vector-effect="non-scaling-stroke" x="-10" y="-8.070906e+01" dominant-baseline="middle">2.0</text><text x="-10" y="-1.654429e+02" dominant-baseline="middle" stroke="none" vector-effect="non-scaling-stroke">4.0</text><text stroke="none" vector-effect="non-scaling-stroke" x="-10" y="-2.501767e+02" dominant-baseline="middle">6.0</text></g><g stroke-width="2px" transform="translate(64 336 )scale(1 1 )rotate(-90 0 0 )" font-family="sans-serif" fill="black" dominant-baseline="hanging" stroke-linejoin="round" font-weight="bold" stroke-linecap="round" text-anchor="middle" stroke="black" font-size="12px" font-style="normal"><text stroke="none" vector-effect="non-scaling-stroke" x="136" y="6" dominant-baseline="hanging">Y</text></g><g stroke-linecap="round" stroke-linejoin="round" stroke-width="0.5px" transform="translate(64 336 )scale(1 -1 )" text-anchor="middle" font-size="12px" font-style="normal" font-family="sans-serif" fill="black" stroke="gray" font-weight="bold" dominant-baseline="hanging"><path vector-effect="non-scaling-stroke" d="M0,8.070906e+01 L272,8.070906e+01 M0,1.654429e+02 L272,1.654429e+02 M0,2.501767e+02 L272,2.501767e+02 "/></g><g font-family="sans-serif" font-size="12px" marker-end="url(#filled-circle)" font-style="normal" dominant-baseline="hanging" stroke="hsl(301, 88%, 65%)" stroke-linejoin="round" transform="translate(64 336 )scale(1 -1 )" marker-mid="url(#filled-circle)" font-weight="bold" marker-start="url(#filled-circle)" stroke-width="3px" stroke-linecap="round" fill="none" text-anchor="middle"><path vector-effect="non-scaling-stroke" d="M2.302933e+02,2.300653e+02 L2.302933e+02,2.300653e+02 "/></g><g stroke-linecap="round" stroke-linejoin="round" marker-end="url(#filled-circle)" marker-mid="url(#filled-circle)" transform="translate(64 336 )scale(1 -1 )" font-size="12px" text-anchor="middle" stroke="hsl(152, 76%, 65%)" marker-start="url(#filled-circle)" stroke-width="3px" font-weight="bold" dominant-baseline="hanging" font-style="normal" fill="none" font-family="sans-serif"><path d="M1.432533e+02,1.429816e+02 L1.432533e+02,1.429816e+02 " vector-effect="non-scaling-stroke"/></g><g stroke-linejoin="round" text-anchor="middle" font-weight="bold" dominant-baseline="hanging" font-style="normal" stroke-linecap="round" font-size="12px" fill="none" stroke="black" stroke-width="2px" font-family="sans-serif"><rect height="272" vector-effect="non-scaling-stroke" x="64" y="64" width="272"/><g fill="black" dominant-baseline="middle" font-size="18px"><text dominant-baseline="middle" stroke="none" vector-effect="non-scaling-stroke" x="200" y="32">lagrange</text></g></g></svg>