<svg preserveAspectRatio="xMidYMid meet" xmlns="http://www.w3.org/2000/svg" width="400" height="400" viewbox="0 0 400 400"><defs><marker markerWidth="2%" markerHeight="2%" id="circle" viewBox="0 0 10 10 " refX="5" refY="5" markerUnits="userSpaceOnUse"><circle cx="5" cy="5" r="3" fill="none" stroke="black"/></marker><marker markerHeight="2%" id="filled-circle" viewBox="0 0 10 10 " refX="5" refY="5" markerUnits="userSpaceOnUse" markerWidth="2%"><circle r="3" fill="black" stroke="none" cx="5" cy="5"/></marker><marker refY="5" markerUnits="userSpaceOnUse" markerWidth="2%" markerHeight="2%" id="square" viewBox="0 0 10 10 " refX="5"><rect fill="none" stroke="black" x="2" y="2" width="6" height="6"/></marker><marker viewBox="0 0 10 10 " refX="5" refY="5" markerUnits="userSpaceOnUse" markerWidth="2%" markerHeight="2%" id="filled-square"><rect width="6" height="6" fill="black" stroke="none" x="2" y="2"/></marker></defs><g stroke-linejoin="round" marker-end="url(#square)" transform="translate(64 336 )scale(1 -1 )" stroke="hsl(90, 47%, 65%)" stroke-linecap="round" marker-start="url(#square)" marker-mid="url(#square)" fill="none" stroke-width="3px"><path vector-effect="non-scaling-stroke" d="M5.440000e+00,5.440000e+00 L4.896000e+01,4.867120e+01 L9.248000e+01,9.191087e+01 L136,1.357183e+02 L1.795200e+02,1.790935e+02 L2.230400e+02,2.227060e+02 L2.665600e+02,2.665600e+02 "/></g><g stroke-linejoin="round" transform="translate(64 336 )scale(1 -1 )" fill="none" stroke="black" stroke-width="2px" stroke-linecap="round"><path vector-effect="non-scaling-stroke" d="M3.445333e+01,0 L3.445333e+01,-6 M9.248000e+01,0 L9.248000e+01,-6 M1.505067e+02,0 L1.505067e+02,-6 M2.085333e+02,0 L2.085333e+02,-6 M2.665600e+02,0 L2.665600e+02,-6 "/></g><g font-family="sans-serif" font-style="normal" transform="translate(64 336 )scale(1 1 )" fill="black" dominant-baseline="hanging" stroke="black" stroke-width="2px" stroke-linecap="round" text-anchor="middle" stroke-linejoin="round" font-size="12px" font-weight="normal"><text stroke="none" vector-effect="non-scaling-stroke" x="3.445333e+01" y="10" dominant-baseline="hanging">1.2</text><text x="9.248000e+01" y="10" dominant-baseline="hanging" stroke="none" vector-effect="non-scaling-stroke">1.4</text><text x="1.505067e+02" y="10" dominant-baseline="hanging" stroke="none" vector-effect="non-scaling-stroke">1.6</text><text y="10" dominant-baseline="hanging" stroke="none" vector-effect="non-scaling-stroke" x="2.085333e+02">1.8</text><text dominant-baseline="hanging" stroke="none" vector-effect="non-scaling-stroke" x="2.665600e+02" y="10">2.0</text></g><g stroke="black" stroke-width="2px" font-weight="bold" font-style="normal" text-anchor="middle" fill="black" stroke-linecap="round" transform="translate(64 336 )scale(1 1 )rotate(0 0 0 )" dominant-baseline="baseline" stroke-linejoin="round" font-family="sans-serif" font-size="12px"><text x="136" y="-6" dominant-baseline="baseline" stroke="none" vector-effect="non-scaling-stroke">X</text></g><g stroke-linejoin="round" font-size="12px" transform="translate(64 336 )scale(1 -1 )" font-weight="bold" dominant-baseline="baseline" fill="black" stroke="black" stroke-width="2px" font-family="sans-serif" font-style="normal" text-anchor="middle" stroke-linecap="round"><path d="M0,8.070906e+01 L-6,8.070906e+01 M0,1.654429e+02 L-6,1.654429e+02 M0,2.501767e+02 L-6,2.501767e+02 " vector-effect="non-scaling-stroke"/></g><g stroke-linejoin="round" font-family="sans-serif" font-style="normal" font-weight="normal" dominant-baseline="middle" fill="black" stroke-linecap="round" transform="translate(64 336 )scale(1 1 )" stroke="black" stroke-width="2px" font-size="12px" text-anchor="end"><text y="-8.070906e+01" dominant-baseline="middle" stroke="none" vector-effect="non-scaling-stroke" x="-10">2.0</text><text stroke="none" vector-effect="non-scaling-stroke" x="-10" y="-1.654429e+02" dominant-baseline="middle">4.0</text><text stroke="none" vector-effect="non-scaling-stroke" x="-10" y="-2.501767e+02" dominant-baseline="middle">6.0</text></g><g text-anchor="middle" dominant-baseline="hanging" fill="black" transform="translate(64 336 )scale(1 1 )rotate(-90 0 0 )" font-weight="bold" stroke-linejoin="round" font-family="sans-serif" font-size="12px" font-style="normal" stroke="black" stroke-width="2px" stroke-linecap="round"><text stroke="none" vector-effect="non-scaling-stroke" x="136" y="6" dominant-baseline="hanging">Y</text></g><g stroke-linecap="round" transform="translate(64 336 )scale(1 -1 )" stroke="gray" font-size="12px" font-style="normal" stroke-linejoin="round" stroke-width="0.5px" font-weight="bold" dominant-baseline="hanging" fill="black" text-anchor="middle" font-family="sans-serif"><path d="M0,8.070906e+01 L272,8.070906e+01 M0,1.654429e+02 L272,1.654429e+02 M0,2.501767e+02 L272,2.501767e+02 " vector-effect="non-scaling-stroke"/></g><g marker-mid="url(#filled-square)" font-style="normal" font-weight="bold" stroke-linejoin="round" transform="translate(64 336 )scale(1 -1 )" dominant-baseline="hanging" stroke="hsl(301, 88%, 65%)" stroke-linecap="round" text-anchor="middle" font-size="12px" marker-start="url(#filled-square)" stroke-width="3px" font-family="sans-serif" marker-end="url(#filled-square)" fill="none"><path d="M5.440000e+00,5.440000e+00 C1.269333e+01,1.264520e+01 3.445333e+01,3.425939e+01 4.896000e+01,4.867120e+01 C6.346667e+01,6.308301e+01 7.797333e+01,7.740303e+01 9.248000e+01,9.191087e+01 C1.069867e+02,1.064187e+02 1.214933e+02,1.211878e+02 1.360000e+02,1.357183e+02 C1.505067e+02,1.502487e+02 1.650133e+02,1.645955e+02 1.795200e+02,1.790935e+02 C1.940267e+02,1.935915e+02 2.085333e+02,2.081283e+02 2.230400e+02,2.227060e+02 C2.375467e+02,2.372838e+02 2.593067e+02,2.592510e+02 2.665600e+02,2.665600e+02 " vector-effect="non-scaling-stroke"/></g><g stroke-linecap="round" text-anchor="middle" stroke-linejoin="round" stroke-width="3px" marker-mid="url(#filled-circle)" stroke="hsl(152, 76%, 65%)" font-weight="bold" dominant-baseline="hanging" font-style="normal" transform="translate(64 336 )scale(1 -1 )" fill="none" font-family="sans-serif" font-size="12px" marker-start="url(#filled-circle)" marker-end="url(#filled-circle)"><path vector-effect="non-scaling-stroke" d="M2.302933e+02,2.300150e+02 L2.302933e+02,2.300150e+02 "/></g><g stroke-width="3px" stroke="hsl(3, 64%, 65%)" dominant-baseline="hanging" marker-mid="url(#filled-circle)" marker-end="url(#filled-circle)" stroke-linejoin="round" font-style="normal" stroke-linecap="round" text-anchor="middle" fill="none" marker-start="url(#filled-circle)" transform="translate(64 336 )scale(1 -1 )" font-family="sans-serif" font-weight="bold" font-size="12px"><path vector-effect="non-scaling-stroke" d="M1.432533e+02,1.429312e+02 L1.432533e+02,1.429312e+02 "/></g><g font-weight="bold" dominant-baseline="hanging" stroke-linejoin="round" font-size="12px" font-style="normal" font-family="sans-serif" stroke-linecap="round" fill="none" stroke-width="2px" stroke="black" text-anchor="middle"><rect y="64" width="272" height="272" vector-effect="non-scaling-stroke" x="64"/><g font-size="18px" fill="black" dominant-baseline="middle"><text stroke="none" vector-effect="non-scaling-stroke" x="200" y="32" dominant-baseline="middle">newton</text></g></g></svg>