<svg width="400" height="400" viewbox="0 0 400 400" preserveAspectRatio="xMidYMid meet" xmlns="http://www.w3.org/2000/svg"><defs><marker refY="5" markerUnits="userSpaceOnUse" markerWidth="2%" markerHeight="2%" id="circle" viewBox="0 0 10 10 " refX="5"><circle r="3" fill="none" stroke="black" cx="5" cy="5"/></marker><marker markerHeight="2%" id="filled-circle" viewBox="0 0 10 10 " refX="5" refY="5" markerUnits="userSpaceOnUse" markerWidth="2%"><circle r="3" fill="black" stroke="none" cx="5" cy="5"/></marker><marker id="square" viewBox="0 0 10 10 " refX="5" refY="5" markerUnits="userSpaceOnUse" markerWidth="2%" markerHeight="2%"><rect height="6" fill="none" stroke="black" x="2" y="2" width="6"/></marker><marker id="filled-square" viewBox="0 0 10 10 " refX="5" refY="5" markerUnits="userSpaceOnUse" markerWidth="2%" markerHeight="2%"><rect fill="black" stroke="none" x="2" y="2" width="6" height="6"/></marker></defs><g stroke="hsl(90, 47%, 65%)" stroke-width="3px" transform="translate(64 336 )scale(1 -1 )" marker-start="url(#square)" marker-end="url(#square)" fill="none" stroke-linejoin="round" marker-mid="url(#square)" stroke-linecap="round"><path vector-effect="non-scaling-stroke" d="M5.440000e+00,5.440000e+00 L4.896000e+01,4.867120e+01 L9.248000e+01,9.191087e+01 L136,1.357183e+02 L1.795200e+02,1.790935e+02 L2.230400e+02,2.227060e+02 L2.665600e+02,2.665600e+02 "/></g><g stroke="black" stroke-width="2px" transform="translate(64 336 )scale(1 -1 )" stroke-linecap="round" stroke-linejoin="round" fill="none"><path vector-effect="non-scaling-stroke" d="M3.445333e+01,0 L3.445333e+01,-6 M9.248000e+01,0 L9.248000e+01,-6 M1.505067e+02,0 L1.505067e+02,-6 M2.085333e+02,0 L2.085333e+02,-6 M2.665600e+02,0 L2.665600e+02,-6 "/></g><g fill="black" stroke="black" font-family="sans-serif" stroke-linecap="round" font-weight="normal" text-anchor="middle" dominant-baseline="hanging" stroke-width="2px" transform="translate(64 336 )scale(1 1 )" font-size="12px" stroke-linejoin="round" font-style="normal"><text y="10" dominant-baseline="hanging" stroke="none" vector-effect="non-scaling-stroke" x="3.445333e+01">1.2</text><text vector-effect="non-scaling-stroke" x="9.248000e+01" y="10" dominant-baseline="hanging" stroke="none">1.4</text><text y="10" dominant-baseline="hanging" stroke="none" vector-effect="non-scaling-stroke" x="1.505067e+02">1.6</text><text dominant-baseline="hanging" stroke="none" vector-effect="non-scaling-stroke" x="2.085333e+02" y="10">1.8</text><text vector-effect="non-scaling-stroke" x="2.665600e+02" y="10" dominant-baseline="hanging" stroke="none">2.0</text></g><g text-anchor="middle" dominant-baseline="baseline" stroke-width="2px" font-size="12px" font-style="normal" font-weight="bold" fill="black" stroke="black" transform="translate(64 336 )scale(1 1 )rotate(0 0 0 )" font-family="sans-serif" stroke-linecap="round" stroke-linejoin="round"><text dominant-baseline="baseline" stroke="none" vector-effect="non-scaling-stroke" x="136" y="-6">X</text></g><g font-size="12px" text-anchor="middle" stroke="black" stroke-width="2px" stroke-linecap="round" font-family="sans-serif" dominant-baseline="baseline" fill="black" transform="translate(64 336 )scale(1 -1 )" stroke-linejoin="round" font-style="normal" font-weight="bold"><path vector-effect="non-scaling-stroke" d="M0,8.070906e+01 L-6,8.070906e+01 M0,1.654429e+02 L-6,1.654429e+02 M0,2.501767e+02 L-6,2.501767e+02 "/></g><g stroke="black" stroke-width="2px" stroke-linecap="round" font-style="normal" transform="translate(64 336 )scale(1 1 )" font-size="12px" dominant-baseline="middle" fill="black" font-family="sans-serif" text-anchor="end" font-weight="normal" stroke-linejoin="round"><text x="-10" y="-8.070906e+01" dominant-baseline="middle" stroke="none" vector-effect="non-scaling-stroke">2.0</text><text y="-1.654429e+02" dominant-baseline="middle" stroke="none" vector-effect="non-scaling-stroke" x="-10">4.0</text><text stroke="none" vector-effect="non-scaling-stroke" x="-10" y="-2.501767e+02" dominant-baseline="middle">6.0</text></g><g transform="translate(64 336 )scale(1 1 )rotate(-90 0 0 )" text-anchor="middle" dominant-baseline="hanging" font-style="normal" font-weight="bold" stroke-linecap="round" stroke-width="2px" font-family="sans-serif" font-size="12px" fill="black" stroke-linejoin="round" stroke="black"><text stroke="none" vector-effect="non-scaling-stroke" x="136" y="6" dominant-baseline="hanging">Y</text></g><g font-family="sans-serif" text-anchor="middle" fill="black" font-weight="bold" stroke-linejoin="round" stroke-width="0.5px" transform="translate(64 336 )scale(1 -1 )" font-size="12px" dominant-baseline="hanging" stroke="gray" font-style="normal" stroke-linecap="round"><path vector-effect="non-scaling-stroke" d="M0,8.070906e+01 L272,8.070906e+01 M0,1.654429e+02 L272,1.654429e+02 M0,2.501767e+02 L272,2.501767e+02 "/></g><g stroke-linecap="round" font-size="12px" text-anchor="middle" dominant-baseline="hanging" fill="none" stroke-width="2px" font-family="sans-serif" stroke="black" stroke-linejoin="round" font-style="normal" font-weight="bold"><rect vector-effect="non-scaling-stroke" x="64" y="64" width="272" height="272"/><g dominant-baseline="middle" fill="black" font-size="18px"><text dominant-baseline="middle" stroke="none" vector-effect="non-scaling-stroke" x="200" y="32">raw</text></g></g></svg>