<svg height="400" viewbox="0 0 400 400" preserveAspectRatio="xMidYMid meet" xmlns="http://www.w3.org/2000/svg" width="400"><defs><marker markerUnits="userSpaceOnUse" markerWidth="2%" markerHeight="2%" id="circle" viewBox="0 0 10 10 " refX="5" refY="5"><circle cy="5" r="3" fill="none" stroke="black" cx="5"/></marker><marker refY="5" markerUnits="userSpaceOnUse" markerWidth="2%" markerHeight="2%" id="filled-circle" viewBox="0 0 10 10 " refX="5"><circle stroke="none" cx="5" cy="5" r="3" fill="black"/></marker><marker markerUnits="userSpaceOnUse" markerWidth="2%" markerHeight="2%" id="square" viewBox="0 0 10 10 " refX="5" refY="5"><rect y="2" width="6" height="6" fill="none" stroke="black" x="2"/></marker><marker id="filled-square" viewBox="0 0 10 10 " refX="5" refY="5" markerUnits="userSpaceOnUse" markerWidth="2%" markerHeight="2%"><rect y="2" width="6" height="6" fill="black" stroke="none" x="2"/></marker></defs><g stroke="hsl(90, 47%, 65%)" stroke-width="3px" stroke-linecap="round" marker-mid="url(#square)" transform="translate(64 336 )scale(1 -1 )" fill="none" stroke-linejoin="round" marker-start="url(#square)" marker-end="url(#square)"><path d="M5.440000e+00,5.440000e+00 L4.896000e+01,4.867120e+01 L9.248000e+01,9.191087e+01 L136,1.357183e+02 L1.795200e+02,1.790935e+02 L2.230400e+02,2.227060e+02 L2.665600e+02,2.665600e+02 " vector-effect="non-scaling-stroke"/></g><g fill="none" stroke-linejoin="round" stroke-linecap="round" transform="translate(64 336 )scale(1 -1 )" stroke="black" stroke-width="2px"><path vector-effect="non-scaling-stroke" d="M3.445333e+01,0 L3.445333e+01,-6 M9.248000e+01,0 L9.248000e+01,-6 M1.505067e+02,0 L1.505067e+02,-6 M2.085333e+02,0 L2.085333e+02,-6 M2.665600e+02,0 L2.665600e+02,-6 "/></g><g stroke-linejoin="round" font-family="sans-serif" text-anchor="middle" fill="black" stroke-linecap="round" transform="translate(64 336 )scale(1 1 )" stroke="black" dominant-baseline="hanging" stroke-width="2px" font-size="12px" font-style="normal" font-weight="normal"><text vector-effect="non-scaling-stroke" x="3.445333e+01" y="10" dominant-baseline="hanging" stroke="none">1.2</text><text stroke="none" vector-effect="non-scaling-stroke" x="9.248000e+01" y="10" dominant-baseline="hanging">1.4</text><text vector-effect="non-scaling-stroke" x="1.505067e+02" y="10" dominant-baseline="hanging" stroke="none">1.6</text><text stroke="none" vector-effect="non-scaling-stroke" x="2.085333e+02" y="10" dominant-baseline="hanging">1.8</text><text dominant-baseline="hanging" stroke="none" vector-effect="non-scaling-stroke" x="2.665600e+02" y="10">2.0</text></g><g dominant-baseline="baseline" font-style="normal" stroke="black" stroke-width="2px" text-anchor="middle" stroke-linejoin="round" font-family="sans-serif" transform="translate(64 336 )scale(1 1 )rotate(0 0 0 )" font-size="12px" font-weight="bold" stroke-linecap="round" fill="black"><text vector-effect="non-scaling-stroke" x="136" y="-6" dominant-baseline="baseline" stroke="none">X</text></g><g transform="translate(64 336 )scale(1 -1 )" stroke-linejoin="round" font-family="sans-serif" text-anchor="middle" dominant-baseline="baseline" font-weight="bold" stroke-linecap="round" fill="black" font-style="normal" stroke="black" stroke-width="2px" font-size="12px"><path vector-effect="non-scaling-stroke" d="M0,8.070906e+01 L-6,8.070906e+01 M0,1.654429e+02 L-6,1.654429e+02 M0,2.501767e+02 L-6,2.501767e+02 "/></g><g stroke-linecap="round" font-style="normal" text-anchor="end" stroke="black" stroke-width="2px" font-family="sans-serif" dominant-baseline="middle" fill="black" transform="translate(64 336 )scale(1 1 )" font-size="12px" font-weight="normal" stroke-linejoin="round"><text stroke="none" vector-effect="non-scaling-stroke" x="-10" y="-8.070906e+01" dominant-baseline="middle">2.0</text><text dominant-baseline="middle" stroke="none" vector-effect="non-scaling-stroke" x="-10" y="-1.654429e+02">4.0</text><text stroke="none" vector-effect="non-scaling-stroke" x="-10" y="-2.501767e+02" dominant-baseline="middle">6.0</text></g><g stroke-linecap="round" dominant-baseline="hanging" fill="black" stroke-linejoin="round" font-family="sans-serif" font-weight="bold" stroke="black" stroke-width="2px" text-anchor="middle" font-size="12px" font-style="normal" transform="translate(64 336 )scale(1 1 )rotate(-90 0 0 )"><text y="6" dominant-baseline="hanging" stroke="none" vector-effect="non-scaling-stroke" x="136">Y</text></g><g dominant-baseline="hanging" font-style="normal" font-weight="bold" transform="translate(64 336 )scale(1 -1 )" font-size="12px" fill="black" stroke-linejoin="round" text-anchor="middle" stroke-linecap="round" font-family="sans-serif" stroke="gray" stroke-width="0.5px"><path vector-effect="non-scaling-stroke" d="M0,8.070906e+01 L272,8.070906e+01 M0,1.654429e+02 L272,1.654429e+02 M0,2.501767e+02 L272,2.501767e+02 "/></g><g text-anchor="middle" fill="none" font-weight="bold" font-family="sans-serif" dominant-baseline="hanging" font-size="12px" marker-end="url(#filled-circle)" font-style="normal" marker-start="url(#filled-circle)" transform="translate(64 336 )scale(1 -1 )" marker-mid="url(#filled-circle)" stroke-linecap="round" stroke-width="3px" stroke="hsl(301, 88%, 65%)" stroke-linejoin="round"><path d="M2.302933e+02,2.300653e+02 L2.302933e+02,2.300653e+02 " vector-effect="non-scaling-stroke"/></g><g marker-mid="url(#filled-circle)" text-anchor="middle" font-size="12px" stroke-linecap="round" font-family="sans-serif" marker-end="url(#filled-circle)" marker-start="url(#filled-circle)" font-weight="bold" stroke-linejoin="round" font-style="normal" dominant-baseline="hanging" stroke="hsl(152, 76%, 65%)" fill="none" transform="translate(64 336 )scale(1 -1 )" stroke-width="3px"><path d="M1.432533e+02,1.429816e+02 L1.432533e+02,1.429816e+02 " vector-effect="non-scaling-stroke"/></g><g stroke-linecap="round" fill="none" font-family="sans-serif" font-style="normal" text-anchor="middle" stroke-width="2px" dominant-baseline="hanging" stroke="black" font-size="12px" font-weight="bold" stroke-linejoin="round"><rect x="64" y="64" width="272" height="272" vector-effect="non-scaling-stroke"/><g fill="black" dominant-baseline="middle" font-size="18px"><text dominant-baseline="middle" stroke="none" vector-effect="non-scaling-stroke" x="200" y="32">lagrange</text></g></g></svg>