<svg preserveAspectRatio="xMidYMid meet" xmlns="http://www.w3.org/2000/svg" width="400" height="400" viewbox="0 0 400 400"><defs><marker refY="5" markerUnits="userSpaceOnUse" markerWidth="2%" markerHeight="2%" id="circle" viewBox="0 0 10 10 " refX="5"><circle cx="5" cy="5" r="3" fill="none" stroke="black"/></marker><marker markerUnits="userSpaceOnUse" markerWidth="2%" markerHeight="2%" id="filled-circle" viewBox="0 0 10 10 " refX="5" refY="5"><circle stroke="none" cx="5" cy="5" r="3" fill="black"/></marker><marker markerUnits="userSpaceOnUse" markerWidth="2%" markerHeight="2%" id="square" viewBox="0 0 10 10 " refX="5" refY="5"><rect x="2" y="2" width="6" height="6" fill="none" stroke="black"/></marker><marker refX="5" refY="5" markerUnits="userSpaceOnUse" markerWidth="2%" markerHeight="2%" id="filled-square" viewBox="0 0 10 10 "><rect fill="black" stroke="none" x="2" y="2" width="6" height="6"/></marker></defs><g stroke-linejoin="round" marker-start="url(#square)" marker-mid="url(#square)" marker-end="url(#square)" transform="translate(64 336 )scale(1 -1 )" stroke-width="3px" stroke-linecap="round" fill="none" stroke="hsl(90, 47%, 65%)"><path vector-effect="non-scaling-stroke" d="M5.440000e+00,5.440000e+00 L4.896000e+01,4.867120e+01 L9.248000e+01,9.191087e+01 L136,1.357183e+02 L1.795200e+02,1.790935e+02 L2.230400e+02,2.227060e+02 L2.665600e+02,2.665600e+02 "/></g><g fill="none" stroke="black" transform="translate(64 336 )scale(1 -1 )" stroke-width="2px" stroke-linecap="round" stroke-linejoin="round"><path d="M3.445333e+01,0 L3.445333e+01,-6 M9.248000e+01,0 L9.248000e+01,-6 M1.505067e+02,0 L1.505067e+02,-6 M2.085333e+02,0 L2.085333e+02,-6 M2.665600e+02,0 L2.665600e+02,-6 " vector-effect="non-scaling-stroke"/></g><g fill="black" transform="translate(64 336 )scale(1 1 )" font-size="12px" font-style="normal" stroke-linejoin="round" font-weight="normal" text-anchor="middle" stroke-width="2px" stroke-linecap="round" font-family="sans-serif" dominant-baseline="hanging" stroke="black"><text stroke="none" vector-effect="non-scaling-stroke" x="3.445333e+01" y="10" dominant-baseline="hanging">1.2</text><text stroke="none" vector-effect="non-scaling-stroke" x="9.248000e+01" y="10" dominant-baseline="hanging">1.4</text><text stroke="none" vector-effect="non-scaling-stroke" x="1.505067e+02" y="10" dominant-baseline="hanging">1.6</text><text dominant-baseline="hanging" stroke="none" vector-effect="non-scaling-stroke" x="2.085333e+02" y="10">1.8</text><text stroke="none" vector-effect="non-scaling-stroke" x="2.665600e+02" y="10" dominant-baseline="hanging">2.0</text></g><g font-size="12px" stroke-width="2px" stroke-linecap="round" font-weight="bold" text-anchor="middle" stroke-linejoin="round" fill="black" stroke="black" transform="translate(64 336 )scale(1 1 )rotate(0 0 0 )" font-family="sans-serif" font-style="normal" dominant-baseline="baseline"><text stroke="none" vector-effect="non-scaling-stroke" x="136" y="-6" dominant-baseline="baseline">X</text></g><g font-style="normal" font-weight="bold" text-anchor="middle" stroke="black" font-size="12px" transform="translate(64 336 )scale(1 -1 )" font-family="sans-serif" stroke-width="2px" stroke-linecap="round" stroke-linejoin="round" dominant-baseline="baseline" fill="black"><path vector-effect="non-scaling-stroke" d="M0,8.070906e+01 L-6,8.070906e+01 M0,1.654429e+02 L-6,1.654429e+02 M0,2.501767e+02 L-6,2.501767e+02 "/></g><g font-style="normal" fill="black" transform="translate(64 336 )scale(1 1 )" font-family="sans-serif" stroke-width="2px" stroke-linecap="round" stroke-linejoin="round" font-weight="normal" dominant-baseline="middle" stroke="black" font-size="12px" text-anchor="end"><text vector-effect="non-scaling-stroke" x="-10" y="-8.070906e+01" dominant-baseline="middle" stroke="none">2.0</text><text vector-effect="non-scaling-stroke" x="-10" y="-1.654429e+02" dominant-baseline="middle" stroke="none">4.0</text><text dominant-baseline="middle" stroke="none" vector-effect="non-scaling-stroke" x="-10" y="-2.501767e+02">6.0</text></g><g stroke-width="2px" stroke-linecap="round" stroke-linejoin="round" fill="black" text-anchor="middle" font-family="sans-serif" font-size="12px" font-style="normal" dominant-baseline="hanging" stroke="black" transform="translate(64 336 )scale(1 1 )rotate(-90 0 0 )" font-weight="bold"><text stroke="none" vector-effect="non-scaling-stroke" x="136" y="6" dominant-baseline="hanging">Y</text></g><g font-family="sans-serif" font-size="12px" font-style="normal" dominant-baseline="hanging" stroke-linejoin="round" font-weight="bold" stroke-width="0.5px" transform="translate(64 336 )scale(1 -1 )" fill="black" stroke="gray" text-anchor="middle" stroke-linecap="round"><path vector-effect="non-scaling-stroke" d="M0,8.070906e+01 L272,8.070906e+01 M0,1.654429e+02 L272,1.654429e+02 M0,2.501767e+02 L272,2.501767e+02 "/></g><g dominant-baseline="hanging" stroke="black" font-family="sans-serif" stroke-linejoin="round" font-weight="bold" text-anchor="middle" fill="none" font-size="12px" font-style="normal" stroke-width="2px" stroke-linecap="round"><rect y="64" width="272" height="272" vector-effect="non-scaling-stroke" x="64"/><g font-size="18px" dominant-baseline="middle" fill="black"><text x="200" y="32" dominant-baseline="middle" stroke="none" vector-effect="non-scaling-stroke">raw</text></g></g></svg>