<svg viewbox="0 0 400 400" preserveAspectRatio="xMidYMid meet" xmlns="http://www.w3.org/2000/svg" width="400" height="400"><defs><marker markerWidth="2%" markerHeight="2%" id="circle" viewBox="0 0 10 10 " refX="5" refY="5" markerUnits="userSpaceOnUse"><circle cy="5" r="3" fill="none" stroke="black" cx="5"/></marker><marker viewBox="0 0 10 10 " refX="5" refY="5" markerUnits="userSpaceOnUse" markerWidth="2%" markerHeight="2%" id="filled-circle"><circle cx="5" cy="5" r="3" fill="black" stroke="none"/></marker><marker markerUnits="userSpaceOnUse" markerWidth="2%" markerHeight="2%" id="square" viewBox="0 0 10 10 " refX="5" refY="5"><rect width="6" height="6" fill="none" stroke="black" x="2" y="2"/></marker><marker markerWidth="2%" markerHeight="2%" id="filled-square" viewBox="0 0 10 10 " refX="5" refY="5" markerUnits="userSpaceOnUse"><rect fill="black" stroke="none" x="2" y="2" width="6" height="6"/></marker></defs><g transform="translate(64 336 )scale(1 -1 )" stroke-width="3px" stroke="hsl(90, 47%, 65%)" stroke-linejoin="round" marker-start="url(#square)" marker-end="url(#square)" fill="none" stroke-linecap="round" marker-mid="url(#square)"><path vector-effect="non-scaling-stroke" d="M5.440000e+00,5.440000e+00 L3.155200e+01,6.236316e+01 L5.766400e+01,1.158592e+02 L8.377600e+01,1.637955e+02 L1.098880e+02,2.042608e+02 L136,2.356421e+02 L1.621120e+02,2.566882e+02 L1.882240e+02,2.665600e+02 L2.143360e+02,2.648641e+02 L2.404480e+02,2.516680e+02 L2.665600e+02,2.274978e+02 "/></g><g stroke-width="2px" stroke-linecap="round" stroke-linejoin="round" transform="translate(64 336 )scale(1 -1 )" fill="none" stroke="black"><path vector-effect="non-scaling-stroke" d="M1.229440e+02,0 L1.229440e+02,-6 M2.535040e+02,0 L2.535040e+02,-6 "/></g><g stroke="black" font-size="12px" text-anchor="middle" stroke-linejoin="round" stroke-width="2px" stroke-linecap="round" transform="translate(64 336 )scale(1 1 )" fill="black" font-family="sans-serif" font-weight="normal" font-style="normal" dominant-baseline="hanging"><text x="1.229440e+02" y="10" dominant-baseline="hanging" stroke="none" vector-effect="non-scaling-stroke">1.0</text><text x="2.535040e+02" y="10" dominant-baseline="hanging" stroke="none" vector-effect="non-scaling-stroke">2.0</text></g><g text-anchor="middle" transform="translate(64 336 )scale(1 1 )rotate(0 0 0 )" font-size="12px" fill="black" stroke="black" font-weight="bold" dominant-baseline="baseline" stroke-width="2px" stroke-linecap="round" stroke-linejoin="round" font-style="normal" font-family="sans-serif"><text stroke="none" vector-effect="non-scaling-stroke" x="136" y="-6" dominant-baseline="baseline">X</text></g><g stroke-width="2px" stroke-linejoin="round" text-anchor="middle" fill="black" font-family="sans-serif" font-weight="bold" stroke-linecap="round" transform="translate(64 336 )scale(1 -1 )" font-size="12px" font-style="normal" dominant-baseline="baseline" stroke="black"><path d="M0,1.218441e+02 L-6,1.218441e+02 " vector-effect="non-scaling-stroke"/></g><g stroke-width="2px" stroke="black" font-weight="normal" fill="black" font-style="normal" text-anchor="end" transform="translate(64 336 )scale(1 1 )" font-size="12px" dominant-baseline="middle" font-family="sans-serif" stroke-linecap="round" stroke-linejoin="round"><text y="-1.218441e+02" dominant-baseline="middle" stroke="none" vector-effect="non-scaling-stroke" x="-10">1.0</text></g><g transform="translate(64 336 )scale(1 1 )rotate(-90 0 0 )" dominant-baseline="hanging" fill="black" stroke-width="2px" stroke-linecap="round" stroke-linejoin="round" stroke="black" font-family="sans-serif" font-weight="bold" font-size="12px" font-style="normal" text-anchor="middle"><text stroke="none" vector-effect="non-scaling-stroke" x="136" y="6" dominant-baseline="hanging">Y</text></g><g fill="black" font-weight="bold" stroke-width="0.5px" stroke-linejoin="round" font-size="12px" text-anchor="middle" stroke="gray" font-family="sans-serif" stroke-linecap="round" transform="translate(64 336 )scale(1 -1 )" font-style="normal" dominant-baseline="hanging"><path vector-effect="non-scaling-stroke" d="M0,1.218441e+02 L272,1.218441e+02 "/></g><g dominant-baseline="hanging" marker-mid="url(#filled-circle)" transform="translate(64 336 )scale(1 -1 )" stroke="hsl(301, 88%, 65%)" text-anchor="middle" font-weight="bold" marker-end="url(#filled-circle)" stroke-linecap="round" font-style="normal" fill="none" font-size="12px" stroke-linejoin="round" marker-start="url(#filled-circle)" font-family="sans-serif" stroke-width="3px"><path vector-effect="non-scaling-stroke" d="M3.808000e+01,7.614479e+01 L3.808000e+01,7.614479e+01 "/></g><g stroke="hsl(152, 76%, 65%)" stroke-width="3px" marker-end="url(#filled-circle)" marker-start="url(#filled-circle)" font-family="sans-serif" text-anchor="middle" font-weight="bold" transform="translate(64 336 )scale(1 -1 )" stroke-linecap="round" stroke-linejoin="round" dominant-baseline="hanging" fill="none" marker-mid="url(#filled-circle)" font-style="normal" font-size="12px"><path vector-effect="non-scaling-stroke" d="M9.030400e+01,1.746809e+02 L9.030400e+01,1.746809e+02 "/></g><g font-family="sans-serif" stroke-linejoin="round" font-size="12px" text-anchor="middle" font-style="normal" stroke="black" stroke-width="2px" dominant-baseline="hanging" fill="none" font-weight="bold" stroke-linecap="round"><rect x="64" y="64" width="272" height="272" vector-effect="non-scaling-stroke"/><g font-size="18px" dominant-baseline="middle" fill="black"><text x="200" y="32" dominant-baseline="middle" stroke="none" vector-effect="non-scaling-stroke">lagrange</text></g></g></svg>