<svg height="400" viewbox="0 0 400 400" preserveAspectRatio="xMidYMid meet" xmlns="http://www.w3.org/2000/svg" width="400"><defs><marker viewBox="0 0 10 10 " refX="5" refY="5" markerUnits="userSpaceOnUse" markerWidth="2%" markerHeight="2%" id="circle"><circle cy="5" r="3" fill="none" stroke="black" cx="5"/></marker><marker markerHeight="2%" id="filled-circle" viewBox="0 0 10 10 " refX="5" refY="5" markerUnits="userSpaceOnUse" markerWidth="2%"><circle fill="black" stroke="none" cx="5" cy="5" r="3"/></marker><marker id="square" viewBox="0 0 10 10 " refX="5" refY="5" markerUnits="userSpaceOnUse" markerWidth="2%" markerHeight="2%"><rect fill="none" stroke="black" x="2" y="2" width="6" height="6"/></marker><marker markerUnits="userSpaceOnUse" markerWidth="2%" markerHeight="2%" id="filled-square" viewBox="0 0 10 10 " refX="5" refY="5"><rect height="6" fill="black" stroke="none" x="2" y="2" width="6"/></marker></defs><g stroke-width="3px" stroke-linecap="round" marker-end="url(#filled-circle)" fill="none" stroke="hsl(90, 47%, 65%)" transform="translate(64 336 )scale(1 -1 )" stroke-linejoin="round" marker-start="url(#filled-circle)" marker-mid="url(#filled-circle)"><path d="M5.440000e+00,1.305895e+02 L3.155200e+01,1.003552e+02 L5.766400e+01,6.600358e+01 L8.377600e+01,3.230333e+01 L1.098880e+02,8.472997e+00 L136,5.440000e+00 L1.621120e+02,2.868996e+01 L1.882240e+02,7.390615e+01 L2.143360e+02,1.313854e+02 L2.404480e+02,1.931892e+02 L2.665600e+02,2.557389e+02 " vector-effect="non-scaling-stroke"/></g><g fill="none" stroke="black" stroke-width="2px" stroke-linecap="round" transform="translate(64 336 )scale(1 -1 )" stroke-linejoin="round"><path d="M5.440000e+00,0 L5.440000e+00,-6 M136,0 L136,-6 M2.665600e+02,0 L2.665600e+02,-6 " vector-effect="non-scaling-stroke"/></g><g fill="black" stroke-linecap="round" font-family="sans-serif" stroke-linejoin="round" text-anchor="middle" dominant-baseline="hanging" font-style="normal" stroke="black" stroke-width="2px" transform="translate(64 336 )scale(1 1 )" font-size="12px" font-weight="normal"><text dominant-baseline="hanging" stroke="none" vector-effect="non-scaling-stroke" x="5.440000e+00" y="10">-2</text><text stroke="none" vector-effect="non-scaling-stroke" x="136" y="10" dominant-baseline="hanging">-1</text><text stroke="none" vector-effect="non-scaling-stroke" x="2.665600e+02" y="10" dominant-baseline="hanging">0</text></g><g text-anchor="middle" dominant-baseline="baseline" stroke-linejoin="round" font-weight="bold" stroke-linecap="round" fill="black" font-size="12px" transform="translate(64 336 )scale(1 1 )rotate(0 0 0 )" font-family="sans-serif" font-style="normal" stroke="black" stroke-width="2px"><text x="136" y="-6" dominant-baseline="baseline" stroke="none" vector-effect="non-scaling-stroke">X</text></g><g stroke-width="2px" transform="translate(64 336 )scale(1 -1 )" stroke-linejoin="round" font-size="12px" text-anchor="middle" font-style="normal" fill="black" stroke="black" stroke-linecap="round" font-family="sans-serif" font-weight="bold" dominant-baseline="baseline"><path d="M0,5.440000e+00 L-6,5.440000e+00 M0,6.801474e+01 L-6,6.801474e+01 M0,1.305895e+02 L-6,1.305895e+02 M0,1.931642e+02 L-6,1.931642e+02 M0,2.557389e+02 L-6,2.557389e+02 " vector-effect="non-scaling-stroke"/></g><g font-weight="normal" stroke-linejoin="round" stroke-linecap="round" font-family="sans-serif" fill="black" stroke="black" text-anchor="end" dominant-baseline="middle" font-size="12px" stroke-width="2px" transform="translate(64 336 )scale(1 1 )" font-style="normal"><text stroke="none" vector-effect="non-scaling-stroke" x="-10" y="-5.440000e+00" dominant-baseline="middle">-0.8</text><text y="-6.801474e+01" dominant-baseline="middle" stroke="none" vector-effect="non-scaling-stroke" x="-10">-0.6</text><text y="-1.305895e+02" dominant-baseline="middle" stroke="none" vector-effect="non-scaling-stroke" x="-10">-0.4</text><text stroke="none" vector-effect="non-scaling-stroke" x="-10" y="-1.931642e+02" dominant-baseline="middle">-0.2</text><text dominant-baseline="middle" stroke="none" vector-effect="non-scaling-stroke" x="-10" y="-2.557389e+02">-0.0</text></g><g stroke-linejoin="round" stroke="black" stroke-width="2px" transform="translate(64 336 )scale(1 1 )rotate(-90 0 0 )" font-size="12px" text-anchor="middle" dominant-baseline="hanging" stroke-linecap="round" font-family="sans-serif" font-style="normal" fill="black" font-weight="bold"><text x="136" y="6" dominant-baseline="hanging" stroke="none" vector-effect="non-scaling-stroke">Y</text></g><g font-size="12px" transform="translate(64 336 )scale(1 -1 )" font-family="sans-serif" font-style="normal" fill="black" stroke-width="0.5px" stroke-linejoin="round" font-weight="bold" text-anchor="middle" stroke="gray" stroke-linecap="round" dominant-baseline="hanging"><path vector-effect="non-scaling-stroke" d="M0,5.440000e+00 L272,5.440000e+00 M0,6.801474e+01 L272,6.801474e+01 M0,1.305895e+02 L272,1.305895e+02 M0,1.931642e+02 L272,1.931642e+02 M0,2.557389e+02 L272,2.557389e+02 "/></g><g marker-start="url(#filled-square)" font-style="normal" dominant-baseline="hanging" font-weight="bold" fill="none" text-anchor="middle" stroke-width="3px" marker-end="url(#filled-square)" marker-mid="url(#filled-square)" font-family="sans-serif" font-size="12px" stroke-linecap="round" stroke="hsl(301, 88%, 65%)" transform="translate(64 336 )scale(1 -1 )" stroke-linejoin="round"><path vector-effect="non-scaling-stroke" d="M5.440000e+00,1.414214e+02 L3.155200e+01,9.113912e+01 L5.766400e+01,5.319797e+01 L8.377600e+01,2.820299e+01 L1.098880e+02,1.675931e+01 L136,1.947202e+01 L1.621120e+02,3.694622e+01 L1.882240e+02,6.978702e+01 L2.143360e+02,1.185995e+02 L2.404480e+02,1.839888e+02 L2.665600e+02,2.665600e+02 "/></g><g font-family="sans-serif" stroke-linejoin="round" font-size="12px" stroke-linecap="round" font-style="normal" font-weight="bold" dominant-baseline="hanging" fill="none" text-anchor="middle" stroke="black" stroke-width="2px"><rect y="64" width="272" height="272" vector-effect="non-scaling-stroke" x="64"/><g dominant-baseline="middle" fill="black" font-size="18px"><text stroke="none" vector-effect="non-scaling-stroke" x="200" y="32" dominant-baseline="middle">cubic</text></g></g></svg>