<svg height="400" viewbox="0 0 400 400" preserveAspectRatio="xMidYMid meet" xmlns="http://www.w3.org/2000/svg" width="400"><defs><marker markerUnits="userSpaceOnUse" markerWidth="2%" markerHeight="2%" id="circle" viewBox="0 0 10 10 " refX="5" refY="5"><circle r="3" fill="none" stroke="black" cx="5" cy="5"/></marker><marker viewBox="0 0 10 10 " refX="5" refY="5" markerUnits="userSpaceOnUse" markerWidth="2%" markerHeight="2%" id="filled-circle"><circle cx="5" cy="5" r="3" fill="black" stroke="none"/></marker><marker markerWidth="2%" markerHeight="2%" id="square" viewBox="0 0 10 10 " refX="5" refY="5" markerUnits="userSpaceOnUse"><rect y="2" width="6" height="6" fill="none" stroke="black" x="2"/></marker><marker viewBox="0 0 10 10 " refX="5" refY="5" markerUnits="userSpaceOnUse" markerWidth="2%" markerHeight="2%" id="filled-square"><rect width="6" height="6" fill="black" stroke="none" x="2" y="2"/></marker></defs><g stroke-width="3px" marker-mid="url(#filled-circle)" stroke-linecap="round" marker-start="url(#filled-circle)" fill="none" marker-end="url(#filled-circle)" stroke="hsl(90, 47%, 65%)" transform="translate(64 336 )scale(1 -1 )" stroke-linejoin="round"><path vector-effect="non-scaling-stroke" d="M5.440000e+00,5.440000e+00 L3.155200e+01,7.069390e+01 L5.766400e+01,1.351697e+02 L8.377600e+01,1.951339e+02 L1.098880e+02,2.423050e+02 L136,2.665600e+02 L1.621120e+02,2.633957e+02 L1.882240e+02,2.385353e+02 L2.143360e+02,2.033781e+02 L2.404480e+02,1.675413e+02 L2.665600e+02,136 "/></g><g stroke-linejoin="round" stroke="black" stroke-linecap="round" transform="translate(64 336 )scale(1 -1 )" fill="none" stroke-width="2px"><path vector-effect="non-scaling-stroke" d="M5.440000e+00,0 L5.440000e+00,-6 M136,0 L136,-6 M2.665600e+02,0 L2.665600e+02,-6 "/></g><g stroke-linecap="round" transform="translate(64 336 )scale(1 1 )" font-size="12px" font-weight="normal" dominant-baseline="hanging" stroke-width="2px" font-style="normal" text-anchor="middle" stroke="black" font-family="sans-serif" fill="black" stroke-linejoin="round"><text dominant-baseline="hanging" stroke="none" vector-effect="non-scaling-stroke" x="5.440000e+00" y="10">0</text><text dominant-baseline="hanging" stroke="none" vector-effect="non-scaling-stroke" x="136" y="10">1</text><text dominant-baseline="hanging" stroke="none" vector-effect="non-scaling-stroke" x="2.665600e+02" y="10">2</text></g><g fill="black" stroke-width="2px" font-size="12px" stroke="black" text-anchor="middle" font-style="normal" stroke-linejoin="round" font-family="sans-serif" font-weight="bold" dominant-baseline="baseline" stroke-linecap="round" transform="translate(64 336 )scale(1 1 )rotate(0 0 0 )"><text x="136" y="-6" dominant-baseline="baseline" stroke="none" vector-effect="non-scaling-stroke">X</text></g><g text-anchor="middle" stroke="black" transform="translate(64 336 )scale(1 -1 )" font-size="12px" dominant-baseline="baseline" stroke-width="2px" stroke-linecap="round" font-style="normal" font-weight="bold" fill="black" stroke-linejoin="round" font-family="sans-serif"><path vector-effect="non-scaling-stroke" d="M0,5.440000e+00 L-6,5.440000e+00 M0,7.072000e+01 L-6,7.072000e+01 M0,136 L-6,136 M0,2.012800e+02 L-6,2.012800e+02 M0,2.665600e+02 L-6,2.665600e+02 "/></g><g fill="black" stroke-width="2px" stroke-linejoin="round" font-size="12px" font-style="normal" text-anchor="end" font-weight="normal" dominant-baseline="middle" font-family="sans-serif" stroke="black" stroke-linecap="round" transform="translate(64 336 )scale(1 1 )"><text y="-5.440000e+00" dominant-baseline="middle" stroke="none" vector-effect="non-scaling-stroke" x="-10">0.0</text><text x="-10" y="-7.072000e+01" dominant-baseline="middle" stroke="none" vector-effect="non-scaling-stroke">0.2</text><text stroke="none" vector-effect="non-scaling-stroke" x="-10" y="-136" dominant-baseline="middle">0.4</text><text x="-10" y="-2.012800e+02" dominant-baseline="middle" stroke="none" vector-effect="non-scaling-stroke">0.6</text><text dominant-baseline="middle" stroke="none" vector-effect="non-scaling-stroke" x="-10" y="-2.665600e+02">0.8</text></g><g font-size="12px" fill="black" stroke-width="2px" font-style="normal" text-anchor="middle" stroke-linecap="round" transform="translate(64 336 )scale(1 1 )rotate(-90 0 0 )" font-family="sans-serif" stroke-linejoin="round" stroke="black" font-weight="bold" dominant-baseline="hanging"><text stroke="none" vector-effect="non-scaling-stroke" x="136" y="6" dominant-baseline="hanging">Y</text></g><g fill="black" stroke-width="0.5px" font-family="sans-serif" stroke-linecap="round" transform="translate(64 336 )scale(1 -1 )" font-style="normal" font-size="12px" font-weight="bold" dominant-baseline="hanging" stroke-linejoin="round" text-anchor="middle" stroke="gray"><path vector-effect="non-scaling-stroke" d="M0,5.440000e+00 L272,5.440000e+00 M0,7.072000e+01 L272,7.072000e+01 M0,136 L272,136 M0,2.012800e+02 L272,2.012800e+02 M0,2.665600e+02 L272,2.665600e+02 "/></g><g font-family="sans-serif" dominant-baseline="hanging" marker-start="url(#filled-square)" marker-end="url(#filled-square)" stroke-linecap="round" transform="translate(64 336 )scale(1 -1 )" stroke-linejoin="round" font-weight="bold" stroke="hsl(301, 88%, 65%)" stroke-width="3px" marker-mid="url(#filled-square)" font-style="normal" fill="none" font-size="12px" text-anchor="middle"><path vector-effect="non-scaling-stroke" d="M3.155200e+01,1.839765e+02 L5.766400e+01,1.853176e+02 L8.377600e+01,1.866687e+02 L1.098880e+02,1.880300e+02 L136,1.894015e+02 L1.621120e+02,1.907833e+02 L1.882240e+02,1.921754e+02 L2.143360e+02,1.935781e+02 L2.404480e+02,1.949913e+02 L2.665600e+02,1.964150e+02 "/></g><g font-size="12px" font-family="sans-serif" font-weight="bold" stroke="black" stroke-linecap="round" fill="none" font-style="normal" text-anchor="middle" stroke-linejoin="round" dominant-baseline="hanging" stroke-width="2px"><rect vector-effect="non-scaling-stroke" x="64" y="64" width="272" height="272"/><g dominant-baseline="middle" fill="black" font-size="18px"><text stroke="none" vector-effect="non-scaling-stroke" x="200" y="32" dominant-baseline="middle">exp</text></g></g></svg>