<svg preserveAspectRatio="xMidYMid meet" xmlns="http://www.w3.org/2000/svg" width="400" height="400" viewbox="0 0 400 400"><defs><marker refX="5" refY="5" markerUnits="userSpaceOnUse" markerWidth="2%" markerHeight="2%" id="circle" viewBox="0 0 10 10 "><circle stroke="black" cx="5" cy="5" r="3" fill="none"/></marker><marker id="filled-circle" viewBox="0 0 10 10 " refX="5" refY="5" markerUnits="userSpaceOnUse" markerWidth="2%" markerHeight="2%"><circle stroke="none" cx="5" cy="5" r="3" fill="black"/></marker><marker id="square" viewBox="0 0 10 10 " refX="5" refY="5" markerUnits="userSpaceOnUse" markerWidth="2%" markerHeight="2%"><rect stroke="black" x="2" y="2" width="6" height="6" fill="none"/></marker><marker id="filled-square" viewBox="0 0 10 10 " refX="5" refY="5" markerUnits="userSpaceOnUse" markerWidth="2%" markerHeight="2%"><rect width="6" height="6" fill="black" stroke="none" x="2" y="2"/></marker></defs><g transform="translate(64 336 )scale(1 -1 )" fill="none" stroke-width="3px" marker-start="url(#filled-circle)" marker-mid="url(#filled-circle)" stroke="hsl(90, 47%, 65%)" marker-end="url(#filled-circle)" stroke-linecap="round" stroke-linejoin="round"><path vector-effect="non-scaling-stroke" d="M5.440000e+00,136 L3.155200e+01,1.044587e+02 L5.766400e+01,6.862190e+01 L8.377600e+01,3.346470e+01 L1.098880e+02,8.604122e+00 L136,5.440000e+00 L1.621120e+02,2.969511e+01 L1.882240e+02,7.686611e+01 L2.143360e+02,1.368304e+02 L2.404480e+02,2.013061e+02 L2.665600e+02,2.665600e+02 "/></g><g stroke-linecap="round" stroke-linejoin="round" transform="translate(64 336 )scale(1 -1 )" fill="none" stroke="black" stroke-width="2px"><path vector-effect="non-scaling-stroke" d="M5.440000e+00,0 L5.440000e+00,-6 M136,0 L136,-6 M2.665600e+02,0 L2.665600e+02,-6 "/></g><g font-style="normal" dominant-baseline="hanging" stroke="black" stroke-width="2px" stroke-linecap="round" font-weight="normal" fill="black" font-family="sans-serif" font-size="12px" stroke-linejoin="round" transform="translate(64 336 )scale(1 1 )" text-anchor="middle"><text dominant-baseline="hanging" stroke="none" vector-effect="non-scaling-stroke" x="5.440000e+00" y="10">-2</text><text y="10" dominant-baseline="hanging" stroke="none" vector-effect="non-scaling-stroke" x="136">-1</text><text stroke="none" vector-effect="non-scaling-stroke" x="2.665600e+02" y="10" dominant-baseline="hanging">0</text></g><g dominant-baseline="baseline" fill="black" stroke="black" stroke-width="2px" font-family="sans-serif" stroke-linejoin="round" font-weight="bold" font-style="normal" stroke-linecap="round" transform="translate(64 336 )scale(1 1 )rotate(0 0 0 )" text-anchor="middle" font-size="12px"><text vector-effect="non-scaling-stroke" x="136" y="-6" dominant-baseline="baseline" stroke="none">X</text></g><g stroke-linejoin="round" font-weight="bold" text-anchor="middle" stroke-linecap="round" font-size="12px" fill="black" transform="translate(64 336 )scale(1 -1 )" stroke="black" stroke-width="2px" font-family="sans-serif" font-style="normal" dominant-baseline="baseline"><path vector-effect="non-scaling-stroke" d="M0,5.440000e+00 L-6,5.440000e+00 M0,7.072000e+01 L-6,7.072000e+01 M0,1.360000e+02 L-6,1.360000e+02 M0,2.012800e+02 L-6,2.012800e+02 M0,2.665600e+02 L-6,2.665600e+02 "/></g><g font-style="normal" dominant-baseline="middle" stroke-linecap="round" transform="translate(64 336 )scale(1 1 )" text-anchor="end" fill="black" stroke="black" font-size="12px" font-weight="normal" stroke-width="2px" font-family="sans-serif" stroke-linejoin="round"><text stroke="none" vector-effect="non-scaling-stroke" x="-10" y="-5.440000e+00" dominant-baseline="middle">-0.8</text><text y="-7.072000e+01" dominant-baseline="middle" stroke="none" vector-effect="non-scaling-stroke" x="-10">-0.6</text><text x="-10" y="-1.360000e+02" dominant-baseline="middle" stroke="none" vector-effect="non-scaling-stroke">-0.4</text><text dominant-baseline="middle" stroke="none" vector-effect="non-scaling-stroke" x="-10" y="-2.012800e+02">-0.2</text><text x="-10" y="-2.665600e+02" dominant-baseline="middle" stroke="none" vector-effect="non-scaling-stroke">-0.0</text></g><g stroke-width="2px" font-family="sans-serif" text-anchor="middle" stroke-linecap="round" transform="translate(64 336 )scale(1 1 )rotate(-90 0 0 )" font-size="12px" fill="black" stroke="black" font-weight="bold" font-style="normal" dominant-baseline="hanging" stroke-linejoin="round"><text dominant-baseline="hanging" stroke="none" vector-effect="non-scaling-stroke" x="136" y="6">Y</text></g><g font-size="12px" stroke-linecap="round" transform="translate(64 336 )scale(1 -1 )" text-anchor="middle" dominant-baseline="hanging" fill="black" stroke="gray" stroke-width="0.5px" font-family="sans-serif" font-style="normal" stroke-linejoin="round" font-weight="bold"><path vector-effect="non-scaling-stroke" d="M0,5.440000e+00 L272,5.440000e+00 M0,7.072000e+01 L272,7.072000e+01 M0,1.360000e+02 L272,1.360000e+02 M0,2.012800e+02 L272,2.012800e+02 M0,2.665600e+02 L272,2.665600e+02 "/></g><g font-style="normal" dominant-baseline="hanging" stroke-linecap="round" stroke-linejoin="round" font-weight="bold" stroke="black" font-size="12px" fill="none" stroke-width="2px" font-family="sans-serif" text-anchor="middle"><rect width="272" height="272" vector-effect="non-scaling-stroke" x="64" y="64"/><g fill="black" font-size="18px" dominant-baseline="middle"><text stroke="none" vector-effect="non-scaling-stroke" x="200" y="32" dominant-baseline="middle">log</text></g></g></svg>