<svg height="400" viewbox="0 0 400 400" preserveAspectRatio="xMidYMid meet" xmlns="http://www.w3.org/2000/svg" width="400"><defs><marker refY="5" markerUnits="userSpaceOnUse" markerWidth="2%" markerHeight="2%" id="circle" viewBox="0 0 10 10 " refX="5"><circle cx="5" cy="5" r="3" fill="none" stroke="black"/></marker><marker markerWidth="2%" markerHeight="2%" id="filled-circle" viewBox="0 0 10 10 " refX="5" refY="5" markerUnits="userSpaceOnUse"><circle cy="5" r="3" fill="black" stroke="none" cx="5"/></marker><marker markerHeight="2%" id="square" viewBox="0 0 10 10 " refX="5" refY="5" markerUnits="userSpaceOnUse" markerWidth="2%"><rect x="2" y="2" width="6" height="6" fill="none" stroke="black"/></marker><marker refY="5" markerUnits="userSpaceOnUse" markerWidth="2%" markerHeight="2%" id="filled-square" viewBox="0 0 10 10 " refX="5"><rect height="6" fill="black" stroke="none" x="2" y="2" width="6"/></marker></defs><g stroke-linecap="round" stroke-linejoin="round" marker-start="url(#filled-circle)" marker-end="url(#filled-circle)" transform="translate(64 336 )scale(1 -1 )" marker-mid="url(#filled-circle)" fill="none" stroke="hsl(90, 47%, 65%)" stroke-width="3px"><path vector-effect="non-scaling-stroke" d="M5.440000e+00,1.360000e+02 L3.155200e+01,1.044587e+02 L5.766400e+01,6.862186e+01 L8.377600e+01,3.346471e+01 L1.098880e+02,8.604257e+00 L136,5.440000e+00 L1.621120e+02,2.969498e+01 L1.882240e+02,7.686608e+01 L2.143360e+02,1.368303e+02 L2.404480e+02,2.013061e+02 L2.665600e+02,2.665600e+02 "/></g><g fill="none" stroke="black" stroke-linecap="round" stroke-linejoin="round" stroke-width="2px" transform="translate(64 336 )scale(1 -1 )"><path vector-effect="non-scaling-stroke" d="M5.440000e+00,0 L5.440000e+00,-6 M136,0 L136,-6 M2.665600e+02,0 L2.665600e+02,-6 "/></g><g dominant-baseline="hanging" fill="black" stroke="black" font-weight="normal" stroke-width="2px" transform="translate(64 336 )scale(1 1 )" font-style="normal" stroke-linejoin="round" font-family="sans-serif" font-size="12px" text-anchor="middle" stroke-linecap="round"><text stroke="none" vector-effect="non-scaling-stroke" x="5.440000e+00" y="10" dominant-baseline="hanging">-2</text><text dominant-baseline="hanging" stroke="none" vector-effect="non-scaling-stroke" x="136" y="10">-1</text><text y="10" dominant-baseline="hanging" stroke="none" vector-effect="non-scaling-stroke" x="2.665600e+02">0</text></g><g transform="translate(64 336 )scale(1 1 )rotate(0 0 0 )" font-size="12px" text-anchor="middle" stroke="black" font-style="normal" stroke-width="2px" dominant-baseline="baseline" font-family="sans-serif" font-weight="bold" fill="black" stroke-linecap="round" stroke-linejoin="round"><text stroke="none" vector-effect="non-scaling-stroke" x="136" y="-6" dominant-baseline="baseline">X</text></g><g stroke-linejoin="round" transform="translate(64 336 )scale(1 -1 )" font-family="sans-serif" text-anchor="middle" font-weight="bold" fill="black" stroke="black" stroke-linecap="round" font-style="normal" dominant-baseline="baseline" stroke-width="2px" font-size="12px"><path vector-effect="non-scaling-stroke" d="M0,5.440000e+00 L-6,5.440000e+00 M0,7.072000e+01 L-6,7.072000e+01 M0,1.360000e+02 L-6,1.360000e+02 M0,2.012800e+02 L-6,2.012800e+02 M0,2.665600e+02 L-6,2.665600e+02 "/></g><g text-anchor="end" stroke-linecap="round" stroke-linejoin="round" dominant-baseline="middle" font-family="sans-serif" font-size="12px" font-weight="normal" stroke="black" font-style="normal" stroke-width="2px" transform="translate(64 336 )scale(1 1 )" fill="black"><text vector-effect="non-scaling-stroke" x="-10" y="-5.440000e+00" dominant-baseline="middle" stroke="none">-0.8</text><text y="-7.072000e+01" dominant-baseline="middle" stroke="none" vector-effect="non-scaling-stroke" x="-10">-0.6</text><text y="-1.360000e+02" dominant-baseline="middle" stroke="none" vector-effect="non-scaling-stroke" x="-10">-0.4</text><text stroke="none" vector-effect="non-scaling-stroke" x="-10" y="-2.012800e+02" dominant-baseline="middle">-0.2</text><text dominant-baseline="middle" stroke="none" vector-effect="non-scaling-stroke" x="-10" y="-2.665600e+02">-0.0</text></g><g stroke-linejoin="round" text-anchor="middle" stroke-width="2px" font-family="sans-serif" font-size="12px" fill="black" stroke="black" font-weight="bold" transform="translate(64 336 )scale(1 1 )rotate(-90 0 0 )" font-style="normal" dominant-baseline="hanging" stroke-linecap="round"><text stroke="none" vector-effect="non-scaling-stroke" x="136" y="6" dominant-baseline="hanging">Y</text></g><g font-weight="bold" text-anchor="middle" stroke-width="0.5px" stroke-linejoin="round" font-style="normal" dominant-baseline="hanging" fill="black" font-size="12px" stroke="gray" stroke-linecap="round" transform="translate(64 336 )scale(1 -1 )" font-family="sans-serif"><path vector-effect="non-scaling-stroke" d="M0,5.440000e+00 L272,5.440000e+00 M0,7.072000e+01 L272,7.072000e+01 M0,1.360000e+02 L272,1.360000e+02 M0,2.012800e+02 L272,2.012800e+02 M0,2.665600e+02 L272,2.665600e+02 "/></g><g font-family="sans-serif" stroke-linecap="round" stroke-linejoin="round" dominant-baseline="hanging" font-weight="bold" text-anchor="middle" stroke="black" font-size="12px" fill="none" font-style="normal" stroke-width="2px"><rect y="64" width="272" height="272" vector-effect="non-scaling-stroke" x="64"/><g fill="black" font-size="18px" dominant-baseline="middle"><text vector-effect="non-scaling-stroke" x="200" y="32" dominant-baseline="middle" stroke="none">exp</text></g></g></svg>