<svg viewbox="0 0 400 400" preserveAspectRatio="xMidYMid meet" xmlns="http://www.w3.org/2000/svg" width="400" height="400"><defs><marker id="circle" viewBox="0 0 10 10 " refX="5" refY="5" markerUnits="userSpaceOnUse" markerWidth="2%" markerHeight="2%"><circle cx="5" cy="5" r="3" fill="none" stroke="black"/></marker><marker refY="5" markerUnits="userSpaceOnUse" markerWidth="2%" markerHeight="2%" id="filled-circle" viewBox="0 0 10 10 " refX="5"><circle cx="5" cy="5" r="3" fill="black" stroke="none"/></marker><marker markerHeight="2%" id="square" viewBox="0 0 10 10 " refX="5" refY="5" markerUnits="userSpaceOnUse" markerWidth="2%"><rect height="6" fill="none" stroke="black" x="2" y="2" width="6"/></marker><marker id="filled-square" viewBox="0 0 10 10 " refX="5" refY="5" markerUnits="userSpaceOnUse" markerWidth="2%" markerHeight="2%"><rect fill="black" stroke="none" x="2" y="2" width="6" height="6"/></marker></defs><g transform="translate(64 336 )scale(1 -1 )" stroke-width="3px" marker-start="url(#filled-circle)" marker-mid="url(#filled-circle)" marker-end="url(#filled-circle)" fill="none" stroke-linejoin="round" stroke="hsl(90, 47%, 65%)" stroke-linecap="round"><path vector-effect="non-scaling-stroke" d="M5.440000e+00,5.440000e+00 L3.155200e+01,7.069390e+01 L5.766400e+01,1.351697e+02 L8.377600e+01,1.951339e+02 L1.098880e+02,2.423050e+02 L136,2.665600e+02 L1.621120e+02,2.633957e+02 L1.882240e+02,2.385353e+02 L2.143360e+02,2.033781e+02 L2.404480e+02,1.675413e+02 L2.665600e+02,136 "/></g><g stroke-width="2px" stroke-linejoin="round" stroke-linecap="round" transform="translate(64 336 )scale(1 -1 )" fill="none" stroke="black"><path vector-effect="non-scaling-stroke" d="M5.440000e+00,0 L5.440000e+00,-6 M136,0 L136,-6 M2.665600e+02,0 L2.665600e+02,-6 "/></g><g stroke-linecap="round" font-style="normal" dominant-baseline="hanging" stroke-width="2px" stroke-linejoin="round" font-size="12px" fill="black" stroke="black" font-family="sans-serif" font-weight="normal" text-anchor="middle" transform="translate(64 336 )scale(1 1 )"><text vector-effect="non-scaling-stroke" x="5.440000e+00" y="10" dominant-baseline="hanging" stroke="none">0</text><text x="136" y="10" dominant-baseline="hanging" stroke="none" vector-effect="non-scaling-stroke">1</text><text stroke="none" vector-effect="non-scaling-stroke" x="2.665600e+02" y="10" dominant-baseline="hanging">2</text></g><g dominant-baseline="baseline" stroke="black" stroke-linecap="round" transform="translate(64 336 )scale(1 1 )rotate(0 0 0 )" font-style="normal" text-anchor="middle" stroke-width="2px" font-family="sans-serif" font-weight="bold" fill="black" stroke-linejoin="round" font-size="12px"><text stroke="none" vector-effect="non-scaling-stroke" x="136" y="-6" dominant-baseline="baseline">X</text></g><g font-size="12px" dominant-baseline="baseline" font-family="sans-serif" transform="translate(64 336 )scale(1 -1 )" font-style="normal" text-anchor="middle" stroke="black" stroke-linecap="round" fill="black" font-weight="bold" stroke-width="2px" stroke-linejoin="round"><path d="M0,5.440000e+00 L-6,5.440000e+00 M0,7.072000e+01 L-6,7.072000e+01 M0,136 L-6,136 M0,2.012800e+02 L-6,2.012800e+02 M0,2.665600e+02 L-6,2.665600e+02 " vector-effect="non-scaling-stroke"/></g><g stroke-width="2px" stroke-linejoin="round" font-weight="normal" dominant-baseline="middle" fill="black" stroke-linecap="round" transform="translate(64 336 )scale(1 1 )" font-style="normal" font-family="sans-serif" font-size="12px" stroke="black" text-anchor="end"><text x="-10" y="-5.440000e+00" dominant-baseline="middle" stroke="none" vector-effect="non-scaling-stroke">0.0</text><text y="-7.072000e+01" dominant-baseline="middle" stroke="none" vector-effect="non-scaling-stroke" x="-10">0.2</text><text x="-10" y="-136" dominant-baseline="middle" stroke="none" vector-effect="non-scaling-stroke">0.4</text><text x="-10" y="-2.012800e+02" dominant-baseline="middle" stroke="none" vector-effect="non-scaling-stroke">0.6</text><text x="-10" y="-2.665600e+02" dominant-baseline="middle" stroke="none" vector-effect="non-scaling-stroke">0.8</text></g><g text-anchor="middle" fill="black" stroke-linejoin="round" font-size="12px" stroke-width="2px" stroke="black" stroke-linecap="round" font-style="normal" font-family="sans-serif" font-weight="bold" dominant-baseline="hanging" transform="translate(64 336 )scale(1 1 )rotate(-90 0 0 )"><text stroke="none" vector-effect="non-scaling-stroke" x="136" y="6" dominant-baseline="hanging">Y</text></g><g stroke="gray" font-style="normal" stroke-width="0.5px" font-family="sans-serif" font-size="12px" dominant-baseline="hanging" fill="black" stroke-linecap="round" transform="translate(64 336 )scale(1 -1 )" text-anchor="middle" stroke-linejoin="round" font-weight="bold"><path vector-effect="non-scaling-stroke" d="M0,5.440000e+00 L272,5.440000e+00 M0,7.072000e+01 L272,7.072000e+01 M0,136 L272,136 M0,2.012800e+02 L272,2.012800e+02 M0,2.665600e+02 L272,2.665600e+02 "/></g><g marker-mid="url(#filled-square)" marker-start="url(#filled-square)" transform="translate(64 336 )scale(1 -1 )" font-size="12px" font-family="sans-serif" dominant-baseline="hanging" stroke-linecap="round" marker-end="url(#filled-square)" font-style="normal" text-anchor="middle" stroke="hsl(301, 88%, 65%)" font-weight="bold" stroke-width="3px" stroke-linejoin="round" fill="none"><path vector-effect="non-scaling-stroke" d="M3.155200e+01,1.126987e+02 L5.766400e+01,1.410845e+02 L8.377600e+01,1.576892e+02 L1.098880e+02,1.694704e+02 L136,1.786086e+02 L1.621120e+02,1.860750e+02 L1.882240e+02,1.923878e+02 L2.143360e+02,1.978562e+02 L2.404480e+02,2.026797e+02 L2.665600e+02,2.069944e+02 "/></g><g font-style="normal" stroke-width="2px" stroke-linejoin="round" stroke-linecap="round" font-family="sans-serif" stroke="black" font-size="12px" font-weight="bold" fill="none" text-anchor="middle" dominant-baseline="hanging"><rect x="64" y="64" width="272" height="272" vector-effect="non-scaling-stroke"/><g fill="black" dominant-baseline="middle" font-size="18px"><text x="200" y="32" dominant-baseline="middle" stroke="none" vector-effect="non-scaling-stroke">log</text></g></g></svg>