<svg height="400" viewbox="0 0 400 400" preserveAspectRatio="xMidYMid meet" xmlns="http://www.w3.org/2000/svg" width="400"><defs><marker refX="5" refY="5" markerUnits="userSpaceOnUse" markerWidth="2%" markerHeight="2%" id="circle" viewBox="0 0 10 10 "><circle stroke="black" cx="5" cy="5" r="3" fill="none"/></marker><marker markerUnits="userSpaceOnUse" markerWidth="2%" markerHeight="2%" id="filled-circle" viewBox="0 0 10 10 " refX="5" refY="5"><circle r="3" fill="black" stroke="none" cx="5" cy="5"/></marker><marker id="square" viewBox="0 0 10 10 " refX="5" refY="5" markerUnits="userSpaceOnUse" markerWidth="2%" markerHeight="2%"><rect fill="none" stroke="black" x="2" y="2" width="6" height="6"/></marker><marker markerHeight="2%" id="filled-square" viewBox="0 0 10 10 " refX="5" refY="5" markerUnits="userSpaceOnUse" markerWidth="2%"><rect fill="black" stroke="none" x="2" y="2" width="6" height="6"/></marker></defs><g stroke-linecap="round" stroke-linejoin="round" stroke-width="3px" marker-mid="url(#filled-circle)" marker-end="url(#filled-circle)" transform="translate(64 336 )scale(1 -1 )" fill="none" stroke="hsl(90, 47%, 65%)" marker-start="url(#filled-circle)"><path vector-effect="non-scaling-stroke" d="M5.440000e+00,1.273180e+01 L3.155200e+01,7.616347e+01 L5.766400e+01,1.388388e+02 L8.377600e+01,1.971285e+02 L1.098880e+02,2.429823e+02 L136,2.665600e+02 L1.621120e+02,2.634841e+02 L1.882240e+02,2.393179e+02 L2.143360e+02,2.051425e+02 L2.404480e+02,1.703064e+02 L2.665600e+02,1.396459e+02 "/></g><g fill="none" stroke="black" stroke-linecap="round" stroke-width="2px" transform="translate(64 336 )scale(1 -1 )" stroke-linejoin="round"><path vector-effect="non-scaling-stroke" d="M5.440000e+00,0 L5.440000e+00,-6 M136,0 L136,-6 M2.665600e+02,0 L2.665600e+02,-6 "/></g><g transform="translate(64 336 )scale(1 1 )" font-style="normal" text-anchor="middle" stroke-linecap="round" font-family="sans-serif" font-weight="normal" stroke-width="2px" font-size="12px" dominant-baseline="hanging" fill="black" stroke="black" stroke-linejoin="round"><text dominant-baseline="hanging" stroke="none" vector-effect="non-scaling-stroke" x="5.440000e+00" y="10">0</text><text x="136" y="10" dominant-baseline="hanging" stroke="none" vector-effect="non-scaling-stroke">1</text><text stroke="none" vector-effect="non-scaling-stroke" x="2.665600e+02" y="10" dominant-baseline="hanging">2</text></g><g font-weight="bold" fill="black" font-style="normal" text-anchor="middle" stroke-width="2px" transform="translate(64 336 )scale(1 1 )rotate(0 0 0 )" stroke-linecap="round" stroke-linejoin="round" font-family="sans-serif" stroke="black" font-size="12px" dominant-baseline="baseline"><text stroke="none" vector-effect="non-scaling-stroke" x="136" y="-6" dominant-baseline="baseline">X</text></g><g text-anchor="middle" dominant-baseline="baseline" stroke-width="2px" stroke="black" font-family="sans-serif" font-weight="bold" transform="translate(64 336 )scale(1 -1 )" font-style="normal" stroke-linecap="round" stroke-linejoin="round" fill="black" font-size="12px"><path d="M0,1.273180e+01 L-6,1.273180e+01 M0,7.618885e+01 L-6,7.618885e+01 M0,1.396459e+02 L-6,1.396459e+02 M0,2.031029e+02 L-6,2.031029e+02 M0,2.665600e+02 L-6,2.665600e+02 " vector-effect="non-scaling-stroke"/></g><g stroke-width="2px" font-size="12px" font-style="normal" text-anchor="end" stroke="black" stroke-linecap="round" font-family="sans-serif" dominant-baseline="middle" transform="translate(64 336 )scale(1 1 )" font-weight="normal" fill="black" stroke-linejoin="round"><text y="-1.273180e+01" dominant-baseline="middle" stroke="none" vector-effect="non-scaling-stroke" x="-10">-0.0</text><text dominant-baseline="middle" stroke="none" vector-effect="non-scaling-stroke" x="-10" y="-7.618885e+01">0.2</text><text vector-effect="non-scaling-stroke" x="-10" y="-1.396459e+02" dominant-baseline="middle" stroke="none">0.4</text><text stroke="none" vector-effect="non-scaling-stroke" x="-10" y="-2.031029e+02" dominant-baseline="middle">0.6</text><text dominant-baseline="middle" stroke="none" vector-effect="non-scaling-stroke" x="-10" y="-2.665600e+02">0.8</text></g><g stroke-linejoin="round" font-weight="bold" stroke-width="2px" dominant-baseline="hanging" font-style="normal" text-anchor="middle" fill="black" stroke="black" stroke-linecap="round" font-family="sans-serif" transform="translate(64 336 )scale(1 1 )rotate(-90 0 0 )" font-size="12px"><text stroke="none" vector-effect="non-scaling-stroke" x="136" y="6" dominant-baseline="hanging">Y</text></g><g font-weight="bold" transform="translate(64 336 )scale(1 -1 )" font-size="12px" dominant-baseline="hanging" stroke="gray" stroke-linecap="round" stroke-linejoin="round" font-family="sans-serif" stroke-width="0.5px" font-style="normal" text-anchor="middle" fill="black"><path d="M0,1.273180e+01 L272,1.273180e+01 M0,7.618885e+01 L272,7.618885e+01 M0,1.396459e+02 L272,1.396459e+02 M0,2.031029e+02 L272,2.031029e+02 M0,2.665600e+02 L272,2.665600e+02 " vector-effect="non-scaling-stroke"/></g><g fill="none" transform="translate(64 336 )scale(1 -1 )" marker-mid="url(#filled-square)" stroke-width="3px" font-size="12px" text-anchor="middle" dominant-baseline="hanging" marker-end="url(#filled-square)" stroke="hsl(301, 88%, 65%)" marker-start="url(#filled-square)" stroke-linejoin="round" font-style="normal" stroke-linecap="round" font-family="sans-serif" font-weight="bold"><path vector-effect="non-scaling-stroke" d="M5.440000e+00,5.440000e+00 L3.155200e+01,8.475730e+01 L5.766400e+01,1.491050e+02 L8.377600e+01,1.984830e+02 L1.098880e+02,2.328914e+02 L136,2.523301e+02 L1.621120e+02,2.567993e+02 L1.882240e+02,2.462988e+02 L2.143360e+02,2.208286e+02 L2.404480e+02,1.803889e+02 L2.665600e+02,1.249794e+02 "/></g><g font-size="12px" stroke-linecap="round" font-family="sans-serif" text-anchor="middle" dominant-baseline="hanging" stroke-width="2px" font-weight="bold" font-style="normal" stroke-linejoin="round" fill="none" stroke="black"><rect height="272" vector-effect="non-scaling-stroke" x="64" y="64" width="272"/><g dominant-baseline="middle" fill="black" font-size="18px"><text vector-effect="non-scaling-stroke" x="200" y="32" dominant-baseline="middle" stroke="none">quadratic</text></g></g></svg>