<svg xmlns="http://www.w3.org/2000/svg" width="400" height="400" viewbox="0 0 400 400" preserveAspectRatio="xMidYMid meet"><defs><marker viewBox="0 0 10 10 " refX="5" refY="5" markerUnits="userSpaceOnUse" markerWidth="2%" markerHeight="2%" id="circle"><circle fill="none" stroke="black" cx="5" cy="5" r="3"/></marker><marker viewBox="0 0 10 10 " refX="5" refY="5" markerUnits="userSpaceOnUse" markerWidth="2%" markerHeight="2%" id="filled-circle"><circle cx="5" cy="5" r="3" fill="black" stroke="none"/></marker><marker markerWidth="2%" markerHeight="2%" id="square" viewBox="0 0 10 10 " refX="5" refY="5" markerUnits="userSpaceOnUse"><rect x="2" y="2" width="6" height="6" fill="none" stroke="black"/></marker><marker markerUnits="userSpaceOnUse" markerWidth="2%" markerHeight="2%" id="filled-square" viewBox="0 0 10 10 " refX="5" refY="5"><rect height="6" fill="black" stroke="none" x="2" y="2" width="6"/></marker></defs><g transform="translate(64 336 )scale(1 -1 )" stroke-width="3px" stroke-linecap="round" marker-mid="url(#filled-circle)" stroke="hsl(90, 47%, 65%)" fill="none" stroke-linejoin="round" marker-start="url(#filled-circle)" marker-end="url(#filled-circle)"><path vector-effect="non-scaling-stroke" d="M5.440000e+00,136 L3.155200e+01,1.044587e+02 L5.766400e+01,6.862190e+01 L8.377600e+01,3.346470e+01 L1.098880e+02,8.604122e+00 L136,5.440000e+00 L1.621120e+02,2.969511e+01 L1.882240e+02,7.686611e+01 L2.143360e+02,1.368304e+02 L2.404480e+02,2.013061e+02 L2.665600e+02,2.665600e+02 "/></g><g stroke="black" stroke-width="2px" stroke-linecap="round" stroke-linejoin="round" fill="none" transform="translate(64 336 )scale(1 -1 )"><path vector-effect="non-scaling-stroke" d="M5.440000e+00,0 L5.440000e+00,-6 M136,0 L136,-6 M2.665600e+02,0 L2.665600e+02,-6 "/></g><g text-anchor="middle" stroke="black" stroke-width="2px" stroke-linecap="round" stroke-linejoin="round" dominant-baseline="hanging" transform="translate(64 336 )scale(1 1 )" font-style="normal" font-weight="normal" font-size="12px" fill="black" font-family="sans-serif"><text x="5.440000e+00" y="10" dominant-baseline="hanging" stroke="none" vector-effect="non-scaling-stroke">-2</text><text vector-effect="non-scaling-stroke" x="136" y="10" dominant-baseline="hanging" stroke="none">-1</text><text vector-effect="non-scaling-stroke" x="2.665600e+02" y="10" dominant-baseline="hanging" stroke="none">0</text></g><g dominant-baseline="baseline" stroke="black" font-style="normal" stroke-linejoin="round" font-size="12px" text-anchor="middle" fill="black" transform="translate(64 336 )scale(1 1 )rotate(0 0 0 )" font-family="sans-serif" stroke-width="2px" stroke-linecap="round" font-weight="bold"><text stroke="none" vector-effect="non-scaling-stroke" x="136" y="-6" dominant-baseline="baseline">X</text></g><g font-size="12px" text-anchor="middle" font-family="sans-serif" dominant-baseline="baseline" fill="black" stroke-linecap="round" stroke-linejoin="round" stroke="black" stroke-width="2px" font-style="normal" font-weight="bold" transform="translate(64 336 )scale(1 -1 )"><path vector-effect="non-scaling-stroke" d="M0,5.440000e+00 L-6,5.440000e+00 M0,7.072000e+01 L-6,7.072000e+01 M0,1.360000e+02 L-6,1.360000e+02 M0,2.012800e+02 L-6,2.012800e+02 M0,2.665600e+02 L-6,2.665600e+02 "/></g><g stroke="black" stroke-linejoin="round" font-family="sans-serif" font-weight="normal" fill="black" transform="translate(64 336 )scale(1 1 )" font-style="normal" dominant-baseline="middle" stroke-width="2px" stroke-linecap="round" font-size="12px" text-anchor="end"><text y="-5.440000e+00" dominant-baseline="middle" stroke="none" vector-effect="non-scaling-stroke" x="-10">-0.8</text><text stroke="none" vector-effect="non-scaling-stroke" x="-10" y="-7.072000e+01" dominant-baseline="middle">-0.6</text><text y="-1.360000e+02" dominant-baseline="middle" stroke="none" vector-effect="non-scaling-stroke" x="-10">-0.4</text><text x="-10" y="-2.012800e+02" dominant-baseline="middle" stroke="none" vector-effect="non-scaling-stroke">-0.2</text><text dominant-baseline="middle" stroke="none" vector-effect="non-scaling-stroke" x="-10" y="-2.665600e+02">-0.0</text></g><g text-anchor="middle" fill="black" transform="translate(64 336 )scale(1 1 )rotate(-90 0 0 )" dominant-baseline="hanging" font-size="12px" stroke-width="2px" stroke-linecap="round" stroke-linejoin="round" font-family="sans-serif" font-style="normal" font-weight="bold" stroke="black"><text vector-effect="non-scaling-stroke" x="136" y="6" dominant-baseline="hanging" stroke="none">Y</text></g><g transform="translate(64 336 )scale(1 -1 )" dominant-baseline="hanging" fill="black" font-family="sans-serif" font-style="normal" font-size="12px" text-anchor="middle" stroke="gray" stroke-width="0.5px" font-weight="bold" stroke-linejoin="round" stroke-linecap="round"><path d="M0,5.440000e+00 L272,5.440000e+00 M0,7.072000e+01 L272,7.072000e+01 M0,1.360000e+02 L272,1.360000e+02 M0,2.012800e+02 L272,2.012800e+02 M0,2.665600e+02 L272,2.665600e+02 " vector-effect="non-scaling-stroke"/></g><g stroke-linejoin="round" font-size="12px" text-anchor="middle" stroke="hsl(301, 88%, 65%)" stroke-width="3px" font-family="sans-serif" stroke-linecap="round" marker-start="url(#filled-square)" marker-end="url(#filled-square)" font-weight="bold" dominant-baseline="hanging" transform="translate(64 336 )scale(1 -1 )" fill="none" font-style="normal" marker-mid="url(#filled-square)"><path vector-effect="non-scaling-stroke" d="M5.440000e+00,3.559024e+01 L3.155200e+01,4.788759e+01 L5.766400e+01,6.018494e+01 L8.377600e+01,7.248230e+01 L1.098880e+02,8.477965e+01 L136,9.707701e+01 L1.621120e+02,1.093744e+02 L1.882240e+02,1.216717e+02 L2.143360e+02,1.339691e+02 L2.404480e+02,1.462664e+02 L2.665600e+02,1.585638e+02 "/></g><g font-family="sans-serif" stroke-linecap="round" dominant-baseline="hanging" stroke="black" stroke-width="2px" font-style="normal" font-weight="bold" fill="none" stroke-linejoin="round" text-anchor="middle" font-size="12px"><rect vector-effect="non-scaling-stroke" x="64" y="64" width="272" height="272"/><g dominant-baseline="middle" fill="black" font-size="18px"><text x="200" y="32" dominant-baseline="middle" stroke="none" vector-effect="non-scaling-stroke">linear</text></g></g></svg>