<svg viewbox="0 0 400 400" preserveAspectRatio="xMidYMid meet" xmlns="http://www.w3.org/2000/svg" width="400" height="400"><defs><marker id="circle" viewBox="0 0 10 10 " refX="5" refY="5" markerUnits="userSpaceOnUse" markerWidth="2%" markerHeight="2%"><circle cx="5" cy="5" r="3" fill="none" stroke="black"/></marker><marker viewBox="0 0 10 10 " refX="5" refY="5" markerUnits="userSpaceOnUse" markerWidth="2%" markerHeight="2%" id="filled-circle"><circle stroke="none" cx="5" cy="5" r="3" fill="black"/></marker><marker refY="5" markerUnits="userSpaceOnUse" markerWidth="2%" markerHeight="2%" id="square" viewBox="0 0 10 10 " refX="5"><rect fill="none" stroke="black" x="2" y="2" width="6" height="6"/></marker><marker viewBox="0 0 10 10 " refX="5" refY="5" markerUnits="userSpaceOnUse" markerWidth="2%" markerHeight="2%" id="filled-square"><rect height="6" fill="black" stroke="none" x="2" y="2" width="6"/></marker></defs><g stroke-linecap="round" marker-mid="url(#filled-circle)" transform="translate(64 336 )scale(1 -1 )" stroke="hsl(90, 47%, 65%)" marker-start="url(#filled-circle)" fill="none" stroke-linejoin="round" marker-end="url(#filled-circle)" stroke-width="3px"><path d="M5.440000e+00,1.626106e+01 L3.155200e+01,7.881078e+01 L5.766400e+01,1.406147e+02 L8.377600e+01,1.980939e+02 L1.098880e+02,2.433102e+02 L136,2.665600e+02 L1.621120e+02,2.635269e+02 L1.882240e+02,2.396967e+02 L2.143360e+02,2.059965e+02 L2.404480e+02,1.716447e+02 L2.665600e+02,1.414105e+02 " vector-effect="non-scaling-stroke"/></g><g stroke="black" stroke-width="2px" stroke-linejoin="round" transform="translate(64 336 )scale(1 -1 )" fill="none" stroke-linecap="round"><path vector-effect="non-scaling-stroke" d="M5.440000e+00,0 L5.440000e+00,-6 M136,0 L136,-6 M2.665600e+02,0 L2.665600e+02,-6 "/></g><g font-family="sans-serif" font-weight="normal" stroke-linecap="round" font-style="normal" fill="black" stroke-width="2px" stroke-linejoin="round" font-size="12px" transform="translate(64 336 )scale(1 1 )" text-anchor="middle" dominant-baseline="hanging" stroke="black"><text y="10" dominant-baseline="hanging" stroke="none" vector-effect="non-scaling-stroke" x="5.440000e+00">0</text><text y="10" dominant-baseline="hanging" stroke="none" vector-effect="non-scaling-stroke" x="136">1</text><text stroke="none" vector-effect="non-scaling-stroke" x="2.665600e+02" y="10" dominant-baseline="hanging">2</text></g><g stroke-width="2px" stroke-linejoin="round" fill="black" stroke-linecap="round" font-style="normal" font-weight="bold" text-anchor="middle" stroke="black" transform="translate(64 336 )scale(1 1 )rotate(0 0 0 )" font-family="sans-serif" font-size="12px" dominant-baseline="baseline"><text dominant-baseline="baseline" stroke="none" vector-effect="non-scaling-stroke" x="136" y="-6">X</text></g><g text-anchor="middle" stroke-width="2px" fill="black" stroke-linecap="round" transform="translate(64 336 )scale(1 -1 )" font-weight="bold" dominant-baseline="baseline" stroke="black" stroke-linejoin="round" font-style="normal" font-size="12px" font-family="sans-serif"><path vector-effect="non-scaling-stroke" d="M0,1.626106e+01 L-6,1.626106e+01 M0,7.883580e+01 L-6,7.883580e+01 M0,1.414105e+02 L-6,1.414105e+02 M0,2.039853e+02 L-6,2.039853e+02 M0,2.665600e+02 L-6,2.665600e+02 "/></g><g font-weight="normal" dominant-baseline="middle" stroke-linecap="round" font-style="normal" font-family="sans-serif" stroke="black" stroke-width="2px" stroke-linejoin="round" transform="translate(64 336 )scale(1 1 )" fill="black" font-size="12px" text-anchor="end"><text stroke="none" vector-effect="non-scaling-stroke" x="-10" y="-1.626106e+01" dominant-baseline="middle">-0.0</text><text x="-10" y="-7.883580e+01" dominant-baseline="middle" stroke="none" vector-effect="non-scaling-stroke">0.2</text><text y="-1.414105e+02" dominant-baseline="middle" stroke="none" vector-effect="non-scaling-stroke" x="-10">0.4</text><text stroke="none" vector-effect="non-scaling-stroke" x="-10" y="-2.039853e+02" dominant-baseline="middle">0.6</text><text y="-2.665600e+02" dominant-baseline="middle" stroke="none" vector-effect="non-scaling-stroke" x="-10">0.8</text></g><g fill="black" stroke-linecap="round" font-size="12px" font-family="sans-serif" font-weight="bold" dominant-baseline="hanging" stroke-linejoin="round" transform="translate(64 336 )scale(1 1 )rotate(-90 0 0 )" font-style="normal" text-anchor="middle" stroke="black" stroke-width="2px"><text dominant-baseline="hanging" stroke="none" vector-effect="non-scaling-stroke" x="136" y="6">Y</text></g><g font-size="12px" text-anchor="middle" fill="black" stroke-linecap="round" font-style="normal" font-weight="bold" dominant-baseline="hanging" stroke="gray" stroke-width="0.5px" stroke-linejoin="round" transform="translate(64 336 )scale(1 -1 )" font-family="sans-serif"><path d="M0,1.626106e+01 L272,1.626106e+01 M0,7.883580e+01 L272,7.883580e+01 M0,1.414105e+02 L272,1.414105e+02 M0,2.039853e+02 L272,2.039853e+02 M0,2.665600e+02 L272,2.665600e+02 " vector-effect="non-scaling-stroke"/></g><g marker-end="url(#filled-square)" marker-mid="url(#filled-square)" stroke-linecap="round" font-size="12px" stroke-width="3px" marker-start="url(#filled-square)" fill="none" text-anchor="middle" font-style="normal" font-family="sans-serif" dominant-baseline="hanging" stroke="hsl(301, 88%, 65%)" stroke-linejoin="round" transform="translate(64 336 )scale(1 -1 )" font-weight="bold"><path vector-effect="non-scaling-stroke" d="M5.440000e+00,5.440000e+00 L3.155200e+01,8.801124e+01 L5.766400e+01,1.534005e+02 L8.377600e+01,2.022130e+02 L1.098880e+02,2.350538e+02 L136,2.525280e+02 L1.621120e+02,2.552407e+02 L1.882240e+02,2.437970e+02 L2.143360e+02,2.188020e+02 L2.404480e+02,1.808609e+02 L2.665600e+02,1.305787e+02 "/></g><g text-anchor="middle" font-style="normal" stroke-linecap="round" stroke-width="2px" font-family="sans-serif" dominant-baseline="hanging" font-weight="bold" stroke="black" stroke-linejoin="round" fill="none" font-size="12px"><rect x="64" y="64" width="272" height="272" vector-effect="non-scaling-stroke"/><g fill="black" dominant-baseline="middle" font-size="18px"><text vector-effect="non-scaling-stroke" x="200" y="32" dominant-baseline="middle" stroke="none">cubic</text></g></g></svg>