<svg width="400" height="400" viewbox="0 0 400 400" preserveAspectRatio="xMidYMid meet" xmlns="http://www.w3.org/2000/svg"><defs><marker markerUnits="userSpaceOnUse" markerWidth="2%" markerHeight="2%" id="circle" viewBox="0 0 10 10 " refX="5" refY="5"><circle fill="none" stroke="black" cx="5" cy="5" r="3"/></marker><marker id="filled-circle" viewBox="0 0 10 10 " refX="5" refY="5" markerUnits="userSpaceOnUse" markerWidth="2%" markerHeight="2%"><circle cx="5" cy="5" r="3" fill="black" stroke="none"/></marker><marker refX="5" refY="5" markerUnits="userSpaceOnUse" markerWidth="2%" markerHeight="2%" id="square" viewBox="0 0 10 10 "><rect y="2" width="6" height="6" fill="none" stroke="black" x="2"/></marker><marker viewBox="0 0 10 10 " refX="5" refY="5" markerUnits="userSpaceOnUse" markerWidth="2%" markerHeight="2%" id="filled-square"><rect stroke="none" x="2" y="2" width="6" height="6" fill="black"/></marker></defs><g stroke-width="3px" marker-end="url(#filled-circle)" transform="translate(64 336 )scale(1 -1 )" stroke-linecap="round" stroke-linejoin="round" fill="none" marker-mid="url(#filled-circle)" stroke="hsl(90, 47%, 65%)" marker-start="url(#filled-circle)"><path vector-effect="non-scaling-stroke" d="M5.440000e+00,136 L3.155200e+01,1.044587e+02 L5.766400e+01,6.862190e+01 L8.377600e+01,3.346470e+01 L1.098880e+02,8.604122e+00 L136,5.440000e+00 L1.621120e+02,2.969511e+01 L1.882240e+02,7.686611e+01 L2.143360e+02,1.368304e+02 L2.404480e+02,2.013061e+02 L2.665600e+02,2.665600e+02 "/></g><g fill="none" stroke-width="2px" stroke-linejoin="round" transform="translate(64 336 )scale(1 -1 )" stroke="black" stroke-linecap="round"><path d="M5.440000e+00,0 L5.440000e+00,-6 M136,0 L136,-6 M2.665600e+02,0 L2.665600e+02,-6 " vector-effect="non-scaling-stroke"/></g><g dominant-baseline="hanging" fill="black" font-family="sans-serif" font-style="normal" stroke-linejoin="round" text-anchor="middle" font-weight="normal" stroke-width="2px" font-size="12px" stroke="black" stroke-linecap="round" transform="translate(64 336 )scale(1 1 )"><text stroke="none" vector-effect="non-scaling-stroke" x="5.440000e+00" y="10" dominant-baseline="hanging">-2</text><text vector-effect="non-scaling-stroke" x="136" y="10" dominant-baseline="hanging" stroke="none">-1</text><text stroke="none" vector-effect="non-scaling-stroke" x="2.665600e+02" y="10" dominant-baseline="hanging">0</text></g><g font-style="normal" transform="translate(64 336 )scale(1 1 )rotate(0 0 0 )" text-anchor="middle" dominant-baseline="baseline" stroke="black" stroke-linecap="round" fill="black" stroke-width="2px" font-family="sans-serif" font-size="12px" font-weight="bold" stroke-linejoin="round"><text vector-effect="non-scaling-stroke" x="136" y="-6" dominant-baseline="baseline" stroke="none">X</text></g><g transform="translate(64 336 )scale(1 -1 )" font-style="normal" dominant-baseline="baseline" font-family="sans-serif" font-size="12px" text-anchor="middle" stroke-linejoin="round" font-weight="bold" fill="black" stroke-width="2px" stroke="black" stroke-linecap="round"><path d="M0,5.440000e+00 L-6,5.440000e+00 M0,7.072000e+01 L-6,7.072000e+01 M0,1.360000e+02 L-6,1.360000e+02 M0,2.012800e+02 L-6,2.012800e+02 M0,2.665600e+02 L-6,2.665600e+02 " vector-effect="non-scaling-stroke"/></g><g text-anchor="end" fill="black" stroke-width="2px" font-family="sans-serif" font-size="12px" font-style="normal" stroke-linecap="round" stroke-linejoin="round" font-weight="normal" dominant-baseline="middle" stroke="black" transform="translate(64 336 )scale(1 1 )"><text vector-effect="non-scaling-stroke" x="-10" y="-5.440000e+00" dominant-baseline="middle" stroke="none">-0.8</text><text x="-10" y="-7.072000e+01" dominant-baseline="middle" stroke="none" vector-effect="non-scaling-stroke">-0.6</text><text y="-1.360000e+02" dominant-baseline="middle" stroke="none" vector-effect="non-scaling-stroke" x="-10">-0.4</text><text stroke="none" vector-effect="non-scaling-stroke" x="-10" y="-2.012800e+02" dominant-baseline="middle">-0.2</text><text x="-10" y="-2.665600e+02" dominant-baseline="middle" stroke="none" vector-effect="non-scaling-stroke">-0.0</text></g><g transform="translate(64 336 )scale(1 1 )rotate(-90 0 0 )" font-style="normal" font-family="sans-serif" stroke="black" stroke-linecap="round" font-size="12px" text-anchor="middle" stroke-linejoin="round" font-weight="bold" dominant-baseline="hanging" fill="black" stroke-width="2px"><text x="136" y="6" dominant-baseline="hanging" stroke="none" vector-effect="non-scaling-stroke">Y</text></g><g stroke-linecap="round" stroke-linejoin="round" dominant-baseline="hanging" fill="black" font-family="sans-serif" font-size="12px" text-anchor="middle" stroke="gray" transform="translate(64 336 )scale(1 -1 )" font-style="normal" font-weight="bold" stroke-width="0.5px"><path vector-effect="non-scaling-stroke" d="M0,5.440000e+00 L272,5.440000e+00 M0,7.072000e+01 L272,7.072000e+01 M0,1.360000e+02 L272,1.360000e+02 M0,2.012800e+02 L272,2.012800e+02 M0,2.665600e+02 L272,2.665600e+02 "/></g><g font-weight="bold" stroke-linejoin="round" font-size="12px" stroke="black" stroke-width="2px" font-family="sans-serif" dominant-baseline="hanging" stroke-linecap="round" text-anchor="middle" font-style="normal" fill="none"><rect y="64" width="272" height="272" vector-effect="non-scaling-stroke" x="64"/><g font-size="18px" fill="black" dominant-baseline="middle"><text dominant-baseline="middle" stroke="none" vector-effect="non-scaling-stroke" x="200" y="32">exp</text></g></g></svg>