<svg preserveAspectRatio="xMidYMid meet" xmlns="http://www.w3.org/2000/svg" width="400" height="400" viewbox="0 0 400 400"><defs><marker refY="5" markerUnits="userSpaceOnUse" markerWidth="2%" markerHeight="2%" id="circle" viewBox="0 0 10 10 " refX="5"><circle r="3" fill="none" stroke="black" cx="5" cy="5"/></marker><marker refY="5" markerUnits="userSpaceOnUse" markerWidth="2%" markerHeight="2%" id="filled-circle" viewBox="0 0 10 10 " refX="5"><circle cx="5" cy="5" r="3" fill="black" stroke="none"/></marker><marker viewBox="0 0 10 10 " refX="5" refY="5" markerUnits="userSpaceOnUse" markerWidth="2%" markerHeight="2%" id="square"><rect height="6" fill="none" stroke="black" x="2" y="2" width="6"/></marker><marker refY="5" markerUnits="userSpaceOnUse" markerWidth="2%" markerHeight="2%" id="filled-square" viewBox="0 0 10 10 " refX="5"><rect y="2" width="6" height="6" fill="black" stroke="none" x="2"/></marker></defs><g stroke-width="3px" transform="translate(64 336 )scale(1 -1 )" marker-end="url(#filled-circle)" stroke="hsl(90, 47%, 65%)" stroke-linejoin="round" fill="none" stroke-linecap="round" marker-start="url(#filled-circle)" marker-mid="url(#filled-circle)"><path vector-effect="non-scaling-stroke" d="M5.440000e+00,1.360000e+02 L3.155200e+01,1.044587e+02 L5.766400e+01,6.862186e+01 L8.377600e+01,3.346471e+01 L1.098880e+02,8.604257e+00 L136,5.440000e+00 L1.621120e+02,2.969498e+01 L1.882240e+02,7.686608e+01 L2.143360e+02,1.368303e+02 L2.404480e+02,2.013061e+02 L2.665600e+02,2.665600e+02 "/></g><g fill="none" stroke-width="2px" stroke-linejoin="round" transform="translate(64 336 )scale(1 -1 )" stroke="black" stroke-linecap="round"><path vector-effect="non-scaling-stroke" d="M5.440000e+00,0 L5.440000e+00,-6 M136,0 L136,-6 M2.665600e+02,0 L2.665600e+02,-6 "/></g><g stroke-width="2px" font-size="12px" font-style="normal" transform="translate(64 336 )scale(1 1 )" font-weight="normal" stroke="black" stroke-linecap="round" font-family="sans-serif" dominant-baseline="hanging" fill="black" stroke-linejoin="round" text-anchor="middle"><text stroke="none" vector-effect="non-scaling-stroke" x="5.440000e+00" y="10" dominant-baseline="hanging">-2</text><text stroke="none" vector-effect="non-scaling-stroke" x="136" y="10" dominant-baseline="hanging">-1</text><text x="2.665600e+02" y="10" dominant-baseline="hanging" stroke="none" vector-effect="non-scaling-stroke">0</text></g><g dominant-baseline="baseline" stroke-width="2px" stroke-linejoin="round" transform="translate(64 336 )scale(1 1 )rotate(0 0 0 )" font-style="normal" font-weight="bold" text-anchor="middle" font-family="sans-serif" font-size="12px" fill="black" stroke-linecap="round" stroke="black"><text x="136" y="-6" dominant-baseline="baseline" stroke="none" vector-effect="non-scaling-stroke">X</text></g><g stroke-linecap="round" font-weight="bold" text-anchor="middle" stroke-width="2px" stroke-linejoin="round" transform="translate(64 336 )scale(1 -1 )" stroke="black" font-family="sans-serif" dominant-baseline="baseline" font-size="12px" font-style="normal" fill="black"><path vector-effect="non-scaling-stroke" d="M0,5.440000e+00 L-6,5.440000e+00 M0,7.072000e+01 L-6,7.072000e+01 M0,1.360000e+02 L-6,1.360000e+02 M0,2.012800e+02 L-6,2.012800e+02 M0,2.665600e+02 L-6,2.665600e+02 "/></g><g stroke-width="2px" transform="translate(64 336 )scale(1 1 )" stroke="black" font-family="sans-serif" dominant-baseline="middle" text-anchor="end" fill="black" stroke-linecap="round" stroke-linejoin="round" font-size="12px" font-style="normal" font-weight="normal"><text vector-effect="non-scaling-stroke" x="-10" y="-5.440000e+00" dominant-baseline="middle" stroke="none">-0.8</text><text vector-effect="non-scaling-stroke" x="-10" y="-7.072000e+01" dominant-baseline="middle" stroke="none">-0.6</text><text stroke="none" vector-effect="non-scaling-stroke" x="-10" y="-1.360000e+02" dominant-baseline="middle">-0.4</text><text stroke="none" vector-effect="non-scaling-stroke" x="-10" y="-2.012800e+02" dominant-baseline="middle">-0.2</text><text vector-effect="non-scaling-stroke" x="-10" y="-2.665600e+02" dominant-baseline="middle" stroke="none">-0.0</text></g><g transform="translate(64 336 )scale(1 1 )rotate(-90 0 0 )" font-size="12px" font-weight="bold" stroke="black" font-style="normal" text-anchor="middle" fill="black" stroke-width="2px" stroke-linejoin="round" dominant-baseline="hanging" stroke-linecap="round" font-family="sans-serif"><text y="6" dominant-baseline="hanging" stroke="none" vector-effect="non-scaling-stroke" x="136">Y</text></g><g fill="black" stroke-linejoin="round" transform="translate(64 336 )scale(1 -1 )" stroke="gray" stroke-linecap="round" font-style="normal" font-weight="bold" text-anchor="middle" dominant-baseline="hanging" font-size="12px" stroke-width="0.5px" font-family="sans-serif"><path vector-effect="non-scaling-stroke" d="M0,5.440000e+00 L272,5.440000e+00 M0,7.072000e+01 L272,7.072000e+01 M0,1.360000e+02 L272,1.360000e+02 M0,2.012800e+02 L272,2.012800e+02 M0,2.665600e+02 L272,2.665600e+02 "/></g><g font-family="sans-serif" stroke-width="2px" stroke-linecap="round" dominant-baseline="hanging" font-style="normal" text-anchor="middle" stroke="black" stroke-linejoin="round" font-size="12px" font-weight="bold" fill="none"><rect height="272" vector-effect="non-scaling-stroke" x="64" y="64" width="272"/><g dominant-baseline="middle" fill="black" font-size="18px"><text vector-effect="non-scaling-stroke" x="200" y="32" dominant-baseline="middle" stroke="none">log</text></g></g></svg>