<svg width="400" height="400" viewbox="0 0 400 400" preserveAspectRatio="xMidYMid meet" xmlns="http://www.w3.org/2000/svg"><defs><marker refX="5" refY="5" markerUnits="userSpaceOnUse" markerWidth="2%" markerHeight="2%" id="circle" viewBox="0 0 10 10 "><circle cy="5" r="3" fill="none" stroke="black" cx="5"/></marker><marker refY="5" markerUnits="userSpaceOnUse" markerWidth="2%" markerHeight="2%" id="filled-circle" viewBox="0 0 10 10 " refX="5"><circle r="3" fill="black" stroke="none" cx="5" cy="5"/></marker><marker id="square" viewBox="0 0 10 10 " refX="5" refY="5" markerUnits="userSpaceOnUse" markerWidth="2%" markerHeight="2%"><rect fill="none" stroke="black" x="2" y="2" width="6" height="6"/></marker><marker id="filled-square" viewBox="0 0 10 10 " refX="5" refY="5" markerUnits="userSpaceOnUse" markerWidth="2%" markerHeight="2%"><rect height="6" fill="black" stroke="none" x="2" y="2" width="6"/></marker></defs><g stroke="hsl(90, 47%, 65%)" stroke-width="3px" stroke-linecap="round" stroke-linejoin="round" marker-end="url(#filled-circle)" transform="translate(64 336 )scale(1 -1 )" marker-start="url(#filled-circle)" marker-mid="url(#filled-circle)" fill="none"><path vector-effect="non-scaling-stroke" d="M5.440000e+00,1.323541e+02 L3.155200e+01,1.016935e+02 L5.766400e+01,6.685753e+01 L8.377600e+01,3.268211e+01 L1.098880e+02,8.515763e+00 L136,5.440000e+00 L1.621120e+02,2.901778e+01 L1.882240e+02,7.487152e+01 L2.143360e+02,1.331613e+02 L2.404480e+02,1.958365e+02 L2.665600e+02,2.592682e+02 "/></g><g fill="none" stroke-width="2px" stroke="black" transform="translate(64 336 )scale(1 -1 )" stroke-linecap="round" stroke-linejoin="round"><path d="M5.440000e+00,0 L5.440000e+00,-6 M136,0 L136,-6 M2.665600e+02,0 L2.665600e+02,-6 " vector-effect="non-scaling-stroke"/></g><g stroke-linecap="round" stroke-linejoin="round" font-size="12px" font-style="normal" text-anchor="middle" fill="black" font-weight="normal" stroke="black" transform="translate(64 336 )scale(1 1 )" dominant-baseline="hanging" stroke-width="2px" font-family="sans-serif"><text stroke="none" vector-effect="non-scaling-stroke" x="5.440000e+00" y="10" dominant-baseline="hanging">-2</text><text dominant-baseline="hanging" stroke="none" vector-effect="non-scaling-stroke" x="136" y="10">-1</text><text stroke="none" vector-effect="non-scaling-stroke" x="2.665600e+02" y="10" dominant-baseline="hanging">0</text></g><g font-family="sans-serif" font-weight="bold" text-anchor="middle" dominant-baseline="baseline" stroke-width="2px" stroke-linecap="round" stroke-linejoin="round" transform="translate(64 336 )scale(1 1 )rotate(0 0 0 )" fill="black" font-size="12px" font-style="normal" stroke="black"><text vector-effect="non-scaling-stroke" x="136" y="-6" dominant-baseline="baseline" stroke="none">X</text></g><g stroke="black" transform="translate(64 336 )scale(1 -1 )" dominant-baseline="baseline" stroke-linecap="round" stroke-linejoin="round" font-style="normal" font-family="sans-serif" font-weight="bold" text-anchor="middle" fill="black" stroke-width="2px" font-size="12px"><path d="M0,5.440000e+00 L-6,5.440000e+00 M0,6.889704e+01 L-6,6.889704e+01 M0,1.323541e+02 L-6,1.323541e+02 M0,1.958111e+02 L-6,1.958111e+02 M0,2.592682e+02 L-6,2.592682e+02 " vector-effect="non-scaling-stroke"/></g><g font-weight="normal" stroke="black" stroke-width="2px" stroke-linecap="round" stroke-linejoin="round" text-anchor="end" dominant-baseline="middle" font-family="sans-serif" font-size="12px" font-style="normal" fill="black" transform="translate(64 336 )scale(1 1 )"><text stroke="none" vector-effect="non-scaling-stroke" x="-10" y="-5.440000e+00" dominant-baseline="middle">-0.8</text><text dominant-baseline="middle" stroke="none" vector-effect="non-scaling-stroke" x="-10" y="-6.889704e+01">-0.6</text><text y="-1.323541e+02" dominant-baseline="middle" stroke="none" vector-effect="non-scaling-stroke" x="-10">-0.4</text><text stroke="none" vector-effect="non-scaling-stroke" x="-10" y="-1.958111e+02" dominant-baseline="middle">-0.2</text><text x="-10" y="-2.592682e+02" dominant-baseline="middle" stroke="none" vector-effect="non-scaling-stroke">-0.0</text></g><g transform="translate(64 336 )scale(1 1 )rotate(-90 0 0 )" font-family="sans-serif" font-weight="bold" dominant-baseline="hanging" stroke-linecap="round" font-size="12px" stroke="black" font-style="normal" text-anchor="middle" fill="black" stroke-width="2px" stroke-linejoin="round"><text x="136" y="6" dominant-baseline="hanging" stroke="none" vector-effect="non-scaling-stroke">Y</text></g><g transform="translate(64 336 )scale(1 -1 )" font-family="sans-serif" font-weight="bold" font-style="normal" dominant-baseline="hanging" fill="black" stroke-linecap="round" stroke="gray" font-size="12px" text-anchor="middle" stroke-width="0.5px" stroke-linejoin="round"><path vector-effect="non-scaling-stroke" d="M0,5.440000e+00 L272,5.440000e+00 M0,6.889704e+01 L272,6.889704e+01 M0,1.323541e+02 L272,1.323541e+02 M0,1.958111e+02 L272,1.958111e+02 M0,2.592682e+02 L272,2.592682e+02 "/></g><g font-size="12px" stroke-width="3px" fill="none" font-family="sans-serif" marker-mid="url(#filled-square)" marker-end="url(#filled-square)" dominant-baseline="hanging" transform="translate(64 336 )scale(1 -1 )" stroke-linejoin="round" font-style="normal" stroke-linecap="round" font-weight="bold" stroke="hsl(301, 88%, 65%)" text-anchor="middle" marker-start="url(#filled-square)"><path vector-effect="non-scaling-stroke" d="M5.440000e+00,1.470205e+02 L3.155200e+01,9.161113e+01 L5.766400e+01,5.117137e+01 L8.377600e+01,2.570124e+01 L1.098880e+02,1.520074e+01 L136,1.966987e+01 L1.621120e+02,3.910863e+01 L1.882240e+02,7.351703e+01 L2.143360e+02,1.228951e+02 L2.404480e+02,1.872427e+02 L2.665600e+02,2.665600e+02 "/></g><g font-size="12px" font-style="normal" fill="none" dominant-baseline="hanging" font-family="sans-serif" stroke-linecap="round" stroke-linejoin="round" text-anchor="middle" stroke="black" font-weight="bold" stroke-width="2px"><rect vector-effect="non-scaling-stroke" x="64" y="64" width="272" height="272"/><g font-size="18px" dominant-baseline="middle" fill="black"><text y="32" dominant-baseline="middle" stroke="none" vector-effect="non-scaling-stroke" x="200">quadratic</text></g></g></svg>