<svg preserveAspectRatio="xMidYMid meet" xmlns="http://www.w3.org/2000/svg" width="400" height="400" viewbox="0 0 400 400"><defs><marker markerWidth="2%" markerHeight="2%" id="circle" viewBox="0 0 10 10 " refX="5" refY="5" markerUnits="userSpaceOnUse"><circle stroke="black" cx="5" cy="5" r="3" fill="none"/></marker><marker markerHeight="2%" id="filled-circle" viewBox="0 0 10 10 " refX="5" refY="5" markerUnits="userSpaceOnUse" markerWidth="2%"><circle r="3" fill="black" stroke="none" cx="5" cy="5"/></marker><marker markerUnits="userSpaceOnUse" markerWidth="2%" markerHeight="2%" id="square" viewBox="0 0 10 10 " refX="5" refY="5"><rect y="2" width="6" height="6" fill="none" stroke="black" x="2"/></marker><marker refX="5" refY="5" markerUnits="userSpaceOnUse" markerWidth="2%" markerHeight="2%" id="filled-square" viewBox="0 0 10 10 "><rect stroke="none" x="2" y="2" width="6" height="6" fill="black"/></marker></defs><g transform="translate(64 336 )scale(1 -1 )" stroke="hsl(90, 47%, 65%)" stroke-width="3px" marker-start="url(#filled-circle)" marker-mid="url(#filled-circle)" marker-end="url(#filled-circle)" stroke-linecap="round" fill="none" stroke-linejoin="round"><path vector-effect="non-scaling-stroke" d="M5.440000e+00,1.305895e+02 L3.155200e+01,1.003553e+02 L5.766400e+01,6.600354e+01 L8.377600e+01,3.230334e+01 L1.098880e+02,8.473127e+00 L136,5.440000e+00 L1.621120e+02,2.868983e+01 L1.882240e+02,7.390612e+01 L2.143360e+02,1.313853e+02 L2.404480e+02,1.931892e+02 L2.665600e+02,2.557389e+02 "/></g><g fill="none" stroke-linejoin="round" stroke="black" stroke-width="2px" stroke-linecap="round" transform="translate(64 336 )scale(1 -1 )"><path vector-effect="non-scaling-stroke" d="M5.440000e+00,0 L5.440000e+00,-6 M136,0 L136,-6 M2.665600e+02,0 L2.665600e+02,-6 "/></g><g stroke-width="2px" stroke-linejoin="round" text-anchor="middle" stroke="black" font-size="12px" font-style="normal" font-weight="normal" dominant-baseline="hanging" fill="black" font-family="sans-serif" stroke-linecap="round" transform="translate(64 336 )scale(1 1 )"><text y="10" dominant-baseline="hanging" stroke="none" vector-effect="non-scaling-stroke" x="5.440000e+00">-2</text><text x="136" y="10" dominant-baseline="hanging" stroke="none" vector-effect="non-scaling-stroke">-1</text><text y="10" dominant-baseline="hanging" stroke="none" vector-effect="non-scaling-stroke" x="2.665600e+02">0</text></g><g font-size="12px" font-weight="bold" stroke="black" stroke-width="2px" dominant-baseline="baseline" transform="translate(64 336 )scale(1 1 )rotate(0 0 0 )" font-style="normal" text-anchor="middle" font-family="sans-serif" fill="black" stroke-linejoin="round" stroke-linecap="round"><text stroke="none" vector-effect="non-scaling-stroke" x="136" y="-6" dominant-baseline="baseline">X</text></g><g fill="black" font-family="sans-serif" font-weight="bold" stroke="black" stroke-width="2px" dominant-baseline="baseline" stroke-linejoin="round" font-size="12px" font-style="normal" text-anchor="middle" stroke-linecap="round" transform="translate(64 336 )scale(1 -1 )"><path vector-effect="non-scaling-stroke" d="M0,5.440000e+00 L-6,5.440000e+00 M0,6.801473e+01 L-6,6.801473e+01 M0,1.305895e+02 L-6,1.305895e+02 M0,1.931642e+02 L-6,1.931642e+02 M0,2.557389e+02 L-6,2.557389e+02 "/></g><g font-size="12px" font-style="normal" font-weight="normal" stroke="black" fill="black" stroke-linejoin="round" transform="translate(64 336 )scale(1 1 )" text-anchor="end" stroke-width="2px" stroke-linecap="round" dominant-baseline="middle" font-family="sans-serif"><text x="-10" y="-5.440000e+00" dominant-baseline="middle" stroke="none" vector-effect="non-scaling-stroke">-0.8</text><text stroke="none" vector-effect="non-scaling-stroke" x="-10" y="-6.801473e+01" dominant-baseline="middle">-0.6</text><text stroke="none" vector-effect="non-scaling-stroke" x="-10" y="-1.305895e+02" dominant-baseline="middle">-0.4</text><text x="-10" y="-1.931642e+02" dominant-baseline="middle" stroke="none" vector-effect="non-scaling-stroke">-0.2</text><text x="-10" y="-2.557389e+02" dominant-baseline="middle" stroke="none" vector-effect="non-scaling-stroke">-0.0</text></g><g font-style="normal" text-anchor="middle" dominant-baseline="hanging" stroke-linejoin="round" font-family="sans-serif" font-size="12px" font-weight="bold" stroke="black" stroke-width="2px" stroke-linecap="round" transform="translate(64 336 )scale(1 1 )rotate(-90 0 0 )" fill="black"><text dominant-baseline="hanging" stroke="none" vector-effect="non-scaling-stroke" x="136" y="6">Y</text></g><g font-weight="bold" stroke-linecap="round" transform="translate(64 336 )scale(1 -1 )" dominant-baseline="hanging" fill="black" stroke-linejoin="round" font-family="sans-serif" font-size="12px" font-style="normal" text-anchor="middle" stroke="gray" stroke-width="0.5px"><path vector-effect="non-scaling-stroke" d="M0,5.440000e+00 L272,5.440000e+00 M0,6.801473e+01 L272,6.801473e+01 M0,1.305895e+02 L272,1.305895e+02 M0,1.931642e+02 L272,1.931642e+02 M0,2.557389e+02 L272,2.557389e+02 "/></g><g font-weight="bold" transform="translate(64 336 )scale(1 -1 )" stroke="hsl(301, 88%, 65%)" stroke-width="3px" font-family="sans-serif" dominant-baseline="hanging" font-style="normal" marker-mid="url(#filled-square)" marker-end="url(#filled-square)" text-anchor="middle" marker-start="url(#filled-square)" stroke-linecap="round" font-size="12px" fill="none" stroke-linejoin="round"><path d="M5.440000e+00,1.414213e+02 L3.155200e+01,9.113914e+01 L5.766400e+01,5.319800e+01 L8.377600e+01,2.820302e+01 L1.098880e+02,1.675932e+01 L136,1.947200e+01 L1.621120e+02,3.694618e+01 L1.882240e+02,6.978696e+01 L2.143360e+02,1.185995e+02 L2.404480e+02,1.839888e+02 L2.665600e+02,2.665600e+02 " vector-effect="non-scaling-stroke"/></g><g font-weight="bold" stroke="black" text-anchor="middle" dominant-baseline="hanging" stroke-linejoin="round" fill="none" font-size="12px" font-style="normal" stroke-linecap="round" stroke-width="2px" font-family="sans-serif"><rect vector-effect="non-scaling-stroke" x="64" y="64" width="272" height="272"/><g fill="black" dominant-baseline="middle" font-size="18px"><text dominant-baseline="middle" stroke="none" vector-effect="non-scaling-stroke" x="200" y="32">cubic</text></g></g></svg>