<svg preserveAspectRatio="xMidYMid meet" xmlns="http://www.w3.org/2000/svg" width="400" height="400" viewbox="0 0 400 400"><defs><marker markerWidth="2%" markerHeight="2%" id="circle" viewBox="0 0 10 10 " refX="5" refY="5" markerUnits="userSpaceOnUse"><circle stroke="black" cx="5" cy="5" r="3" fill="none"/></marker><marker markerHeight="2%" id="filled-circle" viewBox="0 0 10 10 " refX="5" refY="5" markerUnits="userSpaceOnUse" markerWidth="2%"><circle fill="black" stroke="none" cx="5" cy="5" r="3"/></marker><marker id="square" viewBox="0 0 10 10 " refX="5" refY="5" markerUnits="userSpaceOnUse" markerWidth="2%" markerHeight="2%"><rect x="2" y="2" width="6" height="6" fill="none" stroke="black"/></marker><marker markerWidth="2%" markerHeight="2%" id="filled-square" viewBox="0 0 10 10 " refX="5" refY="5" markerUnits="userSpaceOnUse"><rect y="2" width="6" height="6" fill="black" stroke="none" x="2"/></marker></defs><g marker-mid="url(#filled-circle)" stroke-linecap="round" stroke="hsl(90, 47%, 65%)" stroke-width="3px" marker-start="url(#filled-circle)" fill="none" stroke-linejoin="round" marker-end="url(#filled-circle)" transform="translate(64 336 )scale(1 -1 )"><path vector-effect="non-scaling-stroke" d="M5.440000e+00,5.440000e+00 L3.155200e+01,7.069390e+01 L5.766400e+01,1.351697e+02 L8.377600e+01,1.951339e+02 L1.098880e+02,2.423050e+02 L136,2.665600e+02 L1.621120e+02,2.633957e+02 L1.882240e+02,2.385353e+02 L2.143360e+02,2.033781e+02 L2.404480e+02,1.675413e+02 L2.665600e+02,136 "/></g><g stroke-linejoin="round" stroke="black" stroke-width="2px" transform="translate(64 336 )scale(1 -1 )" fill="none" stroke-linecap="round"><path vector-effect="non-scaling-stroke" d="M5.440000e+00,0 L5.440000e+00,-6 M136,0 L136,-6 M2.665600e+02,0 L2.665600e+02,-6 "/></g><g text-anchor="middle" fill="black" dominant-baseline="hanging" stroke="black" stroke-width="2px" font-family="sans-serif" font-size="12px" font-style="normal" stroke-linecap="round" font-weight="normal" transform="translate(64 336 )scale(1 1 )" stroke-linejoin="round"><text x="5.440000e+00" y="10" dominant-baseline="hanging" stroke="none" vector-effect="non-scaling-stroke">0</text><text vector-effect="non-scaling-stroke" x="136" y="10" dominant-baseline="hanging" stroke="none">1</text><text stroke="none" vector-effect="non-scaling-stroke" x="2.665600e+02" y="10" dominant-baseline="hanging">2</text></g><g stroke-linecap="round" font-family="sans-serif" font-size="12px" transform="translate(64 336 )scale(1 1 )rotate(0 0 0 )" font-weight="bold" dominant-baseline="baseline" text-anchor="middle" fill="black" stroke-linejoin="round" font-style="normal" stroke="black" stroke-width="2px"><text vector-effect="non-scaling-stroke" x="136" y="-6" dominant-baseline="baseline" stroke="none">X</text></g><g stroke="black" dominant-baseline="baseline" font-style="normal" fill="black" stroke-linecap="round" stroke-linejoin="round" stroke-width="2px" transform="translate(64 336 )scale(1 -1 )" font-weight="bold" text-anchor="middle" font-family="sans-serif" font-size="12px"><path vector-effect="non-scaling-stroke" d="M0,5.440000e+00 L-6,5.440000e+00 M0,7.072000e+01 L-6,7.072000e+01 M0,136 L-6,136 M0,2.012800e+02 L-6,2.012800e+02 M0,2.665600e+02 L-6,2.665600e+02 "/></g><g font-size="12px" font-style="normal" transform="translate(64 336 )scale(1 1 )" font-weight="normal" fill="black" stroke-linejoin="round" font-family="sans-serif" stroke="black" stroke-width="2px" dominant-baseline="middle" stroke-linecap="round" text-anchor="end"><text y="-5.440000e+00" dominant-baseline="middle" stroke="none" vector-effect="non-scaling-stroke" x="-10">0.0</text><text dominant-baseline="middle" stroke="none" vector-effect="non-scaling-stroke" x="-10" y="-7.072000e+01">0.2</text><text stroke="none" vector-effect="non-scaling-stroke" x="-10" y="-136" dominant-baseline="middle">0.4</text><text stroke="none" vector-effect="non-scaling-stroke" x="-10" y="-2.012800e+02" dominant-baseline="middle">0.6</text><text dominant-baseline="middle" stroke="none" vector-effect="non-scaling-stroke" x="-10" y="-2.665600e+02">0.8</text></g><g fill="black" stroke-linecap="round" stroke-linejoin="round" font-family="sans-serif" font-size="12px" font-style="normal" text-anchor="middle" stroke="black" stroke-width="2px" transform="translate(64 336 )scale(1 1 )rotate(-90 0 0 )" font-weight="bold" dominant-baseline="hanging"><text stroke="none" vector-effect="non-scaling-stroke" x="136" y="6" dominant-baseline="hanging">Y</text></g><g font-family="sans-serif" dominant-baseline="hanging" stroke="gray" stroke-width="0.5px" font-weight="bold" text-anchor="middle" stroke-linejoin="round" transform="translate(64 336 )scale(1 -1 )" font-size="12px" font-style="normal" fill="black" stroke-linecap="round"><path vector-effect="non-scaling-stroke" d="M0,5.440000e+00 L272,5.440000e+00 M0,7.072000e+01 L272,7.072000e+01 M0,136 L272,136 M0,2.012800e+02 L272,2.012800e+02 M0,2.665600e+02 L272,2.665600e+02 "/></g><g font-family="sans-serif" text-anchor="middle" dominant-baseline="hanging" font-style="normal" fill="none" stroke-linecap="round" marker-end="url(#filled-square)" marker-mid="url(#filled-square)" transform="translate(64 336 )scale(1 -1 )" marker-start="url(#filled-square)" font-size="12px" stroke="hsl(301, 88%, 65%)" stroke-width="3px" stroke-linejoin="round" font-weight="bold"><path vector-effect="non-scaling-stroke" d="M3.155200e+01,1.107143e+02 L5.766400e+01,1.412413e+02 L8.377600e+01,1.630522e+02 L1.098880e+02,1.806203e+02 L136,1.955848e+02 L1.621120e+02,2.087559e+02 L1.882240e+02,2.206011e+02 L2.143360e+02,2.314183e+02 L2.404480e+02,2.414102e+02 L2.665600e+02,2.507221e+02 "/></g><g text-anchor="middle" stroke="black" stroke-width="2px" stroke-linecap="round" font-size="12px" font-style="normal" font-weight="bold" fill="none" dominant-baseline="hanging" stroke-linejoin="round" font-family="sans-serif"><rect height="272" vector-effect="non-scaling-stroke" x="64" y="64" width="272"/><g dominant-baseline="middle" fill="black" font-size="18px"><text x="200" y="32" dominant-baseline="middle" stroke="none" vector-effect="non-scaling-stroke">pow</text></g></g></svg>