<svg viewbox="0 0 400 400" preserveAspectRatio="xMidYMid meet" xmlns="http://www.w3.org/2000/svg" width="400" height="400"><defs><marker refY="5" markerUnits="userSpaceOnUse" markerWidth="2%" markerHeight="2%" id="circle" viewBox="0 0 10 10 " refX="5"><circle cx="5" cy="5" r="3" fill="none" stroke="black"/></marker><marker viewBox="0 0 10 10 " refX="5" refY="5" markerUnits="userSpaceOnUse" markerWidth="2%" markerHeight="2%" id="filled-circle"><circle stroke="none" cx="5" cy="5" r="3" fill="black"/></marker><marker markerHeight="2%" id="square" viewBox="0 0 10 10 " refX="5" refY="5" markerUnits="userSpaceOnUse" markerWidth="2%"><rect fill="none" stroke="black" x="2" y="2" width="6" height="6"/></marker><marker viewBox="0 0 10 10 " refX="5" refY="5" markerUnits="userSpaceOnUse" markerWidth="2%" markerHeight="2%" id="filled-square"><rect stroke="none" x="2" y="2" width="6" height="6" fill="black"/></marker></defs><g stroke-linecap="round" stroke-linejoin="round" marker-mid="url(#filled-circle)" transform="translate(64 336 )scale(1 -1 )" stroke-width="3px" marker-end="url(#filled-circle)" fill="none" stroke="hsl(90, 47%, 65%)" marker-start="url(#filled-circle)"><path vector-effect="non-scaling-stroke" d="M5.440000e+00,1.360000e+02 L3.155200e+01,1.044587e+02 L5.766400e+01,6.862186e+01 L8.377600e+01,3.346471e+01 L1.098880e+02,8.604257e+00 L136,5.440000e+00 L1.621120e+02,2.969498e+01 L1.882240e+02,7.686608e+01 L2.143360e+02,1.368303e+02 L2.404480e+02,2.013061e+02 L2.665600e+02,2.665600e+02 "/></g><g fill="none" stroke="black" stroke-width="2px" stroke-linecap="round" stroke-linejoin="round" transform="translate(64 336 )scale(1 -1 )"><path vector-effect="non-scaling-stroke" d="M5.440000e+00,0 L5.440000e+00,-6 M136,0 L136,-6 M2.665600e+02,0 L2.665600e+02,-6 "/></g><g stroke-linecap="round" font-weight="normal" fill="black" stroke-linejoin="round" font-family="sans-serif" font-size="12px" dominant-baseline="hanging" stroke-width="2px" font-style="normal" stroke="black" transform="translate(64 336 )scale(1 1 )" text-anchor="middle"><text x="5.440000e+00" y="10" dominant-baseline="hanging" stroke="none" vector-effect="non-scaling-stroke">-2</text><text stroke="none" vector-effect="non-scaling-stroke" x="136" y="10" dominant-baseline="hanging">-1</text><text vector-effect="non-scaling-stroke" x="2.665600e+02" y="10" dominant-baseline="hanging" stroke="none">0</text></g><g fill="black" stroke="black" stroke-width="2px" stroke-linejoin="round" font-weight="bold" font-style="normal" transform="translate(64 336 )scale(1 1 )rotate(0 0 0 )" font-family="sans-serif" font-size="12px" text-anchor="middle" dominant-baseline="baseline" stroke-linecap="round"><text vector-effect="non-scaling-stroke" x="136" y="-6" dominant-baseline="baseline" stroke="none">X</text></g><g font-style="normal" dominant-baseline="baseline" transform="translate(64 336 )scale(1 -1 )" text-anchor="middle" stroke-linecap="round" stroke-linejoin="round" font-family="sans-serif" font-size="12px" fill="black" stroke="black" font-weight="bold" stroke-width="2px"><path vector-effect="non-scaling-stroke" d="M0,5.440000e+00 L-6,5.440000e+00 M0,7.072000e+01 L-6,7.072000e+01 M0,1.360000e+02 L-6,1.360000e+02 M0,2.012800e+02 L-6,2.012800e+02 M0,2.665600e+02 L-6,2.665600e+02 "/></g><g font-weight="normal" stroke-width="2px" stroke-linecap="round" transform="translate(64 336 )scale(1 1 )" stroke-linejoin="round" fill="black" stroke="black" font-style="normal" font-family="sans-serif" font-size="12px" text-anchor="end" dominant-baseline="middle"><text dominant-baseline="middle" stroke="none" vector-effect="non-scaling-stroke" x="-10" y="-5.440000e+00">-0.8</text><text y="-7.072000e+01" dominant-baseline="middle" stroke="none" vector-effect="non-scaling-stroke" x="-10">-0.6</text><text stroke="none" vector-effect="non-scaling-stroke" x="-10" y="-1.360000e+02" dominant-baseline="middle">-0.4</text><text vector-effect="non-scaling-stroke" x="-10" y="-2.012800e+02" dominant-baseline="middle" stroke="none">-0.2</text><text vector-effect="non-scaling-stroke" x="-10" y="-2.665600e+02" dominant-baseline="middle" stroke="none">-0.0</text></g><g transform="translate(64 336 )scale(1 1 )rotate(-90 0 0 )" font-size="12px" stroke="black" font-style="normal" font-weight="bold" stroke-linecap="round" stroke-linejoin="round" font-family="sans-serif" text-anchor="middle" dominant-baseline="hanging" stroke-width="2px" fill="black"><text y="6" dominant-baseline="hanging" stroke="none" vector-effect="non-scaling-stroke" x="136">Y</text></g><g fill="black" stroke="gray" font-family="sans-serif" text-anchor="middle" stroke-linecap="round" transform="translate(64 336 )scale(1 -1 )" font-style="normal" font-weight="bold" font-size="12px" dominant-baseline="hanging" stroke-width="0.5px" stroke-linejoin="round"><path vector-effect="non-scaling-stroke" d="M0,5.440000e+00 L272,5.440000e+00 M0,7.072000e+01 L272,7.072000e+01 M0,1.360000e+02 L272,1.360000e+02 M0,2.012800e+02 L272,2.012800e+02 M0,2.665600e+02 L272,2.665600e+02 "/></g><g text-anchor="middle" dominant-baseline="hanging" stroke="black" stroke-linejoin="round" font-family="sans-serif" font-style="normal" stroke-width="2px" stroke-linecap="round" font-size="12px" fill="none" font-weight="bold"><rect y="64" width="272" height="272" vector-effect="non-scaling-stroke" x="64"/><g fill="black" dominant-baseline="middle" font-size="18px"><text dominant-baseline="middle" stroke="none" vector-effect="non-scaling-stroke" x="200" y="32">pow</text></g></g></svg>