<svg xmlns="http://www.w3.org/2000/svg" width="400" height="400" viewbox="0 0 400 400" preserveAspectRatio="xMidYMid meet"><defs><marker markerWidth="2%" markerHeight="2%" id="circle" viewBox="0 0 10 10 " refX="5" refY="5" markerUnits="userSpaceOnUse"><circle fill="none" stroke="black" cx="5" cy="5" r="3"/></marker><marker markerWidth="2%" markerHeight="2%" id="filled-circle" viewBox="0 0 10 10 " refX="5" refY="5" markerUnits="userSpaceOnUse"><circle cx="5" cy="5" r="3" fill="black" stroke="none"/></marker><marker viewBox="0 0 10 10 " refX="5" refY="5" markerUnits="userSpaceOnUse" markerWidth="2%" markerHeight="2%" id="square"><rect stroke="black" x="2" y="2" width="6" height="6" fill="none"/></marker><marker refX="5" refY="5" markerUnits="userSpaceOnUse" markerWidth="2%" markerHeight="2%" id="filled-square" viewBox="0 0 10 10 "><rect x="2" y="2" width="6" height="6" fill="black" stroke="none"/></marker></defs><g stroke-width="3px" stroke-linecap="round" marker-start="url(#filled-circle)" transform="translate(64 336 )scale(1 -1 )" fill="none" marker-mid="url(#filled-circle)" stroke="hsl(90, 47%, 65%)" stroke-linejoin="round" marker-end="url(#filled-circle)"><path vector-effect="non-scaling-stroke" d="M5.440000e+00,5.440000e+00 L3.155200e+01,7.069390e+01 L5.766400e+01,1.351697e+02 L8.377600e+01,1.951339e+02 L1.098880e+02,2.423050e+02 L136,2.665600e+02 L1.621120e+02,2.633957e+02 L1.882240e+02,2.385353e+02 L2.143360e+02,2.033781e+02 L2.404480e+02,1.675413e+02 L2.665600e+02,136 "/></g><g fill="none" stroke="black" stroke-width="2px" stroke-linecap="round" stroke-linejoin="round" transform="translate(64 336 )scale(1 -1 )"><path vector-effect="non-scaling-stroke" d="M5.440000e+00,0 L5.440000e+00,-6 M136,0 L136,-6 M2.665600e+02,0 L2.665600e+02,-6 "/></g><g stroke="black" transform="translate(64 336 )scale(1 1 )" font-size="12px" text-anchor="middle" dominant-baseline="hanging" font-family="sans-serif" fill="black" stroke-linecap="round" stroke-linejoin="round" font-style="normal" font-weight="normal" stroke-width="2px"><text dominant-baseline="hanging" stroke="none" vector-effect="non-scaling-stroke" x="5.440000e+00" y="10">0</text><text vector-effect="non-scaling-stroke" x="136" y="10" dominant-baseline="hanging" stroke="none">1</text><text stroke="none" vector-effect="non-scaling-stroke" x="2.665600e+02" y="10" dominant-baseline="hanging">2</text></g><g transform="translate(64 336 )scale(1 1 )rotate(0 0 0 )" dominant-baseline="baseline" font-family="sans-serif" font-weight="bold" stroke-linejoin="round" font-size="12px" font-style="normal" text-anchor="middle" fill="black" stroke="black" stroke-width="2px" stroke-linecap="round"><text y="-6" dominant-baseline="baseline" stroke="none" vector-effect="non-scaling-stroke" x="136">X</text></g><g transform="translate(64 336 )scale(1 -1 )" font-style="normal" stroke="black" text-anchor="middle" dominant-baseline="baseline" font-family="sans-serif" stroke-linecap="round" stroke-linejoin="round" font-weight="bold" stroke-width="2px" font-size="12px" fill="black"><path vector-effect="non-scaling-stroke" d="M0,5.440000e+00 L-6,5.440000e+00 M0,7.072000e+01 L-6,7.072000e+01 M0,136 L-6,136 M0,2.012800e+02 L-6,2.012800e+02 M0,2.665600e+02 L-6,2.665600e+02 "/></g><g stroke-linejoin="round" font-style="normal" font-weight="normal" fill="black" stroke-linecap="round" transform="translate(64 336 )scale(1 1 )" font-size="12px" text-anchor="end" dominant-baseline="middle" font-family="sans-serif" stroke="black" stroke-width="2px"><text x="-10" y="-5.440000e+00" dominant-baseline="middle" stroke="none" vector-effect="non-scaling-stroke">0.0</text><text y="-7.072000e+01" dominant-baseline="middle" stroke="none" vector-effect="non-scaling-stroke" x="-10">0.2</text><text stroke="none" vector-effect="non-scaling-stroke" x="-10" y="-136" dominant-baseline="middle">0.4</text><text y="-2.012800e+02" dominant-baseline="middle" stroke="none" vector-effect="non-scaling-stroke" x="-10">0.6</text><text x="-10" y="-2.665600e+02" dominant-baseline="middle" stroke="none" vector-effect="non-scaling-stroke">0.8</text></g><g stroke-linejoin="round" font-family="sans-serif" font-weight="bold" transform="translate(64 336 )scale(1 1 )rotate(-90 0 0 )" font-size="12px" font-style="normal" fill="black" stroke="black" stroke-width="2px" stroke-linecap="round" text-anchor="middle" dominant-baseline="hanging"><text x="136" y="6" dominant-baseline="hanging" stroke="none" vector-effect="non-scaling-stroke">Y</text></g><g font-family="sans-serif" stroke-linecap="round" transform="translate(64 336 )scale(1 -1 )" font-size="12px" font-style="normal" fill="black" text-anchor="middle" stroke-linejoin="round" stroke="gray" stroke-width="0.5px" dominant-baseline="hanging" font-weight="bold"><path d="M0,5.440000e+00 L272,5.440000e+00 M0,7.072000e+01 L272,7.072000e+01 M0,136 L272,136 M0,2.012800e+02 L272,2.012800e+02 M0,2.665600e+02 L272,2.665600e+02 " vector-effect="non-scaling-stroke"/></g><g dominant-baseline="hanging" stroke-linejoin="round" transform="translate(64 336 )scale(1 -1 )" text-anchor="middle" stroke="hsl(301, 88%, 65%)" marker-end="url(#filled-square)" marker-mid="url(#filled-square)" stroke-width="3px" font-weight="bold" font-style="normal" font-size="12px" fill="none" marker-start="url(#filled-square)" font-family="sans-serif" stroke-linecap="round"><path vector-effect="non-scaling-stroke" d="M5.440000e+00,1.134363e+02 L3.155200e+01,1.257336e+02 L5.766400e+01,1.380310e+02 L8.377600e+01,1.503283e+02 L1.098880e+02,1.626257e+02 L136,1.749230e+02 L1.621120e+02,1.872204e+02 L1.882240e+02,1.995177e+02 L2.143360e+02,2.118151e+02 L2.404480e+02,2.241124e+02 L2.665600e+02,2.364097e+02 "/></g><g dominant-baseline="hanging" font-family="sans-serif" font-style="normal" text-anchor="middle" fill="none" stroke-linecap="round" stroke-linejoin="round" stroke-width="2px" font-weight="bold" stroke="black" font-size="12px"><rect vector-effect="non-scaling-stroke" x="64" y="64" width="272" height="272"/><g font-size="18px" fill="black" dominant-baseline="middle"><text vector-effect="non-scaling-stroke" x="200" y="32" dominant-baseline="middle" stroke="none">linear</text></g></g></svg>