<svg height="400" viewbox="0 0 400 400" preserveAspectRatio="xMidYMid meet" xmlns="http://www.w3.org/2000/svg" width="400"><defs><marker markerHeight="2%" id="circle" viewBox="0 0 10 10 " refX="5" refY="5" markerUnits="userSpaceOnUse" markerWidth="2%"><circle fill="none" stroke="black" cx="5" cy="5" r="3"/></marker><marker markerWidth="2%" markerHeight="2%" id="filled-circle" viewBox="0 0 10 10 " refX="5" refY="5" markerUnits="userSpaceOnUse"><circle stroke="none" cx="5" cy="5" r="3" fill="black"/></marker><marker markerHeight="2%" id="square" viewBox="0 0 10 10 " refX="5" refY="5" markerUnits="userSpaceOnUse" markerWidth="2%"><rect y="2" width="6" height="6" fill="none" stroke="black" x="2"/></marker><marker markerUnits="userSpaceOnUse" markerWidth="2%" markerHeight="2%" id="filled-square" viewBox="0 0 10 10 " refX="5" refY="5"><rect stroke="none" x="2" y="2" width="6" height="6" fill="black"/></marker></defs><g fill="none" stroke-width="3px" transform="translate(64 336 )scale(1 -1 )" marker-start="url(#filled-circle)" marker-mid="url(#filled-circle)" marker-end="url(#filled-circle)" stroke="hsl(90, 47%, 65%)" stroke-linecap="round" stroke-linejoin="round"><path vector-effect="non-scaling-stroke" d="M5.440000e+00,1.323541e+02 L3.155200e+01,1.016936e+02 L5.766400e+01,6.685750e+01 L8.377600e+01,3.268212e+01 L1.098880e+02,8.515895e+00 L136,5.440000e+00 L1.621120e+02,2.901766e+01 L1.882240e+02,7.487150e+01 L2.143360e+02,1.331612e+02 L2.404480e+02,1.958365e+02 L2.665600e+02,2.592682e+02 "/></g><g stroke-width="2px" stroke-linecap="round" stroke-linejoin="round" transform="translate(64 336 )scale(1 -1 )" fill="none" stroke="black"><path vector-effect="non-scaling-stroke" d="M5.440000e+00,0 L5.440000e+00,-6 M136,0 L136,-6 M2.665600e+02,0 L2.665600e+02,-6 "/></g><g stroke="black" stroke-width="2px" stroke-linecap="round" transform="translate(64 336 )scale(1 1 )" font-family="sans-serif" text-anchor="middle" font-weight="normal" stroke-linejoin="round" font-style="normal" fill="black" dominant-baseline="hanging" font-size="12px"><text y="10" dominant-baseline="hanging" stroke="none" vector-effect="non-scaling-stroke" x="5.440000e+00">-2</text><text y="10" dominant-baseline="hanging" stroke="none" vector-effect="non-scaling-stroke" x="136">-1</text><text stroke="none" vector-effect="non-scaling-stroke" x="2.665600e+02" y="10" dominant-baseline="hanging">0</text></g><g font-weight="bold" stroke-width="2px" font-style="normal" fill="black" text-anchor="middle" stroke="black" dominant-baseline="baseline" font-size="12px" stroke-linecap="round" stroke-linejoin="round" transform="translate(64 336 )scale(1 1 )rotate(0 0 0 )" font-family="sans-serif"><text x="136" y="-6" dominant-baseline="baseline" stroke="none" vector-effect="non-scaling-stroke">X</text></g><g font-size="12px" font-style="normal" stroke-linecap="round" stroke-linejoin="round" transform="translate(64 336 )scale(1 -1 )" font-weight="bold" fill="black" stroke="black" stroke-width="2px" font-family="sans-serif" text-anchor="middle" dominant-baseline="baseline"><path vector-effect="non-scaling-stroke" d="M0,5.440000e+00 L-6,5.440000e+00 M0,6.889705e+01 L-6,6.889705e+01 M0,1.323541e+02 L-6,1.323541e+02 M0,1.958112e+02 L-6,1.958112e+02 M0,2.592682e+02 L-6,2.592682e+02 "/></g><g font-family="sans-serif" font-style="normal" fill="black" stroke-linecap="round" text-anchor="end" font-weight="normal" stroke-linejoin="round" stroke="black" stroke-width="2px" dominant-baseline="middle" font-size="12px" transform="translate(64 336 )scale(1 1 )"><text stroke="none" vector-effect="non-scaling-stroke" x="-10" y="-5.440000e+00" dominant-baseline="middle">-0.8</text><text dominant-baseline="middle" stroke="none" vector-effect="non-scaling-stroke" x="-10" y="-6.889705e+01">-0.6</text><text dominant-baseline="middle" stroke="none" vector-effect="non-scaling-stroke" x="-10" y="-1.323541e+02">-0.4</text><text y="-1.958112e+02" dominant-baseline="middle" stroke="none" vector-effect="non-scaling-stroke" x="-10">-0.2</text><text dominant-baseline="middle" stroke="none" vector-effect="non-scaling-stroke" x="-10" y="-2.592682e+02">-0.0</text></g><g stroke-linejoin="round" font-family="sans-serif" font-style="normal" stroke="black" text-anchor="middle" dominant-baseline="hanging" font-size="12px" font-weight="bold" transform="translate(64 336 )scale(1 1 )rotate(-90 0 0 )" fill="black" stroke-width="2px" stroke-linecap="round"><text stroke="none" vector-effect="non-scaling-stroke" x="136" y="6" dominant-baseline="hanging">Y</text></g><g stroke-width="0.5px" stroke-linejoin="round" text-anchor="middle" dominant-baseline="hanging" font-size="12px" font-weight="bold" font-family="sans-serif" font-style="normal" fill="black" stroke="gray" stroke-linecap="round" transform="translate(64 336 )scale(1 -1 )"><path vector-effect="non-scaling-stroke" d="M0,5.440000e+00 L272,5.440000e+00 M0,6.889705e+01 L272,6.889705e+01 M0,1.323541e+02 L272,1.323541e+02 M0,1.958112e+02 L272,1.958112e+02 M0,2.592682e+02 L272,2.592682e+02 "/></g><g stroke-linecap="round" marker-mid="url(#filled-square)" marker-end="url(#filled-square)" stroke="hsl(301, 88%, 65%)" font-weight="bold" fill="none" font-size="12px" font-style="normal" marker-start="url(#filled-square)" stroke-linejoin="round" font-family="sans-serif" dominant-baseline="hanging" text-anchor="middle" stroke-width="3px" transform="translate(64 336 )scale(1 -1 )"><path vector-effect="non-scaling-stroke" d="M5.440000e+00,1.470206e+02 L3.155200e+01,9.161115e+01 L5.766400e+01,5.117138e+01 L8.377600e+01,2.570124e+01 L1.098880e+02,1.520073e+01 L136,1.966986e+01 L1.621120e+02,3.910862e+01 L1.882240e+02,7.351701e+01 L2.143360e+02,1.228950e+02 L2.404480e+02,1.872427e+02 L2.665600e+02,2.665600e+02 "/></g><g fill="none" stroke-linecap="round" stroke="black" stroke-width="2px" font-style="normal" font-weight="bold" stroke-linejoin="round" font-family="sans-serif" text-anchor="middle" dominant-baseline="hanging" font-size="12px"><rect height="272" vector-effect="non-scaling-stroke" x="64" y="64" width="272"/><g fill="black" font-size="18px" dominant-baseline="middle"><text dominant-baseline="middle" stroke="none" vector-effect="non-scaling-stroke" x="200" y="32">quadratic</text></g></g></svg>