<svg viewbox="0 0 500 500" preserveAspectRatio="xMidYMid meet" xmlns="http://www.w3.org/2000/svg" width="500" height="500"><defs><marker id="circle" viewBox="0 0 10 10 " refX="5" refY="5" markerUnits="userSpaceOnUse" markerWidth="2%" markerHeight="2%"><circle stroke="black" cx="5" cy="5" r="3" fill="none"/></marker><marker refY="5" markerUnits="userSpaceOnUse" markerWidth="2%" markerHeight="2%" id="filled-circle" viewBox="0 0 10 10 " refX="5"><circle cx="5" cy="5" r="3" fill="black" stroke="none"/></marker><marker markerHeight="2%" id="square" viewBox="0 0 10 10 " refX="5" refY="5" markerUnits="userSpaceOnUse" markerWidth="2%"><rect height="6" fill="none" stroke="black" x="2" y="2" width="6"/></marker><marker viewBox="0 0 10 10 " refX="5" refY="5" markerUnits="userSpaceOnUse" markerWidth="2%" markerHeight="2%" id="filled-square"><rect width="6" height="6" fill="black" stroke="none" x="2" y="2"/></marker></defs><g stroke-linecap="round" stroke-linejoin="round" marker-start="url(#filled-circle)" fill="none" stroke="hsl(80, 47%, 65%)" stroke-width="3px" transform="translate(64 436 )scale(1 -1 )" marker-end="url(#filled-circle)" marker-mid="url(#filled-circle)"><path vector-effect="non-scaling-stroke" d="M7.440000e+00,1.962915e+02 C1.405333e+01,1.924339e+02 3.389333e+01,1.705775e+02 4.712000e+01,1.731456e+02 C6.034667e+01,1.757138e+02 7.357333e+01,2.086621e+02 8.680000e+01,2.117004e+02 C1.000267e+02,2.147386e+02 1.132533e+02,1.799814e+02 1.264800e+02,1.913752e+02 C1.397067e+02,2.027690e+02 1.529333e+02,2.808280e+02 1.661600e+02,2.800632e+02 C1.793867e+02,2.792984e+02 1.926133e+02,1.893344e+02 2.058400e+02,1.867864e+02 C2.190667e+02,1.842384e+02 2.322933e+02,2.618831e+02 2.455200e+02,2.647752e+02 C2.587467e+02,2.676673e+02 2.719733e+02,2.170521e+02 2.852000e+02,2.041390e+02 C2.984267e+02,1.912258e+02 3.116533e+02,1.744043e+02 3.248800e+02,1.872963e+02 C3.381067e+02,2.001883e+02 3.579467e+02,2.657918e+02 3.645600e+02,2.814909e+02 "/></g><g stroke-width="2px" transform="translate(64 436 )scale(1 -1 )" fill="none" stroke="black" stroke-linecap="round" stroke-linejoin="round"><path vector-effect="non-scaling-stroke" d="M4.712000e+01,0 L4.712000e+01,-6 M1.264800e+02,0 L1.264800e+02,-6 M2.058400e+02,0 L2.058400e+02,-6 M2.852000e+02,0 L2.852000e+02,-6 M3.645600e+02,0 L3.645600e+02,-6 "/></g><g stroke-linecap="round" transform="translate(64 436 )scale(1 1 )" fill="black" font-family="sans-serif" font-size="12px" font-style="normal" font-weight="normal" text-anchor="middle" stroke-linejoin="round" stroke-width="2px" dominant-baseline="hanging" stroke="black"><text stroke="none" vector-effect="non-scaling-stroke" x="4.712000e+01" y="10" dominant-baseline="hanging">2</text><text y="10" dominant-baseline="hanging" stroke="none" vector-effect="non-scaling-stroke" x="1.264800e+02">4</text><text x="2.058400e+02" y="10" dominant-baseline="hanging" stroke="none" vector-effect="non-scaling-stroke">6</text><text vector-effect="non-scaling-stroke" x="2.852000e+02" y="10" dominant-baseline="hanging" stroke="none">8</text><text stroke="none" vector-effect="non-scaling-stroke" x="3.645600e+02" y="10" dominant-baseline="hanging">10</text></g><g fill="black" stroke-linejoin="round" stroke-linecap="round" font-family="sans-serif" font-size="12px" font-style="normal" stroke="black" stroke-width="2px" transform="translate(64 436 )scale(1 1 )rotate(0 0 0 )" dominant-baseline="baseline" font-weight="bold" text-anchor="middle"><text dominant-baseline="baseline" stroke="none" vector-effect="non-scaling-stroke" x="186" y="-6">X</text></g><g dominant-baseline="baseline" text-anchor="middle" stroke-linejoin="round" font-family="sans-serif" font-size="12px" stroke="black" stroke-width="2px" transform="translate(64 436 )scale(1 -1 )" font-weight="bold" stroke-linecap="round" font-style="normal" fill="black"><path d="M0,7.440000e+00 L-6,7.440000e+00 M0,1.502880e+02 L-6,1.502880e+02 M0,2.931360e+02 L-6,2.931360e+02 " vector-effect="non-scaling-stroke"/></g><g font-weight="normal" text-anchor="end" fill="black" transform="translate(64 436 )scale(1 1 )" stroke-linejoin="round" stroke-linecap="round" font-family="sans-serif" font-size="12px" font-style="normal" stroke="black" stroke-width="2px" dominant-baseline="middle"><text dominant-baseline="middle" stroke="none" vector-effect="non-scaling-stroke" x="-10" y="-7.440000e+00">-1.0</text><text stroke="none" vector-effect="non-scaling-stroke" x="-10" y="-1.502880e+02" dominant-baseline="middle">0.0</text><text dominant-baseline="middle" stroke="none" vector-effect="non-scaling-stroke" x="-10" y="-2.931360e+02">1.0</text></g><g stroke-linecap="round" font-family="sans-serif" font-weight="bold" stroke="black" stroke-width="2px" transform="translate(64 436 )scale(1 1 )rotate(-90 0 0 )" stroke-linejoin="round" font-size="12px" font-style="normal" text-anchor="middle" fill="black" dominant-baseline="hanging"><text y="6" dominant-baseline="hanging" stroke="none" vector-effect="non-scaling-stroke" x="186">Y</text></g><g stroke="gray" stroke-width="0.5px" transform="translate(64 436 )scale(1 -1 )" font-style="normal" font-weight="bold" stroke-linejoin="round" font-family="sans-serif" fill="black" text-anchor="middle" stroke-linecap="round" font-size="12px" dominant-baseline="hanging"><path vector-effect="non-scaling-stroke" d="M0,7.440000e+00 L372,7.440000e+00 M0,1.502880e+02 L372,1.502880e+02 M0,2.931360e+02 L372,2.931360e+02 "/></g><g stroke-linejoin="round" font-family="sans-serif" font-size="12px" stroke-width="2px" stroke-linecap="round" dominant-baseline="hanging" font-weight="bold" text-anchor="middle" font-style="normal" fill="none" stroke="black"><rect width="372" height="372" vector-effect="non-scaling-stroke" x="64" y="64"/><g font-size="18px" dominant-baseline="middle" fill="black"><text x="250" y="32" dominant-baseline="middle" stroke="none" vector-effect="non-scaling-stroke">unix</text></g></g></svg>