<svg width="500" height="500" viewbox="0 0 500 500" preserveAspectRatio="xMidYMid meet" xmlns="http://www.w3.org/2000/svg"><defs><marker markerUnits="userSpaceOnUse" markerWidth="2%" markerHeight="2%" id="circle" viewBox="0 0 10 10 " refX="5" refY="5"><circle cy="5" r="3" fill="none" stroke="black" cx="5"/></marker><marker id="filled-circle" viewBox="0 0 10 10 " refX="5" refY="5" markerUnits="userSpaceOnUse" markerWidth="2%" markerHeight="2%"><circle cy="5" r="3" fill="black" stroke="none" cx="5"/></marker><marker markerHeight="2%" id="square" viewBox="0 0 10 10 " refX="5" refY="5" markerUnits="userSpaceOnUse" markerWidth="2%"><rect height="6" fill="none" stroke="black" x="2" y="2" width="6"/></marker><marker refX="5" refY="5" markerUnits="userSpaceOnUse" markerWidth="2%" markerHeight="2%" id="filled-square" viewBox="0 0 10 10 "><rect x="2" y="2" width="6" height="6" fill="black" stroke="none"/></marker></defs><g stroke-linecap="round" stroke-linejoin="round" marker-mid="url(#filled-circle)" fill="none" stroke="hsl(90, 47%, 65%)" marker-end="url(#filled-circle)" transform="translate(64 436 )scale(1 -1 )" stroke-width="3px" marker-start="url(#filled-circle)"><path vector-effect="non-scaling-stroke" d="M7.440000e+00,1.410318e+02 C1.405333e+01,1.382514e+02 3.389333e+01,1.136061e+02 4.712000e+01,1.243497e+02 C6.034667e+01,1.350932e+02 7.357333e+01,1.933305e+02 8.680000e+01,2.054932e+02 C1.000267e+02,2.176559e+02 1.132533e+02,2.116085e+02 1.264800e+02,1.973258e+02 C1.397067e+02,1.830431e+02 1.529333e+02,1.292834e+02 1.661600e+02,1.197971e+02 C1.793867e+02,1.103108e+02 1.926133e+02,1.336914e+02 2.058400e+02,1.404082e+02 C2.190667e+02,1.471250e+02 2.322933e+02,1.589200e+02 2.455200e+02,1.600977e+02 C2.587467e+02,1.612755e+02 2.719733e+02,1.398994e+02 2.852000e+02,1.474748e+02 C2.984267e+02,1.550503e+02 3.116533e+02,2.163443e+02 3.248800e+02,2.055504e+02 C3.381067e+02,1.947564e+02 3.579467e+02,1.031841e+02 3.645600e+02,8.271090e+01 "/></g><g stroke-linejoin="round" fill="none" stroke="black" transform="translate(64 436 )scale(1 -1 )" stroke-width="2px" stroke-linecap="round"><path vector-effect="non-scaling-stroke" d="M4.712000e+01,0 L4.712000e+01,-6 M1.264800e+02,0 L1.264800e+02,-6 M2.058400e+02,0 L2.058400e+02,-6 M2.852000e+02,0 L2.852000e+02,-6 M3.645600e+02,0 L3.645600e+02,-6 "/></g><g dominant-baseline="hanging" stroke-width="2px" stroke="black" font-weight="normal" text-anchor="middle" transform="translate(64 436 )scale(1 1 )" font-family="sans-serif" stroke-linejoin="round" font-size="12px" fill="black" stroke-linecap="round" font-style="normal"><text x="4.712000e+01" y="10" dominant-baseline="hanging" stroke="none" vector-effect="non-scaling-stroke">2</text><text stroke="none" vector-effect="non-scaling-stroke" x="1.264800e+02" y="10" dominant-baseline="hanging">4</text><text dominant-baseline="hanging" stroke="none" vector-effect="non-scaling-stroke" x="2.058400e+02" y="10">6</text><text stroke="none" vector-effect="non-scaling-stroke" x="2.852000e+02" y="10" dominant-baseline="hanging">8</text><text vector-effect="non-scaling-stroke" x="3.645600e+02" y="10" dominant-baseline="hanging" stroke="none">10</text></g><g fill="black" font-weight="bold" text-anchor="middle" stroke-linecap="round" transform="translate(64 436 )scale(1 1 )rotate(0 0 0 )" dominant-baseline="baseline" stroke="black" stroke-linejoin="round" font-size="12px" stroke-width="2px" font-family="sans-serif" font-style="normal"><text stroke="none" vector-effect="non-scaling-stroke" x="186" y="-6" dominant-baseline="baseline">X</text></g><g font-weight="bold" text-anchor="middle" stroke-linecap="round" transform="translate(64 436 )scale(1 -1 )" font-family="sans-serif" fill="black" stroke="black" stroke-linejoin="round" font-size="12px" stroke-width="2px" font-style="normal" dominant-baseline="baseline"><path vector-effect="non-scaling-stroke" d="M0,7.440000e+00 L-6,7.440000e+00 M0,1.502880e+02 L-6,1.502880e+02 M0,2.931360e+02 L-6,2.931360e+02 "/></g><g stroke-linejoin="round" font-size="12px" dominant-baseline="middle" stroke-width="2px" stroke-linecap="round" transform="translate(64 436 )scale(1 1 )" font-family="sans-serif" text-anchor="end" fill="black" stroke="black" font-weight="normal" font-style="normal"><text stroke="none" vector-effect="non-scaling-stroke" x="-10" y="-7.440000e+00" dominant-baseline="middle">-1.0</text><text stroke="none" vector-effect="non-scaling-stroke" x="-10" y="-1.502880e+02" dominant-baseline="middle">0.0</text><text dominant-baseline="middle" stroke="none" vector-effect="non-scaling-stroke" x="-10" y="-2.931360e+02">1.0</text></g><g fill="black" transform="translate(64 436 )scale(1 1 )rotate(-90 0 0 )" font-family="sans-serif" font-size="12px" font-weight="bold" stroke="black" stroke-linejoin="round" text-anchor="middle" stroke-linecap="round" font-style="normal" dominant-baseline="hanging" stroke-width="2px"><text stroke="none" vector-effect="non-scaling-stroke" x="186" y="6" dominant-baseline="hanging">Y</text></g><g dominant-baseline="hanging" fill="black" stroke-linejoin="round" font-size="12px" font-weight="bold" stroke-width="0.5px" transform="translate(64 436 )scale(1 -1 )" font-family="sans-serif" font-style="normal" stroke="gray" text-anchor="middle" stroke-linecap="round"><path d="M0,7.440000e+00 L372,7.440000e+00 M0,1.502880e+02 L372,1.502880e+02 M0,2.931360e+02 L372,2.931360e+02 " vector-effect="non-scaling-stroke"/></g><g font-style="normal" dominant-baseline="hanging" stroke-linecap="round" stroke-linejoin="round" font-size="12px" font-weight="bold" text-anchor="middle" stroke="black" fill="none" font-family="sans-serif" stroke-width="2px"><rect vector-effect="non-scaling-stroke" x="64" y="64" width="372" height="372"/><g fill="black" font-size="18px" dominant-baseline="middle"><text stroke="none" vector-effect="non-scaling-stroke" x="250" y="32" dominant-baseline="middle">UnixNano</text></g></g></svg>